<svg width="100" height="101" viewBox="0 0 100 101" fill="none" xmlns="http://www.w3.org/2000/svg">
<rect y="0.5" width="100" height="100" rx="50" fill="#F3B502"/>
<path d="M68.3333 50.5C67.0072 50.5 65.7355 49.9732 64.7978 49.0355C63.8601 48.0979 63.3333 46.8261 63.3333 45.5C63.3333 44.1739 63.8601 42.9021 64.7978 41.9645C65.7355 41.0268 67.0072 40.5 68.3333 40.5C69.6594 40.5 70.9312 41.0268 71.8689 41.9645C72.8065 42.9021 73.3333 44.1739 73.3333 45.5C73.3333 46.8261 72.8065 48.0979 71.8689 49.0355C70.9312 49.9732 69.6594 50.5 68.3333 50.5ZM58.3333 37.1667C57.0073 37.1667 55.7355 36.6399 54.7978 35.7022C53.8601 34.7645 53.3333 33.4927 53.3333 32.1667C53.3333 30.8406 53.8601 29.5688 54.7978 28.6311C55.7355 27.6934 57.0073 27.1667 58.3333 27.1667C59.6594 27.1667 60.9312 27.6934 61.8689 28.6311C62.8065 29.5688 63.3333 30.8406 63.3333 32.1667C63.3333 33.4927 62.8065 34.7645 61.8689 35.7022C60.9312 36.6399 59.6594 37.1667 58.3333 37.1667ZM41.6667 37.1667C40.3406 37.1667 39.0688 36.6399 38.1311 35.7022C37.1934 34.7645 36.6667 33.4927 36.6667 32.1667C36.6667 30.8406 37.1934 29.5688 38.1311 28.6311C39.0688 27.6934 40.3406 27.1667 41.6667 27.1667C42.9927 27.1667 44.2645 27.6934 45.2022 28.6311C46.1399 29.5688 46.6667 30.8406 46.6667 32.1667C46.6667 33.4927 46.1399 34.7645 45.2022 35.7022C44.2645 36.6399 42.9927 37.1667 41.6667 37.1667ZM31.6667 50.5C30.3406 50.5 29.0688 49.9732 28.1311 49.0355C27.1934 48.0979 26.6667 46.8261 26.6667 45.5C26.6667 44.1739 27.1934 42.9021 28.1311 41.9645C29.0688 41.0268 30.3406 40.5 31.6667 40.5C32.9927 40.5 34.2645 41.0268 35.2022 41.9645C36.1399 42.9021 36.6667 44.1739 36.6667 45.5C36.6667 46.8261 36.1399 48.0979 35.2022 49.0355C34.2645 49.9732 32.9927 50.5 31.6667 50.5ZM50 20.5C42.0435 20.5 34.4129 23.6607 28.7868 29.2868C23.1607 34.9129 20 42.5435 20 50.5C20 58.4565 23.1607 66.0871 28.7868 71.7132C34.4129 77.3393 42.0435 80.5 50 80.5C51.3261 80.5 52.5979 79.9732 53.5355 79.0355C54.4732 78.0978 55 76.8261 55 75.5C55 74.2 54.5 73.0333 53.7 72.1667C52.9333 71.2667 52.4333 70.1 52.4333 68.8333C52.4333 67.5072 52.9601 66.2355 53.8978 65.2978C54.8355 64.3601 56.1073 63.8333 57.4333 63.8333H63.3333C67.7536 63.8333 71.9928 62.0774 75.1184 58.9518C78.2441 55.8262 80 51.5869 80 47.1667C80 32.4333 66.5667 20.5 50 20.5Z" fill="white"/>
</svg>
