<svg width="100" height="101" viewBox="0 0 100 101" fill="none" xmlns="http://www.w3.org/2000/svg">
<rect y="0.5" width="100" height="100" rx="50" fill="#E8644B"/>
<path d="M63.4024 24.1C65.4805 21.7 68.1146 20.5 71.3049 20.5C73.9683 20.5 76.1927 21.4659 78.0366 23.4268C79.8805 25.3878 80.8463 27.6122 80.9634 30.1585C80.9634 32.2073 79.9976 34.578 78.0366 37.3585C76.0756 40.139 74.1732 42.4512 72.2707 44.3537C70.3683 46.2268 67.4122 49.0073 63.4024 52.6951C59.3341 49.0073 56.3488 46.2268 54.4463 44.3537C52.5439 42.4805 50.6122 40.139 48.6805 37.3585C46.7488 34.578 45.8415 32.2073 45.8415 30.1585C45.8415 27.4951 46.778 25.2707 48.6805 23.4268C50.5829 21.5829 52.8659 20.6171 55.5293 20.5C58.661 20.5 61.2659 21.7 63.4024 24.1ZM80.9634 70.2561V73.1829L57.5488 80.5L37.061 74.822V79.0366H19.5V46.8415H42.8268L60.8561 53.5732C64.1341 54.8024 66.3293 57.9634 66.3293 61.4756H72.1829C77.0415 61.4756 80.9634 65.3976 80.9634 70.2561ZM31.2073 73.1829V52.6951H25.3537V73.1829H31.2073ZM74.8171 68.9976C74.3488 68.0317 73.3244 67.3293 72.1829 67.3293H56.5244C54.9439 67.3293 53.3927 67.0951 51.9 66.5976L44.9341 64.2854L46.778 58.7244L53.7439 61.0366C54.6219 61.3293 60.4756 61.4756 60.4756 61.4756C60.4756 60.3927 59.8024 59.4268 58.8073 59.0463L41.7732 52.6951H37.061V68.7927L57.461 74.3829L74.8171 68.9976Z" fill="white"/>
</svg>
