<svg width="32" height="33" viewBox="0 0 32 33" fill="none" xmlns="http://www.w3.org/2000/svg">
<g id="mdi:attachment">
<path id="Vector" d="M9.99935 24.4987C8.05443 24.4987 6.18917 23.7261 4.8139 22.3508C3.43863 20.9755 2.66602 19.1103 2.66602 17.1654C2.66602 15.2204 3.43863 13.3552 4.8139 11.9799C6.18917 10.6046 8.05443 9.83203 9.99935 9.83203H23.9993C25.4138 9.83203 26.7704 10.3939 27.7706 11.3941C28.7708 12.3943 29.3327 13.7509 29.3327 15.1654C29.3327 16.5799 28.7708 17.9364 27.7706 18.9366C26.7704 19.9368 25.4138 20.4987 23.9993 20.4987H12.666C11.782 20.4987 10.9341 20.1475 10.309 19.5224C9.68387 18.8973 9.33268 18.0494 9.33268 17.1654C9.33268 16.2813 9.68387 15.4335 10.309 14.8083C10.9341 14.1832 11.782 13.832 12.666 13.832H22.666V15.832H12.666C12.3124 15.832 11.9733 15.9725 11.7232 16.2226C11.4732 16.4726 11.3327 16.8117 11.3327 17.1654C11.3327 17.519 11.4732 17.8581 11.7232 18.1082C11.9733 18.3582 12.3124 18.4987 12.666 18.4987H23.9993C24.4371 18.4987 24.8705 18.4125 25.275 18.245C25.6794 18.0774 26.0468 17.8319 26.3564 17.5224C26.6659 17.2129 26.9114 16.8454 27.0789 16.441C27.2465 16.0366 27.3327 15.6031 27.3327 15.1654C27.3327 14.7276 27.2465 14.2942 27.0789 13.8898C26.9114 13.4853 26.6659 13.1179 26.3564 12.8083C26.0468 12.4988 25.6794 12.2533 25.275 12.0858C24.8705 11.9183 24.4371 11.832 23.9993 11.832H9.99935C8.58486 11.832 7.22831 12.3939 6.22811 13.3941C5.22792 14.3943 4.66602 15.7509 4.66602 17.1654C4.66602 18.5799 5.22792 19.9364 6.22811 20.9366C7.22831 21.9368 8.58486 22.4987 9.99935 22.4987H22.666V24.4987H9.99935Z" fill="black"/>
</g>
</svg>
