<svg width="360" height="272" viewBox="0 0 360 272" fill="none" xmlns="http://www.w3.org/2000/svg">
<path d="M180.335 51.1887L175.049 50.1562L157.792 138.515L163.078 139.547L180.335 51.1887Z" fill="#F2F2F2"/>
<path d="M174.321 53.8359L165.711 97.918C167.399 97.8934 169.204 98.1069 171.052 98.6683L179.432 55.7635L174.321 53.8359Z" fill="#B3B3B3"/>
<path d="M207.835 95.7516L132.782 81.0927C129.124 80.3784 126.716 76.8009 127.43 73.1426L136.386 27.2902C137.101 23.6319 140.678 21.2237 144.336 21.938L219.389 36.5969C223.047 37.3112 225.455 40.8887 224.741 44.547L215.785 90.3994C215.071 94.0577 211.493 96.4667 207.835 95.7516Z" fill="#F2F2F2"/>
<path d="M177.973 50.977C178.053 50.8927 178.132 50.8074 178.209 50.7196C179.166 49.6328 179.847 48.3044 180.176 46.8943C180.429 45.8111 180.668 44.1989 181.936 43.8439C182.933 43.5646 183.97 44.3939 184.289 45.3788C184.608 46.3637 184.4 47.4338 184.166 48.4415C183.757 50.2021 183.276 51.9469 182.724 53.6681C184.43 54.2128 186.137 54.7575 187.843 55.3022C188.835 55.6194 189.861 55.955 190.63 56.6578C191.398 57.3607 191.836 58.5406 191.369 59.4719C190.72 60.7686 188.885 60.8161 187.479 60.4611C189.061 60.9619 190.199 62.7138 189.831 64.3312C189.463 65.9478 187.482 67.0398 185.982 66.3335C187.054 66.597 187.651 67.8912 187.382 68.9613C187.112 70.0313 186.17 70.8335 185.133 71.2095C184.096 71.5864 182.966 71.6022 181.863 71.5723C177.639 71.459 173.432 70.736 169.412 69.433C168.814 69.2389 168.198 69.0201 167.748 68.5808C167.266 68.1099 167.03 67.4387 166.92 66.7736C166.59 64.7793 167.256 62.7603 168.039 60.8969C168.708 59.3076 169.468 57.7578 170.317 56.2572C170.776 55.4463 171.272 54.6362 171.976 54.0256C172.928 53.1998 174.018 53.4502 175.094 52.9828C176.173 52.5145 177.159 51.8292 177.973 50.977Z" fill="#6D82C5"/>
<path d="M165.181 65.8786C165.274 66.6069 165.312 67.3765 164.826 67.7701C164.433 68.0882 163.865 68.0152 163.368 67.9248C162.531 67.7736 161.694 67.6216 160.857 67.4697C160.575 67.4187 160.282 67.3633 160.048 67.1973C159.587 66.8722 159.492 66.237 159.464 65.6739C159.25 61.3065 160.772 56.8777 163.629 53.5664C163.97 53.171 164.353 52.7756 164.854 52.6298C165.243 52.5173 165.658 52.5683 166.059 52.621C167.029 52.7475 168.028 52.8178 168.989 53.0032C169.62 53.1253 170.249 53.1525 169.804 53.9213C169.331 54.7384 168.62 55.4623 168.116 56.2794C167.176 57.8002 166.3 59.3728 165.722 61.064C165.323 62.2325 165.07 63.4608 165.051 64.6978C165.048 65.0158 165.125 65.4393 165.181 65.8786Z" fill="#6D82C5"/>
<path d="M274.434 229.548C274.434 229.548 283.146 236.238 278.273 248.946C274.451 258.913 270.591 260.583 252.704 262.547C233.441 264.663 175.158 271.156 175.158 271.156C175.158 271.156 158.514 272.45 142.975 254.289C127.436 236.126 9.1058 99.1831 9.1058 99.1831C9.1058 99.1831 -1.24722 88.2423 0.188356 80.2579C1.62305 72.2735 1.66786 65.0025 15.9648 64.6941C30.2617 64.3849 99.6587 63.9113 99.6587 63.9113C99.6587 63.9113 112.025 61.5181 128.778 78.6177C145.532 95.7172 274.434 229.548 274.434 229.548Z" fill="#3A425F"/>
<path d="M278.273 248.943C274.451 258.909 270.591 260.579 252.704 262.544C233.441 264.659 175.158 271.153 175.158 271.153C175.158 271.153 158.514 272.447 142.975 254.285C127.436 236.123 9.1058 99.1796 9.1058 99.1796C9.1058 99.1796 -1.24722 88.2389 0.188356 80.2544C1.36212 73.7223 1.61075 67.6716 9.48622 65.5156C3.35295 71.6384 11.5131 78.3471 11.5131 78.3471C11.5131 78.3471 141.733 226.991 154.442 240.808C167.15 254.626 184.184 252.894 184.184 252.894C184.184 252.894 251.81 246.042 269.79 244.375C275.112 243.882 277.981 241.358 279.393 238.025C280.017 240.94 279.943 244.588 278.273 248.943Z" fill="#162146"/>
<path d="M207.745 229.407C206.579 232.996 210.434 237.465 216.355 239.388C222.277 241.312 228.023 239.963 229.189 236.374C230.354 232.785 226.499 228.316 220.578 226.392C214.656 224.468 208.91 225.818 207.745 229.407Z" fill="#162146"/>
<path d="M256.11 216.936L148.433 225.479L27.1465 88.3536L128.647 85.4219L256.11 216.936Z" fill="#F3B502"/>
<path d="M78.2149 129.994L156.946 123.61C157.714 123.548 158.469 123.831 159.006 124.383L190.244 156.49C191.684 157.969 190.892 160.456 188.862 160.831L113.32 174.787C112.42 174.953 111.499 174.63 110.899 173.94L76.4727 134.261C75.0854 132.662 76.1045 130.164 78.2149 129.994Z" fill="white"/>
<path d="M76.7388 131.39L143.384 144.522L159.006 124.383" stroke="#637DCF" stroke-width="0.878566" stroke-miterlimit="10"/>
<g opacity="0.2">
<path d="M91.6592 86.4899L107.519 86.0312L116.639 189.532L98.5489 169.08L91.6592 86.4899Z" fill="white"/>
</g>
<g opacity="0.3">
<path d="M128.719 203.19L114.489 85.8304L128.647 85.4219L152.127 109.647L167.973 223.929L148.434 225.479L128.719 203.19Z" fill="white"/>
</g>
<path d="M50.7031 76.0175C50.4457 76.81 51.5562 77.881 53.1842 78.4099C54.8121 78.9388 56.34 78.7253 56.5974 77.9328C56.8548 77.1403 55.7443 76.0694 54.1163 75.5405C52.4883 75.0116 50.9605 75.2251 50.7031 76.0175Z" fill="#162146"/>
<path d="M83.0836 74.7699C82.639 76.1379 84.556 77.9872 87.3657 78.9001C90.1754 79.8129 92.8137 79.4439 93.2574 78.076C93.7019 76.708 91.784 74.8595 88.9744 73.9467C86.1665 73.0339 83.5281 73.402 83.0836 74.7699Z" fill="#162146"/>
<path d="M45.1021 78.9639L28.5218 79.3223C28.5218 79.3223 25.3783 79.6729 24.7475 78.0958C24.1167 76.5188 24.8608 76.0743 27.1293 75.9539C29.3978 75.8336 42.5121 75.8494 42.5121 75.8494C42.5121 75.8494 45.9508 75.2941 46.9164 76.8088C47.8828 78.3234 46.8074 78.927 45.1021 78.9639Z" fill="#162146"/>
<path d="M115.306 77.2998L98.7254 77.6583C98.7254 77.6583 95.5819 78.0088 94.9511 76.4318C94.3203 74.8548 95.0645 74.4102 97.3338 74.2898C99.6022 74.1695 112.717 74.1853 112.717 74.1853C112.717 74.1853 116.155 73.6301 117.121 75.1447C118.086 76.6593 117.01 77.262 115.306 77.2998Z" fill="#162146"/>
<path d="M23.1185 107.947L27.6783 113.137C28.809 114.424 30.8218 114.396 31.9165 113.078C32.7924 112.023 32.7705 110.488 31.8664 109.459L27.3058 104.268C26.1751 102.981 24.1623 103.009 23.0676 104.327C22.1925 105.382 22.2136 106.917 23.1185 107.947Z" fill="#3A425F"/>
<path d="M73.0619 96.7003L88.7013 94.3633C88.7013 94.3633 111.531 98.9635 117.323 75.9635L61.2725 69.1484C61.2725 69.1484 63.3169 82.0959 74.7312 87.8891L73.0619 96.7003Z" fill="#9B4332"/>
<path d="M203.847 213.484L213.836 209.323L258.232 212.727C255.184 209.563 251.783 206.034 248.117 202.229L210.506 201.664L203.847 213.484Z" fill="#B3B3B3"/>
<path d="M260.774 72.1639L355.672 59.6918C358.114 59.3711 359.934 61.8935 358.859 64.1092L322.709 138.599C322.709 138.599 267.067 157.928 209.082 140.356C209.082 140.356 242.729 119.256 258.251 74.24C258.635 73.1268 259.606 72.3168 260.774 72.1639Z" fill="white"/>
<path d="M261.465 114.002L263.645 110.733L262.959 110.789L263.524 109.943L264.21 109.887L264.387 109.622C264.626 109.262 264.903 108.947 265.215 108.676C265.538 108.399 265.876 108.178 266.231 108.013C266.592 107.847 266.948 107.75 267.299 107.722C267.511 107.705 267.708 107.71 267.891 107.737C268.08 107.763 268.253 107.809 268.41 107.875L267.582 108.735C267.512 108.698 267.42 108.672 267.306 108.655C267.196 108.633 267.081 108.626 266.962 108.636C266.737 108.654 266.52 108.735 266.312 108.877C266.104 109.019 265.916 109.218 265.746 109.472L265.541 109.779L266.813 109.676L266.249 110.522L264.977 110.625L262.797 113.894L261.465 114.002ZM267.117 113.621C266.7 113.655 266.361 113.628 266.101 113.539C265.844 113.445 265.664 113.305 265.562 113.12C265.464 112.929 265.437 112.706 265.482 112.452C265.536 112.191 265.664 111.911 265.863 111.612C266.139 111.198 266.501 110.81 266.949 110.449C267.403 110.088 267.903 109.789 268.451 109.551C269.008 109.307 269.569 109.162 270.132 109.116C270.702 109.07 271.119 109.135 271.383 109.312C271.65 109.484 271.776 109.733 271.759 110.059C271.753 110.378 271.619 110.734 271.357 111.127C271.312 111.193 271.263 111.263 271.208 111.335C271.158 111.402 271.114 111.458 271.078 111.503L267.053 111.83C266.932 112.049 266.879 112.236 266.894 112.392C266.916 112.547 266.997 112.661 267.136 112.733C267.286 112.799 267.477 112.823 267.709 112.804C267.974 112.783 268.258 112.71 268.56 112.586C268.872 112.456 269.13 112.299 269.335 112.115L270.3 112.288C270.027 112.519 269.714 112.73 269.361 112.921C269.015 113.111 268.649 113.269 268.265 113.394C267.884 113.514 267.502 113.59 267.117 113.621ZM267.493 111.127L270.216 110.906C270.337 110.687 270.389 110.502 270.37 110.352C270.361 110.196 270.287 110.081 270.147 110.009C270.011 109.931 269.82 109.902 269.575 109.922C269.337 109.942 269.087 110.006 268.825 110.116C268.574 110.221 268.33 110.361 268.094 110.537C267.867 110.707 267.667 110.904 267.493 111.127ZM273.067 113.138C272.65 113.172 272.311 113.144 272.05 113.056C271.793 112.961 271.614 112.822 271.512 112.636C271.414 112.446 271.387 112.223 271.431 111.968C271.486 111.707 271.613 111.428 271.812 111.129C272.089 110.714 272.451 110.327 272.898 109.966C273.352 109.605 273.853 109.305 274.4 109.067C274.958 108.823 275.518 108.678 276.081 108.632C276.651 108.586 277.068 108.652 277.332 108.829C277.6 109.001 277.725 109.25 277.709 109.575C277.702 109.895 277.568 110.251 277.306 110.644C277.262 110.71 277.213 110.779 277.158 110.852C277.107 110.919 277.064 110.974 277.027 111.019L273.002 111.346C272.881 111.565 272.828 111.753 272.844 111.908C272.865 112.063 272.946 112.177 273.086 112.25C273.236 112.316 273.427 112.34 273.659 112.321C273.924 112.299 274.207 112.226 274.509 112.103C274.822 111.973 275.08 111.816 275.284 111.632L276.25 111.804C275.977 112.036 275.663 112.247 275.311 112.438C274.964 112.628 274.599 112.786 274.215 112.911C273.834 113.031 273.451 113.106 273.067 113.138ZM273.443 110.644L276.166 110.422C276.287 110.203 276.338 110.019 276.319 109.869C276.311 109.712 276.236 109.598 276.097 109.526C275.961 109.448 275.77 109.419 275.525 109.439C275.286 109.458 275.036 109.523 274.775 109.633C274.524 109.737 274.28 109.877 274.043 110.053C273.817 110.223 273.617 110.42 273.443 110.644ZM277.789 110.62C278.069 110.2 278.421 109.813 278.845 109.459C279.272 109.1 279.728 108.807 280.212 108.579C280.696 108.352 281.163 108.22 281.614 108.183C281.998 108.152 282.289 108.204 282.487 108.34C282.695 108.469 282.804 108.649 282.814 108.878L284.463 106.406L285.795 106.298L282.585 111.109C282.508 111.225 282.476 111.306 282.489 111.352C282.502 111.398 282.561 111.422 282.667 111.424L282.064 112.328C281.806 112.386 281.604 112.421 281.458 112.432C281.22 112.452 281.054 112.418 280.962 112.332C280.876 112.244 280.876 112.121 280.963 111.963L281.126 111.691C280.753 111.977 280.353 112.206 279.926 112.376C279.505 112.547 279.116 112.646 278.758 112.675C278.4 112.704 278.108 112.673 277.881 112.582C277.66 112.49 277.505 112.351 277.416 112.165C277.334 111.978 277.321 111.754 277.375 111.493C277.441 111.226 277.578 110.935 277.789 110.62ZM281.486 110.869L282.178 109.832C282.218 109.677 282.208 109.542 282.147 109.426C282.086 109.311 281.991 109.225 281.86 109.167C281.732 109.104 281.579 109.08 281.4 109.095C281.195 109.111 280.985 109.162 280.772 109.248C280.558 109.333 280.348 109.442 280.141 109.574C279.94 109.705 279.754 109.854 279.58 110.019C279.414 110.185 279.271 110.356 279.153 110.533C279.035 110.71 278.956 110.876 278.915 111.031C278.885 111.18 278.897 111.307 278.952 111.412C279.007 111.517 279.099 111.596 279.227 111.649C279.361 111.7 279.531 111.718 279.737 111.701C279.863 111.691 280 111.664 280.148 111.621C280.306 111.571 280.462 111.512 280.615 111.442C280.779 111.366 280.933 111.28 281.078 111.184C281.234 111.083 281.37 110.978 281.486 110.869ZM285.969 112.089C285.572 112.122 285.267 112.076 285.055 111.952C284.843 111.828 284.735 111.643 284.729 111.398L284.225 112.153L283.063 112.247L287.102 106.191L288.434 106.083L286.785 108.555C287.144 108.28 287.522 108.056 287.92 107.883C288.324 107.708 288.728 107.605 289.133 107.572C289.471 107.545 289.738 107.58 289.935 107.68C290.136 107.773 290.266 107.917 290.324 108.111C290.39 108.304 290.385 108.532 290.31 108.795C290.242 109.056 290.105 109.342 289.898 109.652C289.691 109.962 289.435 110.257 289.128 110.538C288.828 110.819 288.499 111.073 288.14 111.301C287.785 111.523 287.419 111.705 287.044 111.845C286.678 111.98 286.32 112.061 285.969 112.089ZM286.232 111.174C286.444 111.156 286.658 111.108 286.875 111.027C287.102 110.941 287.317 110.834 287.52 110.708C287.73 110.581 287.92 110.438 288.09 110.277C288.269 110.111 288.417 109.942 288.531 109.771C288.69 109.533 288.776 109.319 288.789 109.13C288.813 108.935 288.763 108.784 288.639 108.679C288.521 108.574 288.326 108.532 288.055 108.554C287.862 108.57 287.651 108.624 287.421 108.715C287.2 108.801 286.978 108.914 286.754 109.052C286.537 109.19 286.335 109.342 286.148 109.509L285.457 110.546C285.423 110.654 285.419 110.748 285.446 110.829C285.48 110.91 285.535 110.979 285.61 111.036C285.688 111.087 285.778 111.127 285.878 111.155C285.988 111.178 286.106 111.184 286.232 111.174ZM289.862 110.479C290.05 110.197 290.307 109.943 290.632 109.718C290.968 109.486 291.344 109.299 291.759 109.155C292.175 109.012 292.601 108.922 293.038 108.887C293.257 108.869 293.47 108.865 293.677 108.874C293.883 108.883 294.049 108.912 294.175 108.959L294.329 108.727C294.514 108.45 294.557 108.246 294.457 108.112C294.365 107.979 294.126 107.927 293.742 107.959C293.457 107.982 293.158 108.045 292.844 108.149C292.53 108.253 292.178 108.397 291.786 108.581L291.845 107.885C292.315 107.669 292.76 107.5 293.181 107.377C293.608 107.253 294.02 107.175 294.418 107.143C295.16 107.082 295.633 107.19 295.837 107.467C296.048 107.743 295.962 108.168 295.578 108.743L294.654 110.128C294.577 110.245 294.545 110.326 294.558 110.372C294.578 110.417 294.64 110.441 294.745 110.443L294.142 111.347C294.012 111.373 293.893 111.396 293.787 111.415C293.686 111.434 293.603 111.446 293.537 111.451C293.272 111.473 293.103 111.439 293.03 111.351C292.964 111.262 292.963 111.147 293.025 111.006L293.145 110.785C292.757 111.046 292.35 111.257 291.924 111.417C291.497 111.578 291.109 111.672 290.757 111.7C290.413 111.728 290.14 111.696 289.939 111.602C289.749 111.503 289.642 111.357 289.62 111.165C289.608 110.967 289.688 110.739 289.862 110.479ZM292.952 110.439C293.069 110.367 293.173 110.296 293.264 110.226C293.355 110.156 293.418 110.093 293.455 110.038L293.748 109.598C293.626 109.556 293.482 109.528 293.315 109.516C293.151 109.497 292.987 109.495 292.821 109.509C292.477 109.537 292.149 109.623 291.839 109.769C291.539 109.908 291.321 110.08 291.185 110.285C291.111 110.395 291.077 110.498 291.084 110.591C291.09 110.685 291.143 110.756 291.241 110.806C291.34 110.855 291.485 110.872 291.677 110.857C291.876 110.841 292.092 110.794 292.325 110.718C292.561 110.636 292.77 110.543 292.952 110.439ZM297.438 111.158C297.014 111.192 296.672 111.165 296.412 111.076C296.155 110.982 295.977 110.84 295.879 110.649C295.784 110.452 295.761 110.224 295.809 109.964C295.864 109.703 295.991 109.424 296.19 109.125C296.463 108.716 296.822 108.334 297.265 107.978C297.719 107.617 298.22 107.318 298.767 107.08C299.315 106.842 299.87 106.7 300.433 106.654C300.996 106.608 301.412 106.671 301.679 106.843C301.947 107.015 302.07 107.259 302.047 107.574L300.524 108.012C300.518 107.861 300.45 107.751 300.32 107.683C300.193 107.61 300.018 107.582 299.792 107.601C299.541 107.621 299.272 107.695 298.986 107.823C298.71 107.945 298.447 108.11 298.195 108.319C297.946 108.522 297.735 108.754 297.562 109.014C297.392 109.268 297.301 109.49 297.287 109.679C297.284 109.863 297.346 110.004 297.474 110.103C297.606 110.197 297.798 110.234 298.049 110.214C298.208 110.201 298.372 110.166 298.541 110.111C298.716 110.055 298.886 109.983 299.05 109.897C299.214 109.81 299.356 109.715 299.476 109.611L300.556 109.837C300.293 110.063 299.989 110.27 299.642 110.461C299.303 110.65 298.944 110.808 298.566 110.933C298.199 111.051 297.823 111.126 297.438 111.158ZM304.237 110.527L303.967 108.776L302.874 109.414L302.01 110.708L300.679 110.816L304.718 104.76L306.05 104.652L303.604 108.319L307.001 106.199L308.413 106.084L305.246 108.083L305.658 110.411L304.237 110.527Z" fill="#162146"/>
<path d="M358.859 64.1093C359.934 61.8936 358.114 59.3704 355.672 59.6919L260.774 72.164C259.606 72.3178 258.635 73.1269 258.251 74.241C256.912 78.1234 255.431 81.816 253.856 85.3443L354.455 73.1841L358.859 64.1093Z" fill="#6D82C5"/>
<path d="M336.431 68.2093C336.493 69.1652 335.952 69.9788 335.222 70.0271C334.492 70.0745 333.849 69.3383 333.786 68.3824C333.724 67.4265 334.265 66.613 334.995 66.5647C335.725 66.5172 336.368 67.2535 336.431 68.2093Z" fill="white"/>
<path d="M341.719 67.8578C341.781 68.8137 341.24 69.6272 340.51 69.6755C339.78 69.723 339.137 68.9867 339.074 68.0309C339.012 67.075 339.553 66.2614 340.283 66.2131C341.013 66.1657 341.655 66.9019 341.719 67.8578Z" fill="white"/>
<path d="M347.006 67.5141C347.069 68.47 346.527 69.2835 345.797 69.3319C345.067 69.3793 344.425 68.6431 344.362 67.6872C344.299 66.7313 344.841 65.9169 345.571 65.8694C346.302 65.8211 346.944 66.5573 347.006 67.5141Z" fill="white"/>
<path d="M256.994 93.1434C257.351 93.1434 337.246 84.5703 337.246 84.5703" stroke="#6D82C5" stroke-width="0.498059" stroke-miterlimit="10" stroke-linecap="round" stroke-linejoin="round"/>
<path d="M254.612 100.645L333.674 92.4297" stroke="#6D82C5" stroke-width="0.498059" stroke-miterlimit="10" stroke-linecap="round" stroke-linejoin="round"/>
<path d="M250.922 108.867L327.483 101.484" stroke="#6D82C5" stroke-width="0.498059" stroke-miterlimit="10" stroke-linecap="round" stroke-linejoin="round"/>
<path d="M244.849 117.559C244.849 117.559 306.885 112.438 323.435 110.414" stroke="#6D82C5" stroke-width="0.498059" stroke-miterlimit="10" stroke-linecap="round" stroke-linejoin="round"/>
<path d="M238.538 125.413C238.895 125.413 276.164 125.77 318.79 119.578" stroke="#6D82C5" stroke-width="0.498059" stroke-miterlimit="10" stroke-linecap="round" stroke-linejoin="round"/>
<path d="M231.156 132.32C231.156 132.32 259.018 138.035 312.599 129.344" stroke="#6D82C5" stroke-width="0.498059" stroke-miterlimit="10" stroke-linecap="round" stroke-linejoin="round"/>
<path d="M257.772 87.5389L242.149 98.6695L188.036 22.7166C184.976 18.4204 185.987 12.4013 190.283 9.34041C194.579 6.27949 200.599 7.28985 203.659 11.5869L257.772 87.5389Z" fill="#F8D46D"/>
<path d="M197.027 12.2975L191.129 16.5L250.925 100.418L256.823 96.2153L197.027 12.2975Z" fill="#CA9702"/>
<path d="M190.283 9.34041C185.986 12.4013 184.976 18.4204 188.036 22.7166L189.361 24.5765C192.9 22.4126 200.84 17.4856 205.433 14.0776L203.659 11.5869C200.598 7.28985 194.579 6.27949 190.283 9.34041Z" fill="#E8644B"/>
<path d="M188.037 22.7168L189.362 24.5767C190.475 23.8958 192.025 22.9417 193.767 21.847C191.219 16.7039 190.219 12.6572 190.041 9.53125C185.957 12.6449 185.037 18.5049 188.037 22.7168Z" fill="#9B4332"/>
<path d="M242.149 98.6687L258.5 107.801C259.525 108.355 260.743 107.501 260.572 106.349L257.772 87.5391C257.772 87.5391 246.296 87.8061 242.149 98.6687Z" fill="#F8D46D"/>
<path d="M260.571 106.348L259.597 99.8047C255.768 100.685 253.623 102.779 252.482 104.44L258.499 107.801C259.524 108.354 260.742 107.501 260.571 106.348Z" fill="#1A1A1A"/>
<path d="M188.503 23.3713L195.551 33.2639C198.835 31.513 205.879 27.4487 211.221 22.1993L204.16 12.2891C201.937 14.576 196.953 19.0426 188.503 23.3713Z" fill="#1A1A1A"/>
<path d="M190.168 24.9909C190.168 24.9909 199.009 21.4318 205.189 14.2891" stroke="#F8D46D" stroke-width="0.231414" stroke-miterlimit="10" stroke-linecap="round" stroke-linejoin="round"/>
<path d="M191.96 27.5065C191.96 27.5065 200.799 23.9474 206.982 16.8047" stroke="#F8D46D" stroke-width="0.231414" stroke-miterlimit="10" stroke-linecap="round" stroke-linejoin="round"/>
<path d="M193.752 30.0221C193.752 30.0221 202.593 26.4631 208.773 19.3203" stroke="#F8D46D" stroke-width="0.231414" stroke-miterlimit="10" stroke-linecap="round" stroke-linejoin="round"/>
<path d="M133.955 6.57812L117.658 27.5433L124.556 30.5902L114.095 58.634L133.909 27.8166L126.497 25.5578L133.955 6.57812Z" fill="#F3B502"/>
<path d="M193.068 77.1953L175.798 83.1678L178.633 87.5149L162.071 99.7613L185.068 89.4267L181.642 85.3405L193.068 77.1953Z" fill="#F3B502"/>
<path d="M251.862 155.839L234.595 149.859L234.135 155.029L213.547 154.419L238.013 160.509L237.844 155.179L251.862 155.839Z" fill="#F3B502"/>
<path d="M285.202 236.354L264.02 220.341L261.066 227.278L232.884 217.195L263.965 236.593L266.124 229.151L285.202 236.354Z" fill="#F3B502"/>
<path d="M335.786 204.242H203.988C198.384 204.242 193.799 199.657 193.799 194.053V176.268C193.799 170.663 198.384 166.078 203.988 166.078H335.786C341.39 166.078 345.975 170.663 345.975 176.268V194.053C345.975 199.657 341.39 204.242 335.786 204.242Z" fill="#243775"/>
<path d="M203.689 200.43V214.188L213.906 201.247L203.689 200.43Z" fill="#243775"/>
<path d="M215.167 175.062L217.945 180.691L224.157 181.595L219.662 185.976L220.723 192.163L215.167 189.242L209.611 192.163L210.672 185.976L206.177 181.595L212.389 180.691L215.167 175.062Z" fill="#F3B502"/>
<path d="M242.469 175.062L245.247 180.691L251.46 181.595L246.965 185.976L248.026 192.163L242.469 189.242L236.913 192.163L237.975 185.976L233.48 181.595L239.691 180.691L242.469 175.062Z" fill="#F3B502"/>
<path d="M269.773 175.062L272.551 180.691L278.762 181.595L274.267 185.976L275.329 192.163L269.773 189.242L264.217 192.163L265.278 185.976L260.782 181.595L266.995 180.691L269.773 175.062Z" fill="#F3B502"/>
<path d="M297.075 175.062L299.853 180.691L306.066 181.595L301.571 185.976L302.631 192.163L297.075 189.242L291.519 192.163L292.581 185.976L288.086 181.595L294.297 180.691L297.075 175.062Z" fill="#F3B502"/>
<path d="M324.378 175.062L327.156 180.691L333.367 181.595L328.872 185.976L329.934 192.163L324.378 189.242L318.822 192.163L319.883 185.976L315.387 181.595L321.6 180.691L324.378 175.062Z" fill="white"/>
<path d="M124.322 89.5815L125.636 91.8175C125.74 91.995 125.925 92.1101 126.13 92.1241L128.718 92.3086C129.235 92.3455 129.486 92.9596 129.141 93.3471L127.421 95.2887C127.285 95.4425 127.232 95.6542 127.282 95.8536L127.906 98.3716C128.031 98.875 127.524 99.3029 127.049 99.0955L124.671 98.0597C124.482 97.9771 124.265 97.9929 124.09 98.1027L121.889 99.4742C121.449 99.7483 120.885 99.3986 120.936 98.8829L121.186 96.3017C121.206 96.097 121.124 95.8949 120.966 95.7622L118.982 94.0921C118.584 93.7582 118.744 93.1143 119.25 93.0027L121.782 92.443C121.984 92.3982 122.15 92.2585 122.227 92.067L123.202 89.6633C123.397 89.1836 124.059 89.1352 124.322 89.5815Z" fill="#F3B502"/>
<path d="M299.674 240.536L300.136 241.811C300.173 241.912 300.256 241.988 300.361 242.015L301.671 242.358C301.933 242.426 302.004 242.766 301.789 242.932L300.72 243.764C300.635 243.83 300.588 243.934 300.594 244.041L300.673 245.394C300.689 245.665 300.388 245.836 300.164 245.684L299.042 244.924C298.953 244.864 298.84 244.851 298.74 244.891L297.478 245.385C297.226 245.483 296.969 245.249 297.045 244.989L297.421 243.687C297.451 243.583 297.428 243.473 297.359 243.389L296.5 242.341C296.328 242.132 296.471 241.816 296.742 241.807L298.097 241.762C298.204 241.759 298.303 241.702 298.361 241.612L299.092 240.471C299.238 240.243 299.582 240.281 299.674 240.536Z" fill="#F3B502"/>
<path d="M231.009 24.0585L232.324 26.2945C232.428 26.472 232.613 26.5871 232.818 26.6011L235.406 26.7856C235.923 26.8225 236.173 27.4366 235.829 27.8241L234.109 29.7657C233.973 29.9195 233.92 30.1312 233.97 30.3315L234.594 32.8486C234.719 33.352 234.213 33.7799 233.736 33.5725L231.359 32.5367C231.17 32.4541 230.953 32.4699 230.778 32.5789L228.577 33.9503C228.136 34.2244 227.573 33.8748 227.623 33.3591L227.874 30.7778C227.894 30.5731 227.811 30.371 227.654 30.2384L225.669 28.5682C225.272 28.2344 225.43 27.5904 225.937 27.4788L228.47 26.9192C228.671 26.8752 228.837 26.7347 228.915 26.5431L229.889 24.1394C230.085 23.6606 230.746 23.6114 231.009 24.0585Z" fill="#F3B502"/>
<path d="M228.531 95.996L229.846 98.2319C229.95 98.4094 230.135 98.5245 230.34 98.5385L232.928 98.723C233.445 98.7599 233.696 99.374 233.351 99.7624L231.631 101.704C231.495 101.858 231.442 102.069 231.492 102.27L232.116 104.787C232.241 105.29 231.735 105.718 231.258 105.511L228.88 104.475C228.691 104.392 228.474 104.408 228.299 104.517L226.098 105.889C225.658 106.163 225.094 105.813 225.145 105.297L225.395 102.716C225.415 102.511 225.333 102.309 225.175 102.177L223.191 100.507C222.793 100.173 222.952 99.5287 223.459 99.4171L225.991 98.8575C226.193 98.8126 226.359 98.673 226.436 98.4814L227.411 96.0777C227.606 95.598 228.268 95.5488 228.531 95.996Z" fill="white"/>
<path d="M105.432 14.4649L106.747 16.7009C106.851 16.8784 107.036 16.9934 107.241 17.0075L109.829 17.192C110.346 17.2289 110.597 17.843 110.252 18.2313L108.532 20.173C108.396 20.3267 108.343 20.5385 108.393 20.7379L109.017 23.2559C109.142 23.7593 108.635 24.1871 108.159 23.9798L105.782 22.944C105.593 22.8614 105.376 22.8772 105.201 22.987L103 24.3585C102.559 24.6326 101.996 24.2829 102.046 23.7672L102.297 21.186C102.317 20.9813 102.234 20.7792 102.077 20.6465L100.092 18.9764C99.6953 18.6425 99.8543 17.9985 100.36 17.8869L102.893 17.3273C103.094 17.2825 103.261 17.1428 103.338 16.9513L104.313 14.5475C104.508 14.0661 105.17 14.0177 105.432 14.4649Z" fill="white"/>
<path d="M336.689 143.046L337.572 145.485C337.643 145.678 337.803 145.825 338.003 145.878L340.512 146.533C341.014 146.664 341.147 147.313 340.738 147.632L338.691 149.225C338.528 149.351 338.439 149.55 338.451 149.756L338.603 152.345C338.634 152.862 338.056 153.19 337.628 152.899L335.481 151.445C335.31 151.329 335.094 151.305 334.902 151.38L332.486 152.324C332.003 152.513 331.514 152.066 331.657 151.568L332.377 149.076C332.434 148.879 332.39 148.665 332.26 148.506L330.615 146.5C330.286 146.1 330.56 145.495 331.078 145.479L333.671 145.393C333.876 145.386 334.066 145.278 334.177 145.104L335.575 142.92C335.854 142.485 336.513 142.558 336.689 143.046Z" fill="#F3B502"/>
<path d="M290.965 208.46L291.848 210.899C291.919 211.092 292.079 211.239 292.279 211.292L294.788 211.947C295.29 212.078 295.423 212.727 295.014 213.046L292.967 214.639C292.804 214.765 292.715 214.964 292.727 215.17L292.879 217.759C292.91 218.276 292.333 218.604 291.904 218.313L289.757 216.859C289.586 216.744 289.37 216.719 289.178 216.794L286.762 217.739C286.279 217.927 285.79 217.48 285.934 216.982L286.653 214.49C286.711 214.293 286.667 214.079 286.537 213.92L284.892 211.914C284.563 211.514 284.837 210.909 285.355 210.893L287.948 210.807C288.153 210.8 288.343 210.692 288.454 210.518L289.852 208.334C290.13 207.899 290.789 207.972 290.965 208.46Z" fill="#F3B502"/>
<path d="M328.664 44.0377L329.547 46.4766C329.617 46.6699 329.778 46.8167 329.978 46.8694L332.487 47.5248C332.988 47.6557 333.122 48.3049 332.713 48.6239L330.666 50.2167C330.503 50.3432 330.413 50.5418 330.426 50.7474L330.578 53.3365C330.608 53.854 330.032 54.1817 329.602 53.8909L327.455 52.4368C327.285 52.3217 327.069 52.2971 326.876 52.3718L324.461 53.3163C323.978 53.5052 323.488 53.058 323.633 52.5598L324.352 50.0682C324.409 49.8705 324.365 49.6571 324.235 49.498L322.591 47.4923C322.262 47.0916 322.535 46.4872 323.054 46.4705L325.646 46.3844C325.852 46.3774 326.042 46.2702 326.152 46.0962L327.551 43.9121C327.829 43.4772 328.488 43.5501 328.664 44.0377Z" fill="white"/>
<path d="M215.296 0.498893L216.178 2.93779C216.249 3.13108 216.41 3.2778 216.609 3.33051L219.118 3.98592C219.62 4.11683 219.753 4.76609 219.344 5.08501L217.297 6.67784C217.134 6.80436 217.045 7.00292 217.057 7.2085L217.209 9.79763C217.24 10.3151 216.663 10.6428 216.234 10.352L214.087 8.89798C213.916 8.78289 213.7 8.75829 213.508 8.83385L211.092 9.7783C210.609 9.96719 210.12 9.52 210.264 9.02186L210.983 6.53025C211.041 6.33257 210.997 6.11908 210.867 5.96005L209.222 3.95429C208.893 3.55367 209.167 2.94921 209.685 2.93252L212.278 2.84642C212.483 2.83939 212.673 2.73221 212.784 2.55825L214.182 0.374138C214.46 -0.062509 215.119 0.0112891 215.296 0.498893Z" fill="white"/>
<path d="M254.087 64.2303L254.85 65.4699C254.91 65.5683 255.016 65.6307 255.131 65.6369L256.585 65.7115C256.876 65.7265 257.023 66.0682 256.834 66.2896L255.891 67.3984C255.816 67.4862 255.789 67.6057 255.819 67.7173L256.197 69.123C256.273 69.4041 255.993 69.6501 255.725 69.5386L254.379 68.9833C254.271 68.9394 254.15 68.9508 254.054 69.0141L252.833 69.8083C252.589 69.9673 252.269 69.7775 252.291 69.4867L252.403 68.0353C252.412 67.9203 252.363 67.8078 252.274 67.7349L251.141 66.8194C250.914 66.6367 250.996 66.2729 251.279 66.2053L252.694 65.8626C252.807 65.8354 252.898 65.7546 252.94 65.6465L253.46 64.2865C253.564 64.0168 253.935 63.9816 254.087 64.2303Z" fill="white"/>
<path d="M176.541 12.2924L177.303 13.533C177.364 13.6314 177.469 13.6937 177.584 13.6999L179.038 13.7746C179.329 13.7895 179.477 14.1313 179.288 14.3527L178.344 15.4614C178.27 15.5493 178.242 15.6688 178.272 15.7803L178.651 17.186C178.726 17.4672 178.447 17.7132 178.178 17.6016L176.832 17.0463C176.725 17.0024 176.604 17.0138 176.507 17.0771L175.287 17.8713C175.043 18.0303 174.723 17.8406 174.745 17.5498L174.856 16.0984C174.865 15.9833 174.817 15.8708 174.727 15.7979L173.595 14.8824C173.368 14.6997 173.45 14.336 173.733 14.2674L175.148 13.9248C175.261 13.8976 175.352 13.8167 175.393 13.7087L175.913 12.3486C176.017 12.0789 176.388 12.0447 176.541 12.2924Z" fill="white"/>
<path d="M92.5713 11.6531L93.0326 12.927C93.0695 13.028 93.1529 13.1045 93.2575 13.1317L94.5683 13.4743C94.8301 13.5429 94.9004 13.882 94.686 14.0489L93.6168 14.8809C93.5316 14.9468 93.485 15.0505 93.4912 15.1577L93.5702 16.5107C93.5861 16.7813 93.2847 16.9526 93.0607 16.8006L91.9388 16.0406C91.85 15.98 91.7367 15.9677 91.6365 16.0073L90.374 16.501C90.1219 16.5994 89.8653 16.3657 89.9409 16.1057L90.3169 14.8036C90.3468 14.6999 90.3239 14.5892 90.2554 14.5058L89.3962 13.4577C89.224 13.2477 89.3672 12.9323 89.6378 12.9235L90.9925 12.8787C91.0997 12.8752 91.199 12.8189 91.257 12.7284L91.988 11.5872C92.1347 11.3605 92.4791 11.3983 92.5713 11.6531Z" fill="#F3B502"/>
<path d="M342.155 52.5984L342.617 53.8723C342.654 53.9734 342.737 54.0498 342.842 54.077L344.152 54.4197C344.414 54.4882 344.485 54.8273 344.271 54.9942L343.202 55.8262C343.117 55.8921 343.07 55.9958 343.076 56.103L343.155 57.456C343.171 57.7266 342.87 57.8979 342.646 57.7459L341.524 56.9859C341.435 56.9253 341.322 56.913 341.222 56.9526L339.959 57.4463C339.707 57.5447 339.451 57.3119 339.526 57.051L339.902 55.7489C339.932 55.6453 339.909 55.5346 339.84 55.4511L338.981 54.403C338.809 54.1939 338.952 53.8776 339.223 53.8688L340.578 53.824C340.685 53.8205 340.784 53.7642 340.842 53.6738L341.573 52.5325C341.719 52.3058 342.063 52.3436 342.155 52.5984Z" fill="#F3B502"/>
<path d="M226.355 86.1294L226.816 87.4033C226.853 87.5043 226.937 87.5807 227.041 87.608L228.352 87.9506C228.614 88.0191 228.684 88.3583 228.471 88.5252L227.402 89.3572C227.316 89.4231 227.27 89.5268 227.276 89.634L227.355 90.9869C227.371 91.2575 227.069 91.4289 226.845 91.2769L225.724 90.5169C225.635 90.4563 225.521 90.444 225.421 90.4835L224.16 90.9773C223.908 91.0757 223.652 90.8429 223.727 90.5819L224.103 89.2799C224.132 89.1762 224.11 89.0646 224.041 88.9821L223.182 87.9339C223.01 87.7248 223.153 87.4085 223.423 87.3998L224.778 87.3549C224.885 87.3514 224.985 87.2952 225.043 87.2047L225.774 86.0635C225.919 85.8368 226.264 85.8754 226.355 86.1294Z" fill="#F3B502"/>
<path d="M332.225 130.341L332.686 131.615C332.723 131.716 332.807 131.792 332.911 131.819L334.222 132.162C334.484 132.231 334.554 132.57 334.34 132.737L333.271 133.57C333.185 133.635 333.139 133.739 333.145 133.846L333.224 135.199C333.24 135.47 332.939 135.641 332.715 135.489L331.593 134.729C331.504 134.669 331.391 134.656 331.29 134.696L330.029 135.19C329.777 135.288 329.52 135.055 329.596 134.794L329.972 133.492C330.002 133.389 329.979 133.277 329.91 133.194L329.051 132.146C328.879 131.937 329.022 131.621 329.293 131.612L330.647 131.567C330.754 131.564 330.854 131.508 330.912 131.417L331.643 130.276C331.789 130.047 332.133 130.086 332.225 130.341Z" fill="#F3B502"/>
<path d="M312.247 156.927L312.708 158.201C312.745 158.302 312.829 158.378 312.933 158.406L314.244 158.748C314.506 158.817 314.576 159.156 314.362 159.323L313.293 160.156C313.207 160.221 313.161 160.325 313.167 160.432L313.246 161.785C313.262 162.056 312.961 162.227 312.736 162.075L311.615 161.315C311.526 161.255 311.412 161.242 311.312 161.281L310.05 161.775C309.798 161.873 309.542 161.64 309.617 161.379L309.993 160.077C310.023 159.974 310 159.862 309.931 159.78L309.072 158.731C308.9 158.522 309.043 158.206 309.314 158.197L310.668 158.152C310.776 158.149 310.875 158.093 310.933 158.002L311.664 156.861C311.81 156.633 312.155 156.672 312.247 156.927Z" fill="white"/>
<path d="M99.242 203.723L100.201 224.218L49.603 239.744L97.1572 203.43L99.242 203.723Z" fill="#91A2D4"/>
<path d="M49.7231 239.744L97.2773 203.43L74.0568 201.023L49.7231 239.744Z" fill="white"/>
<path d="M49.7231 239.748L99.3621 203.727L139.337 208.559L49.7231 239.748Z" fill="white"/>
<path d="M103.6 200.033C103.916 199.763 104.227 199.489 104.537 199.211" stroke="#333333" stroke-width="0.878566" stroke-linecap="round" stroke-linejoin="round"/>
<path d="M106.346 197.507C114.79 189.169 120.457 178.038 122.152 166.287C122.475 164.044 122.649 161.696 121.88 159.565C120.146 154.759 113.59 152.785 109.093 155.212C104.597 157.638 102.535 163.431 103.678 168.41C104.821 173.39 108.691 177.452 113.267 179.725C117.842 181.998 123.063 182.664 128.172 182.635C138.494 182.578 149.001 179.663 157.068 173.224C164.485 167.303 169.576 158.207 169.821 148.773" stroke="#333333" stroke-width="0.878566" stroke-linecap="round" stroke-linejoin="round" stroke-dasharray="2.49 2.49"/>
<path d="M169.826 147.533C169.818 147.119 169.8 146.705 169.773 146.289" stroke="#333333" stroke-width="0.878566" stroke-linecap="round" stroke-linejoin="round"/>
<path d="M91.2666 90.0302C108.734 90.0302 122.895 75.8697 122.895 58.4018C122.895 40.9339 108.734 26.7734 91.2666 26.7734C73.7987 26.7734 59.6382 40.9339 59.6382 58.4018C59.6382 75.8697 73.7987 90.0302 91.2666 90.0302Z" fill="#E8644B"/>
<path d="M78.7333 82.1484L73.063 96.7028L96.3125 86.3067L78.7333 82.1484Z" fill="#E8644B"/>
<path d="M104.157 50.733C100.351 44.279 91.5921 49.8746 91.5544 49.908C91.5157 49.8746 82.7573 44.2781 78.9505 50.733C73.723 59.5968 91.4744 70.2556 91.5526 70.3021V70.3039L91.5544 70.303L91.5561 70.3039V70.3021C91.6334 70.2556 109.384 59.5968 104.157 50.733Z" fill="white"/>
</svg>
