<svg width="247" height="389" viewBox="0 0 247 389" fill="none" xmlns="http://www.w3.org/2000/svg">
<path d="M165.108 388.279H24.0505C14.1988 388.279 6.1377 380.218 6.1377 370.367V32.6238C6.1377 22.772 14.1988 14.7109 24.0505 14.7109H165.108C174.961 14.7109 183.021 22.772 183.021 32.6238V370.367C183.021 380.218 174.959 388.279 165.108 388.279Z" fill="#B1BEE7"/>
<path d="M182.723 123.088H171.047C168.345 123.088 166.132 120.877 166.132 118.173V82.5867C166.132 79.8842 168.343 77.6719 171.047 77.6719H182.723C185.425 77.6719 187.638 79.8829 187.638 82.5867V118.173C187.638 120.877 185.426 123.088 182.723 123.088Z" fill="#B1BEE7"/>
<path d="M183.946 161.81H169.824C167.794 161.81 166.132 160.149 166.132 158.118V139.879C166.132 137.848 167.793 136.188 169.824 136.188H183.946C185.976 136.188 187.638 137.848 187.638 139.879V158.118C187.638 160.149 185.977 161.81 183.946 161.81Z" fill="#B1BEE7"/>
<path opacity="0.6" d="M158.972 388.279H17.9148C8.06304 388.279 0.00195312 380.218 0.00195312 370.367V32.6238C0.00195312 22.772 8.06304 14.7109 17.9148 14.7109H158.972C168.824 14.7109 176.885 22.772 176.885 32.6238V370.367C176.885 380.218 168.824 388.279 158.972 388.279Z" fill="#0671E0"/>
<path d="M96.4154 371.175C96.4154 375.577 92.8463 379.146 88.4438 379.146C84.0412 379.146 80.4722 375.577 80.4722 371.175C80.4722 366.772 84.0412 363.203 88.4438 363.203C92.8463 363.203 96.4154 366.772 96.4154 371.175Z" fill="#0671E0"/>
<path d="M176.885 35.2969H0.000976562V356.327H176.885V35.2969Z" fill="#E6E6E6"/>
<path d="M176.885 35.2969H0.000976562V356.327H176.885V35.2969Z" fill="#E6E6E6"/>
<path d="M149.489 148.996H27.3965C20.6996 148.996 15.2197 143.516 15.2197 136.819V63.9346C15.2197 57.2377 20.6996 51.7578 27.3965 51.7578H149.489C156.186 51.7578 161.666 57.2377 161.666 63.9346V136.819C161.666 143.516 156.187 148.996 149.489 148.996Z" fill="white"/>
<path d="M43.9325 89.1742C52.1955 85.7189 56.0928 76.2195 52.6376 67.9565C49.1823 59.6936 39.6828 55.7962 31.4199 59.2515C23.1569 62.7068 19.2596 72.2062 22.7148 80.4692C26.1701 88.7321 35.6696 92.6295 43.9325 89.1742Z" fill="#E6E6E6"/>
<path d="M51.0557 74.2122C51.0557 76.5238 50.4699 78.6931 49.4379 80.5868C47.1802 84.7589 42.7593 87.595 37.6717 87.595C32.584 87.595 28.1631 84.7576 25.9055 80.5868C24.8747 78.6931 24.2876 76.5225 24.2876 74.2122C24.2876 66.8191 30.2786 60.8281 37.6717 60.8281C45.0648 60.8281 51.0557 66.8191 51.0557 74.2122Z" fill="white"/>
<path d="M49.4372 80.581C47.1796 84.7531 42.7587 87.5893 37.671 87.5893C32.5833 87.5893 28.1624 84.7519 25.9048 80.581C29.2741 78.3295 33.3175 77.0156 37.671 77.0156C42.0245 77.0169 46.0679 78.3307 49.4372 80.581Z" fill="#B1BEE7"/>
<path d="M37.6715 75.595C40.964 75.595 43.6331 72.9259 43.6331 69.6334C43.6331 66.3409 40.964 63.6719 37.6715 63.6719C34.3791 63.6719 31.71 66.3409 31.71 69.6334C31.71 72.9259 34.3791 75.595 37.6715 75.595Z" fill="#B1BEE7"/>
<path d="M152.682 192.022H24.2037C19.2619 192.022 15.2197 187.978 15.2197 183.038V166.968C15.2197 162.027 19.2631 157.984 24.2037 157.984H152.682C157.623 157.984 161.666 162.027 161.666 166.968V183.038C161.666 187.98 157.624 192.022 152.682 192.022Z" fill="white"/>
<path d="M68.1475 24.1862C68.1475 22.6284 69.4099 21.3672 70.9677 21.3672C72.5255 21.3672 73.7879 22.6296 73.7879 24.1862C73.7879 25.744 72.5255 27.0064 70.9677 27.0064C69.4099 27.0064 68.1475 25.7427 68.1475 24.1862Z" fill="#0671E0"/>
<path d="M80.7084 21.3672H104.133C105.683 21.3672 106.953 22.6357 106.953 24.1862C106.953 25.7366 105.685 27.0064 104.133 27.0064H80.7084C79.158 27.0064 77.8882 25.7378 77.8882 24.1862C77.8882 22.6357 79.158 21.3672 80.7084 21.3672Z" fill="#0671E0"/>
<path d="M182.894 195.31L200.207 243.041C201.145 245.626 199.797 248.509 197.212 249.446L106.346 282.406C103.761 283.344 100.878 281.996 99.9409 279.411L82.6274 231.679C82.1371 230.329 82.2719 228.892 82.8799 227.696C83.4388 226.611 84.3886 225.722 85.6229 225.274L176.489 192.314C177.723 191.867 179.021 191.94 180.146 192.415C181.38 192.943 182.405 193.959 182.894 195.31Z" fill="#0671E0"/>
<path d="M180.147 192.414L154.181 235.156C149.222 243.318 139.251 246.935 130.211 243.85L82.8818 227.695C83.4407 226.61 84.3906 225.721 85.6248 225.273L176.491 192.313C177.722 191.867 179.022 191.941 180.147 192.414Z" fill="#C2CDEF"/>
<path opacity="0.6" d="M154.395 277.337L153.563 320.337C153.518 322.665 151.576 324.533 149.248 324.489L67.3915 322.906C65.0628 322.86 63.1949 320.919 63.239 318.59L64.07 275.591C64.0933 274.374 64.6375 273.279 65.4807 272.519C66.2529 271.832 67.2739 271.417 68.3855 271.438L150.242 273.022C151.353 273.043 152.357 273.497 153.102 274.213C153.917 275.006 154.419 276.12 154.395 277.337Z" fill="#0671E0"/>
<path d="M153.104 274.214L119.577 300.105C113.174 305.049 104.191 304.876 97.9831 299.687L65.4814 272.519C66.2536 271.832 67.2746 271.417 68.3862 271.438L150.242 273.022C151.355 273.044 152.359 273.497 153.104 274.214Z" fill="#C2CDEF"/>
<mask id="mask0_2892_25747" style="mask-type:luminance" maskUnits="userSpaceOnUse" x="0" y="35" width="177" height="322">
<path d="M176.884 35.2969H0V356.327H176.884V35.2969Z" fill="white"/>
</mask>
<g mask="url(#mask0_2892_25747)">
<path d="M102.902 109.08C102.902 101.726 100.45 72.7875 112.502 70.3362C116.315 66.3186 135.2 65.9068 138.105 76.1238C141.918 89.5372 136.266 122.29 136.266 122.29L102.902 109.08Z" fill="#162146"/>
<path d="M138.771 122.358C138.759 122.358 138.745 122.357 138.734 122.356C138.566 122.335 138.448 122.182 138.467 122.015C138.508 121.686 142.447 88.9433 138.053 75.9502C136.854 72.4007 133.416 69.9053 128.374 68.9248C121.797 67.644 114.686 69.2422 112.721 71.5256C112.611 71.6543 112.417 71.669 112.289 71.5575C112.161 71.4472 112.146 71.2535 112.257 71.1248C114.554 68.4517 122.287 67.1157 128.49 68.3218C133.758 69.3464 137.36 71.9852 138.634 75.7529C143.071 88.8783 139.116 121.759 139.074 122.088C139.055 122.245 138.924 122.358 138.771 122.358Z" fill="#162146"/>
<path d="M127.96 129.2L128.258 129.855L128.634 130.625C128.884 131.144 129.163 131.676 129.442 132.198C130.018 133.245 130.617 134.292 131.284 135.303C132.572 137.351 133.992 139.332 135.54 141.208C137.121 143.055 138.776 144.842 140.555 146.508C141.469 147.307 142.361 148.143 143.316 148.9L144.752 150.034L145.092 150.302C145.092 150.302 145.118 150.335 145.087 150.317C145.045 150.31 144.898 150.242 144.607 150.218C144.306 150.177 143.89 150.229 143.57 150.37C143.261 150.489 143.099 150.633 143.046 150.708C142.968 150.823 143.181 150.637 143.366 150.317C143.768 149.658 144.176 148.593 144.504 147.497C145.189 145.266 145.657 142.76 146.085 140.247C146.511 137.722 146.846 135.145 147.12 132.552C147.444 129.968 147.671 127.332 147.921 124.757L152.644 124.688C152.941 127.415 153.067 130.083 153.18 132.798C153.239 135.504 153.234 138.221 153.124 140.971C152.994 143.729 152.748 146.493 152.163 149.412C151.837 150.882 151.47 152.372 150.672 154.081C150.248 154.935 149.735 155.883 148.687 156.906C148.135 157.42 147.417 157.936 146.489 158.298C145.542 158.66 144.452 158.774 143.494 158.658C142.546 158.537 141.767 158.243 141.138 157.931C140.808 157.771 140.563 157.611 140.279 157.439L139.812 157.127L138.032 155.921C136.847 155.113 135.728 154.212 134.608 153.316C132.409 151.473 130.327 149.486 128.419 147.337C126.532 145.174 124.763 142.904 123.188 140.49C122.4 139.284 121.68 138.027 120.982 136.749C120.64 136.101 120.298 135.46 119.983 134.781L119.519 133.749C119.358 133.38 119.233 133.081 119.04 132.573L127.96 129.2Z" fill="#F3B1A5"/>
<path d="M132.107 135.531L123.867 146.891L127.272 150.239L136.042 139.696L132.107 135.531Z" fill="#C2CDEF"/>
<path d="M119.19 120.541C128.467 123.037 134.861 136.005 134.861 136.005L124.146 151.025C124.146 151.025 111.272 134.831 111.585 129.682C111.909 124.319 113.6 119.037 119.19 120.541Z" fill="#C2CDEF"/>
<path d="M148.06 125.944L145.61 116.188L154.969 118.916C154.969 118.916 154.702 125.502 151.476 127.655L148.06 125.944Z" fill="#F3B1A5"/>
<path d="M148.558 108.266L155.129 111.587L154.969 118.915L145.61 116.186L148.558 108.266Z" fill="#F3B1A5"/>
<path d="M31.0799 111.878L22.5151 106.602L31.1216 102.023C31.1216 102.023 35.5278 106.926 34.7201 110.719L31.0799 111.878Z" fill="#F3B1A5"/>
<path d="M19.0967 98.8714L26.1196 96.6641L31.1215 102.023L22.515 106.602L19.0967 98.8714Z" fill="#F3B1A5"/>
<path d="M26.665 348.596L35.676 349.476L45.0522 328.03L36.0412 327.148L26.665 348.596Z" fill="#F3B1A5"/>
<path d="M36.8721 346.688H25.8058C25.4025 346.688 25.0397 346.967 24.9319 347.36L22.5259 356.115C22.2759 357.023 22.9451 357.883 23.8766 357.867C27.7435 357.8 29.6322 357.574 34.4993 357.574C37.4935 357.574 45.2323 357.885 49.3664 357.885C53.4098 357.885 54.2555 353.796 52.5825 353.426C45.0803 351.765 40.755 349.476 38.441 347.292C38.0218 346.9 37.4617 346.688 36.8721 346.688Z" fill="#243775"/>
<path d="M45.0481 328.03L40.2166 339.085H30.8159L36.0323 327.148L45.0481 328.03Z" fill="#EE8A77"/>
<path d="M127.234 125.339C127.234 125.339 130.279 128.934 94.9522 171.682C81.9763 164.089 68.5665 156.242 62.252 152.548C70.5876 139.561 75.4056 131.363 85.0257 100.328C85.0257 100.328 92.7497 102.847 99.9822 106.623C109.773 111.736 114.286 114.923 114.831 115.312C120.868 119.627 127.234 125.339 127.234 125.339Z" fill="#C2CDEF"/>
<path d="M111.237 90.7656C109.378 96.0911 105.191 105.392 99.9833 106.624C99.9833 106.624 98.4537 112.235 107.331 117.43C117.092 123.141 114.832 115.313 114.832 115.313C110.249 110.923 112.699 107.051 115.799 103.881L111.237 90.7656Z" fill="#F3B1A5"/>
<path d="M122.945 121.647C120.644 119.725 117.696 117.36 114.83 115.307C110.25 112.03 105.633 109.572 99.9793 106.617C97.0868 105.101 94.1219 103.786 91.5971 102.773C91.1914 103.45 91.5199 105.512 92.7639 108.53C97.4704 114.597 108.397 123.527 117.517 125.301C121.759 124.693 123.089 123.35 122.945 121.647Z" fill="#F3B1A5"/>
<path d="M92.7646 108.531C94.4695 112.668 97.9026 118.613 103.615 125.35C110.076 125.798 114.519 125.732 117.518 125.302C108.398 123.529 97.4699 114.599 92.7646 108.531Z" fill="#C2CDEF"/>
<path d="M113.095 96.1172L115.796 103.877C115.06 104.624 114.365 105.415 113.796 106.245C111.933 104.759 109.933 101.141 110.964 98.8847C111.478 97.7583 112.632 96.5106 113.095 96.1172Z" fill="#EE8A77"/>
<path d="M111.333 80.173C108.798 89.0774 107.534 92.7923 110.361 98.8163C114.611 107.878 126.103 109.044 131.248 101.076C135.879 93.9052 139.247 80.5481 131.937 74.0742C124.734 67.696 113.867 71.2687 111.333 80.173Z" fill="#F3B1A5"/>
<path d="M108.724 85.763C115.056 88.1236 129.951 80.2648 134.003 75.4468C134.548 68.0243 117.134 70.9523 117.134 70.9523C117.134 70.9523 107.84 68.1272 108.724 85.763Z" fill="#162146"/>
<path d="M107.208 87.5592C106.752 89.4234 107.199 91.3244 108.038 92.6604C109.302 94.6692 111.52 93.9228 112.5 91.8992C113.381 90.0779 113.785 86.8373 111.878 85.5271C109.999 84.2353 107.731 85.4278 107.208 87.5592Z" fill="#F3B1A5"/>
<path d="M94.508 171.794C94.508 171.794 95.0436 255.779 80.1495 280.024C64.6574 305.241 44.4575 335.982 44.4575 335.982L26.9736 335.136C26.9736 335.136 47.3672 289.639 55.0593 268.525C65.6648 239.417 70.5625 157.781 70.5625 157.781L94.508 171.794Z" fill="#F3B502"/>
<path d="M76.3462 174.008C74.0322 175.714 71.5184 178.849 69.1284 182.406C68.5854 188.648 67.9211 195.68 67.1343 203.034C72.4658 195.81 76.687 183.097 76.3462 174.008Z" fill="#CA9702"/>
<path d="M85.8733 166.736C85.8733 166.736 48.8649 219.264 25.7933 247.572C7.1586 270.436 -46.7735 286.764 -46.7735 286.764L-53.3516 275.727C-53.3516 275.727 -10.4466 251.784 2.34916 236.315C43.3017 186.802 42.7943 161.121 61.8089 152.656L85.8733 166.736Z" fill="#F3B502"/>
<path d="M62.8857 150.344L59.699 152.408C59.4514 152.569 59.585 152.957 59.9637 153.178L94.2573 173.244C94.5527 173.417 94.8811 173.415 95.0074 173.241L97.015 170.487C97.1535 170.295 96.9991 169.974 96.6767 169.786L63.5634 150.409C63.3183 150.267 63.045 150.24 62.8857 150.344Z" fill="#243775"/>
<path d="M65.1657 156.651L64.2783 156.132C64.1018 156.029 64.0209 155.859 64.0981 155.755L66.7394 152.195C66.8166 152.091 67.0237 152.091 67.2014 152.194L68.0888 152.713C68.2653 152.816 68.3462 152.986 68.269 153.09L65.6277 156.649C65.5505 156.752 65.3421 156.754 65.1657 156.651Z" fill="#0671E0"/>
<path d="M91.5777 172.104L90.6904 171.585C90.5139 171.482 90.433 171.312 90.5102 171.208L93.1515 167.649C93.2287 167.544 93.4371 167.544 93.6136 167.647L94.4997 168.166C94.6762 168.269 94.7571 168.439 94.6799 168.543L92.0386 172.103C91.9626 172.207 91.7542 172.207 91.5777 172.104Z" fill="#0671E0"/>
<path d="M78.3722 164.378L77.4848 163.859C77.3083 163.756 77.2274 163.586 77.3047 163.482L79.9459 159.923C80.0231 159.818 80.2315 159.817 80.408 159.921L81.2954 160.44C81.4719 160.543 81.5527 160.713 81.4755 160.817L78.8343 164.377C78.7558 164.481 78.5487 164.482 78.3722 164.378Z" fill="#0671E0"/>
<path d="M123.694 87.2655C123.444 87.9751 123.617 88.6835 124.081 88.8465C124.545 89.0096 125.124 88.5671 125.374 87.8575C125.625 87.1478 125.452 86.4406 124.987 86.2764C124.523 86.1121 123.944 86.5558 123.694 87.2655Z" fill="#162146"/>
<path d="M131.716 90.0936C131.466 90.8032 131.639 91.5104 132.103 91.6747C132.567 91.8377 133.146 91.3952 133.396 90.6856C133.646 89.9759 133.472 89.2687 133.009 89.1045C132.545 88.9402 131.966 89.3839 131.716 90.0936Z" fill="#162146"/>
<path d="M132.79 89.0703L134.668 89.1794C134.668 89.1794 133.324 90.2028 132.79 89.0703Z" fill="#162146"/>
<path d="M129.166 90.5625C129.166 90.5625 129.294 94.0421 130.1 95.9835C128.855 96.5277 127.402 95.5668 127.402 95.5668L129.166 90.5625Z" fill="#F3B1A5"/>
<path d="M123.994 97.495C123.97 97.495 123.945 97.4913 123.921 97.4827C120.58 96.3073 119.858 93.4785 119.828 93.3584C119.8 93.2395 119.871 93.1206 119.99 93.0924C120.115 93.063 120.229 93.1366 120.257 93.2542C120.265 93.2812 120.961 95.9727 124.067 97.0672C124.182 97.1077 124.242 97.2339 124.202 97.3491C124.171 97.4373 124.085 97.495 123.994 97.495Z" fill="#162146"/>
<path d="M123.339 84.4585C123.182 84.4585 123.03 84.3752 122.951 84.2269C122.834 84.0124 122.915 83.744 123.13 83.6276C125.279 82.4681 127.085 83.4204 127.16 83.4621C127.375 83.5785 127.454 83.847 127.337 84.0614C127.22 84.2759 126.95 84.3531 126.74 84.2391C126.669 84.2024 125.262 83.4817 123.55 84.4046C123.483 84.4426 123.412 84.4585 123.339 84.4585Z" fill="#162146"/>
<path d="M136.806 87.7001C136.609 87.7001 136.428 87.5665 136.377 87.3667C135.893 85.4559 134.358 84.9129 134.342 84.908C134.112 84.8296 133.988 84.5783 134.067 84.3467C134.144 84.1163 134.396 83.9913 134.627 84.0709C134.708 84.0991 136.632 84.7793 137.234 87.1485C137.294 87.3851 137.15 87.6253 136.914 87.6854C136.878 87.6964 136.843 87.7001 136.806 87.7001Z" fill="#162146"/>
<path d="M82.325 114.386C80.0049 116.245 77.795 117.736 75.4528 119.274C73.1376 120.795 70.7365 122.178 68.2889 123.49C63.4182 126.149 58.2546 128.371 52.836 130.034C52.1692 130.261 51.4645 130.414 50.7806 130.604C50.0648 130.783 49.463 130.97 48.6541 131.139C46.9958 131.513 45.1549 131.649 43.2907 131.418C41.4264 131.192 39.5414 130.54 37.948 129.549C36.3498 128.556 35.0641 127.274 34.0444 125.941C32.0049 123.249 30.9753 120.343 30.2191 117.529C29.8404 116.115 29.6026 114.692 29.4298 113.276C29.2533 111.839 29.1442 110.489 29.1528 108.955L33.8605 108.557C34.4121 110.876 35.2038 113.361 36.1525 115.549C37.0864 117.76 38.3268 119.775 39.713 121.172C41.1323 122.583 42.5271 123.187 44.0579 123.196C44.8399 123.185 45.6843 123.089 46.6011 122.796C47.6723 122.454 48.9249 122.064 50.066 121.642C54.7259 119.911 59.2939 117.73 63.7075 115.206C65.9271 113.969 68.0671 112.577 70.2169 111.213C72.3287 109.849 74.503 108.322 76.3868 106.922L82.325 114.386Z" fill="#F3B1A5"/>
<path d="M67.1641 111.172L71.4036 123.989L75.3869 121.607L71.6585 108.891L67.1641 111.172Z" fill="#C2CDEF"/>
<path d="M85.0271 100.331C81.1687 99.4109 69.291 108.46 69.291 108.46L74.3296 124.529C74.3296 124.529 86.7945 117.633 87.8951 112.593C89.0423 107.345 89.4308 101.382 85.0271 100.331Z" fill="#C2CDEF"/>
<path d="M41.7802 348.513C40.7127 348.513 39.5557 348.307 38.7529 348.128C38.661 348.107 38.5911 348.031 38.5813 347.937C38.5715 347.843 38.6217 347.753 38.7075 347.712C39.4527 347.362 43.2228 345.648 44.2242 346.331C44.3614 346.423 44.5208 346.603 44.5024 346.933C44.4767 347.375 44.2879 347.732 43.9398 347.995C43.4312 348.379 42.6345 348.513 41.7802 348.513ZM39.5165 347.83C40.7237 348.049 42.8024 348.299 43.6739 347.642C43.9165 347.46 44.0428 347.218 44.0599 346.906C44.0673 346.777 44.0219 346.726 43.9766 346.695C43.4324 346.33 41.1686 347.113 39.5165 347.83Z" fill="#3653B0"/>
<path d="M38.8013 348.133C38.7498 348.133 38.6984 348.115 38.6579 348.081C38.5954 348.027 38.5672 347.943 38.5856 347.863C38.6248 347.691 39.5514 343.683 41.7551 343.959C42.3238 344.028 42.4807 344.313 42.5114 344.542C42.6523 345.587 40.1336 347.605 38.8847 348.116C38.8577 348.127 38.8295 348.133 38.8013 348.133ZM41.5529 344.39C40.228 344.39 39.4325 346.538 39.1421 347.502C40.4155 346.804 42.1559 345.209 42.0738 344.604C42.0591 344.496 41.9341 344.426 41.7024 344.399C41.6522 344.392 41.6019 344.39 41.5529 344.39Z" fill="#3653B0"/>
<path d="M124.768 86.2422L126.646 86.3513C126.646 86.3513 125.302 87.3747 124.768 86.2422Z" fill="#162146"/>
</g>
<path d="M232.209 0H141.266C133.177 0 126.558 6.61849 126.558 14.7078V42.867C126.558 50.9563 133.177 57.5748 141.266 57.5748H148.892V72.041L163.357 57.5748H232.209C240.298 57.5748 246.917 50.9563 246.917 42.867V14.7078C246.917 6.61849 240.298 0 232.209 0Z" fill="#F3B502"/>
<path d="M230.084 18.4569H143.392C141.529 18.4569 140.019 16.9469 140.019 15.0839C140.019 13.2209 141.529 11.7109 143.392 11.7109H230.084C231.947 11.7109 233.457 13.2209 233.457 15.0839C233.457 16.9469 231.947 18.4569 230.084 18.4569Z" fill="white"/>
<path d="M230.084 31.8475H174.504C172.641 31.8475 171.131 30.3375 171.131 28.4745C171.131 26.6116 172.641 25.1016 174.504 25.1016H230.084C231.947 25.1016 233.457 26.6116 233.457 28.4745C233.457 30.3375 231.947 31.8475 230.084 31.8475Z" fill="white"/>
<path d="M158.016 31.8475H143.392C141.529 31.8475 140.019 30.3375 140.019 28.4745C140.019 26.6116 141.529 25.1016 143.392 25.1016H158.016C159.879 25.1016 161.389 26.6116 161.389 28.4745C161.389 30.3375 159.879 31.8475 158.016 31.8475Z" fill="white"/>
<path d="M208.431 45.2303H143.392C141.529 45.2303 140.019 43.7203 140.019 41.8574C140.019 39.9944 141.529 38.4844 143.392 38.4844H208.431C210.294 38.4844 211.804 39.9944 211.804 41.8574C211.804 43.7203 210.294 45.2303 208.431 45.2303Z" fill="white"/>
</svg>
