<svg width="337" height="274" viewBox="0 0 337 274" fill="none" xmlns="http://www.w3.org/2000/svg">
<path d="M168.5 273.743C261.56 273.743 337 269.337 337 263.903C337 258.468 261.56 254.062 168.5 254.062C75.44 254.062 0 258.468 0 263.903C0 269.337 75.44 273.743 168.5 273.743Z" fill="white"/>
<path d="M298.797 199.289C298.98 200.567 295.516 201.408 292.689 201.879C292.92 204.199 294.463 206.543 296.595 208.732C299.276 207.222 303.104 205.225 303.81 205.713C304.58 206.245 300.66 208.779 298.209 210.27C299.933 211.8 301.874 213.226 303.761 214.476C304.963 213.353 306.37 212.368 307.209 212.9C308.079 213.454 307.843 215.191 307.414 216.742C310.331 218.442 312.515 219.477 312.515 219.477C312.515 219.477 313.74 215.765 314.464 211.195C314.317 210.904 314.171 210.611 314.036 210.3C313.566 209.213 314.024 208.751 314.8 208.598C315.001 206.597 315.058 204.54 314.848 202.631C311.546 201.938 307.532 200.657 309.035 198.677C309.943 197.483 311.603 197.347 313.33 197.647C313.089 197.249 312.822 196.873 312.515 196.536C306.507 189.916 302.315 196.536 302.315 196.536C298.823 193.627 293.918 194.414 292.858 198.961C294.819 198.459 298.572 197.712 298.797 199.289Z" fill="#026C52"/>
<path opacity="0.3" d="M298.797 199.289C298.98 200.567 295.516 201.408 292.689 201.879C292.92 204.199 294.463 206.543 296.595 208.732C299.276 207.222 303.104 205.225 303.81 205.713C304.58 206.245 300.66 208.779 298.209 210.27C299.933 211.8 301.874 213.226 303.761 214.476C304.963 213.353 306.37 212.368 307.209 212.9C308.079 213.454 307.843 215.191 307.414 216.742C310.331 218.442 312.515 219.477 312.515 219.477C312.515 219.477 313.74 215.765 314.464 211.195C314.317 210.904 314.171 210.611 314.036 210.3C313.566 209.213 314.024 208.751 314.8 208.598C315.001 206.597 315.058 204.54 314.848 202.631C311.546 201.938 307.532 200.657 309.035 198.677C309.943 197.483 311.603 197.347 313.33 197.647C313.089 197.249 312.822 196.873 312.515 196.536C306.507 189.916 302.315 196.536 302.315 196.536C298.823 193.627 293.918 194.414 292.858 198.961C294.819 198.459 298.572 197.712 298.797 199.289Z" fill="white"/>
<path d="M306.295 247.942L305.428 247.871C305.466 247.423 308.986 203.093 299.037 198.913C297.969 198.464 296.982 198.489 296.022 198.989C292.427 200.858 290.704 208.62 290.687 208.699L289.837 208.514C289.91 208.178 291.664 200.276 295.619 198.218C296.807 197.6 298.07 197.565 299.374 198.112C309.899 202.533 306.447 246.09 306.295 247.942Z" fill="#026C52"/>
<path d="M307.549 246.982C307.373 244.988 303.313 198.082 310.906 193.103C312.726 191.91 314.349 191.655 315.728 192.353C319.316 194.163 319.787 201.835 319.806 202.16L318.938 202.209C318.934 202.134 318.478 194.713 315.336 193.128C314.255 192.585 312.924 192.819 311.382 193.831C304.219 198.528 308.372 246.423 308.415 246.906L307.549 246.982Z" fill="#026C52"/>
<path d="M308.69 250.775C308.632 249.248 307.383 213.344 314.297 210.201C315.664 209.579 317.047 209.569 318.409 210.168C323.154 212.255 326.085 221.098 326.207 221.473L325.381 221.744C325.352 221.655 322.449 212.894 318.059 210.964C316.918 210.463 315.804 210.471 314.657 210.992C309.354 213.402 309.178 240.504 309.558 250.743L308.69 250.775Z" fill="#026C52"/>
<path d="M306.93 249.13L306.067 249.032C307.285 238.346 309.614 209.871 305.808 206.474C305.241 205.967 304.733 205.81 304.251 205.993C301.7 206.971 300.147 216.233 299.764 219.72L298.9 219.625C299.047 218.288 300.437 206.526 303.939 205.182C304.74 204.875 305.563 205.091 306.386 205.826C311.306 210.216 307.111 247.543 306.93 249.13Z" fill="#026C52"/>
<path d="M292.428 228.875H323.65L321.043 263.848H295.035L292.428 228.875Z" fill="#162146"/>
<path d="M296.681 216.04C296.356 216.891 293.93 216.222 292.026 215.543C291.374 217.053 291.521 219.027 292.085 221.108C294.257 221.096 297.302 221.177 297.57 221.719C297.862 222.312 294.576 222.531 292.554 222.61C293.092 224.145 293.801 225.69 294.536 227.107C295.662 226.827 296.869 226.702 297.202 227.318C297.549 227.957 296.808 228.948 296.012 229.757C297.227 231.806 298.22 233.193 298.22 233.193C298.22 233.193 300.247 231.323 302.261 228.753C302.27 228.524 302.28 228.293 302.304 228.056C302.386 227.224 302.828 227.095 303.359 227.267C304.169 226.103 304.909 224.854 305.434 223.604C303.636 222.045 301.599 219.879 303.205 219.173C304.174 218.747 305.244 219.233 306.207 220.01C306.194 219.681 306.158 219.358 306.085 219.045C304.649 212.902 299.794 215.548 299.794 215.548C298.638 212.556 295.343 211.36 293.13 213.801C294.512 214.164 297.082 214.989 296.681 216.04Z" fill="#026C52"/>
<path opacity="0.3" d="M296.681 216.04C296.356 216.891 293.93 216.222 292.026 215.543C291.374 217.053 291.521 219.027 292.085 221.108C294.257 221.096 297.302 221.177 297.57 221.719C297.862 222.312 294.576 222.531 292.554 222.61C293.092 224.145 293.801 225.69 294.536 227.107C295.662 226.827 296.869 226.702 297.202 227.318C297.549 227.957 296.808 228.948 296.012 229.757C297.227 231.806 298.22 233.193 298.22 233.193C298.22 233.193 300.247 231.323 302.261 228.753C302.27 228.524 302.28 228.293 302.304 228.056C302.386 227.224 302.828 227.095 303.359 227.267C304.169 226.103 304.909 224.854 305.434 223.604C303.636 222.045 301.599 219.879 303.205 219.173C304.174 218.747 305.244 219.233 306.207 220.01C306.194 219.681 306.158 219.358 306.085 219.045C304.649 212.902 299.794 215.548 299.794 215.548C298.638 212.556 295.343 211.36 293.13 213.801C294.512 214.164 297.082 214.989 296.681 216.04Z" fill="white"/>
<path d="M319.865 220.193C318.88 220.266 317.935 220.492 317.011 220.794C316.771 220.134 316.613 219.447 316.591 218.728C316.393 212.431 320.9 215.086 323.282 213.235C324.47 212.313 325.925 211.72 327.268 211.986C327.066 212.333 326.883 212.691 326.729 213.063C326.48 213.667 326.873 214.295 327.491 214.41C328.073 214.519 328.725 214.469 329.26 214.201C329.427 214.118 329.567 213.996 329.714 213.886C330.047 214.448 330.342 215.137 330.579 215.992C330.822 216.867 330.947 217.775 330.987 218.685C330.632 218.764 330.28 218.859 329.933 218.983C329.391 219.175 329.103 220.04 329.539 220.479C329.922 220.864 330.361 221.17 330.838 221.391C330.682 222.427 330.393 223.411 330.045 224.342C329.939 224.358 329.831 224.371 329.725 224.392C329.495 224.436 329.269 224.496 329.045 224.559C328.917 224.596 328.789 224.639 328.668 224.697C328.356 224.845 328.128 225.112 328.08 225.461C328.031 225.805 328.174 226.16 328.451 226.37C328.598 226.482 328.759 226.57 328.919 226.659C328.201 227.795 327.352 228.695 326.425 229.176C326.425 229.176 325.276 228.674 323.773 227.774C323.96 227.522 324.149 227.27 324.324 227.009C324.53 226.702 324.622 226.387 324.59 226.02C324.561 225.665 324.345 225.354 324.08 225.132C323.825 224.917 323.416 224.823 323.091 224.864C322.773 224.905 322.386 225.101 322.203 225.374C321.995 225.685 321.764 225.979 321.537 226.276C320.386 225.409 319.241 224.362 318.338 223.171C318.373 223.161 318.411 223.151 318.434 223.144C319.015 222.991 319.61 222.893 320.209 222.849C320.957 222.793 321.423 222.04 321.364 221.35C321.301 220.6 320.562 220.141 319.865 220.193Z" fill="#026C52"/>
<path opacity="0.5" d="M319.865 220.193C318.88 220.266 317.935 220.492 317.011 220.794C316.771 220.134 316.613 219.447 316.591 218.728C316.393 212.431 320.9 215.086 323.282 213.235C324.47 212.313 325.925 211.72 327.268 211.986C327.066 212.333 326.883 212.691 326.729 213.063C326.48 213.667 326.873 214.295 327.491 214.41C328.073 214.519 328.725 214.469 329.26 214.201C329.427 214.118 329.567 213.996 329.714 213.886C330.047 214.448 330.342 215.137 330.579 215.992C330.822 216.867 330.947 217.775 330.987 218.685C330.632 218.764 330.28 218.859 329.933 218.983C329.391 219.175 329.103 220.04 329.539 220.479C329.922 220.864 330.361 221.17 330.838 221.391C330.682 222.427 330.393 223.411 330.045 224.342C329.939 224.358 329.831 224.371 329.725 224.392C329.495 224.436 329.269 224.496 329.045 224.559C328.917 224.596 328.789 224.639 328.668 224.697C328.356 224.845 328.128 225.112 328.08 225.461C328.031 225.805 328.174 226.16 328.451 226.37C328.598 226.482 328.759 226.57 328.919 226.659C328.201 227.795 327.352 228.695 326.425 229.176C326.425 229.176 325.276 228.674 323.773 227.774C323.96 227.522 324.149 227.27 324.324 227.009C324.53 226.702 324.622 226.387 324.59 226.02C324.561 225.665 324.345 225.354 324.08 225.132C323.825 224.917 323.416 224.823 323.091 224.864C322.773 224.905 322.386 225.101 322.203 225.374C321.995 225.685 321.764 225.979 321.537 226.276C320.386 225.409 319.241 224.362 318.338 223.171C318.373 223.161 318.411 223.151 318.434 223.144C319.015 222.991 319.61 222.893 320.209 222.849C320.957 222.793 321.423 222.04 321.364 221.35C321.301 220.6 320.562 220.141 319.865 220.193Z" fill="white"/>
<path d="M321.666 198.484C322.215 198.09 322.81 197.794 323.428 197.547C323.265 197.095 323.046 196.665 322.743 196.277C320.083 192.883 318.881 196.255 316.817 196.329C315.789 196.365 314.764 196.692 314.176 197.421C314.434 197.515 314.687 197.623 314.932 197.751C315.327 197.959 315.397 198.461 315.122 198.793C314.865 199.105 314.5 199.366 314.101 199.459C313.977 199.488 313.85 199.486 313.724 199.493C313.796 199.934 313.943 200.425 314.194 200.979C314.45 201.545 314.783 202.076 315.162 202.572C315.383 202.458 315.609 202.354 315.846 202.266C316.215 202.129 316.747 202.457 316.71 202.879C316.678 203.25 316.581 203.603 316.427 203.928C316.964 204.405 317.547 204.795 318.139 205.131C318.203 205.093 318.264 205.052 318.33 205.016C318.47 204.939 318.615 204.871 318.761 204.806C318.844 204.769 318.93 204.736 319.02 204.713C319.248 204.654 319.485 204.694 319.664 204.856C319.84 205.015 319.921 205.264 319.868 205.496C319.84 205.62 319.794 205.736 319.748 205.853C320.624 206.135 321.464 206.236 322.163 206.081C322.163 206.081 322.546 205.314 322.942 204.18C322.732 204.131 322.523 204.08 322.317 204.021C322.074 203.95 321.888 203.825 321.742 203.618C321.602 203.418 321.579 203.161 321.621 202.927C321.661 202.702 321.834 202.474 322.023 202.353C322.208 202.235 322.497 202.168 322.714 202.231C322.96 202.302 323.21 202.356 323.46 202.412C323.683 201.452 323.826 200.399 323.777 199.377C323.754 199.388 323.73 199.398 323.714 199.404C323.342 199.58 322.987 199.788 322.652 200.028C322.235 200.327 321.66 200.136 321.387 199.747C321.09 199.328 321.277 198.763 321.666 198.484Z" fill="#026C52"/>
<path opacity="0.3" d="M321.666 198.484C322.215 198.09 322.81 197.794 323.428 197.547C323.265 197.095 323.046 196.665 322.743 196.277C320.083 192.883 318.881 196.255 316.817 196.329C315.789 196.365 314.764 196.692 314.176 197.421C314.434 197.515 314.687 197.623 314.932 197.751C315.327 197.959 315.397 198.461 315.122 198.793C314.865 199.105 314.5 199.366 314.101 199.459C313.977 199.488 313.85 199.486 313.724 199.493C313.796 199.934 313.943 200.425 314.194 200.979C314.45 201.545 314.783 202.076 315.162 202.572C315.383 202.458 315.609 202.354 315.846 202.266C316.215 202.129 316.747 202.457 316.71 202.879C316.678 203.25 316.581 203.603 316.427 203.928C316.964 204.405 317.547 204.795 318.139 205.131C318.203 205.093 318.264 205.052 318.33 205.016C318.47 204.939 318.615 204.871 318.761 204.806C318.844 204.769 318.93 204.736 319.02 204.713C319.248 204.654 319.485 204.694 319.664 204.856C319.84 205.015 319.921 205.264 319.868 205.496C319.84 205.62 319.794 205.736 319.748 205.853C320.624 206.135 321.464 206.236 322.163 206.081C322.163 206.081 322.546 205.314 322.942 204.18C322.732 204.131 322.523 204.08 322.317 204.021C322.074 203.95 321.888 203.825 321.742 203.618C321.602 203.418 321.579 203.161 321.621 202.927C321.661 202.702 321.834 202.474 322.023 202.353C322.208 202.235 322.497 202.168 322.714 202.231C322.96 202.302 323.21 202.356 323.46 202.412C323.683 201.452 323.826 200.399 323.777 199.377C323.754 199.388 323.73 199.398 323.714 199.404C323.342 199.58 322.987 199.788 322.652 200.028C322.235 200.327 321.66 200.136 321.387 199.747C321.09 199.328 321.277 198.763 321.666 198.484Z" fill="white"/>
<path d="M296.227 204.782C296.044 206.059 299.508 206.9 302.334 207.371C302.104 209.691 300.561 212.036 298.429 214.225C295.747 212.714 291.92 210.717 291.214 211.205C290.444 211.737 294.363 214.272 296.814 215.762C295.09 217.292 293.148 218.719 291.262 219.968C290.06 218.845 288.653 217.86 287.814 218.393C286.944 218.946 287.18 220.683 287.609 222.234C284.692 223.935 282.508 224.969 282.508 224.969C282.508 224.969 281.283 221.257 280.559 216.687C280.706 216.396 280.853 216.103 280.987 215.792C281.457 214.705 280.999 214.243 280.223 214.09C280.022 212.089 279.965 210.032 280.175 208.123C283.477 207.43 287.491 206.149 285.987 204.169C285.081 202.975 283.42 202.84 281.693 203.139C281.934 202.741 282.202 202.366 282.508 202.028C288.516 195.408 292.708 202.028 292.708 202.028C296.2 199.118 301.105 199.906 302.165 204.453C300.205 203.951 296.453 203.203 296.227 204.782Z" fill="#026C52"/>
<path opacity="0.5" d="M296.227 204.782C296.044 206.059 299.508 206.9 302.334 207.371C302.104 209.691 300.561 212.036 298.429 214.225C295.747 212.714 291.92 210.717 291.214 211.205C290.444 211.737 294.363 214.272 296.814 215.762C295.09 217.292 293.148 218.719 291.262 219.968C290.06 218.845 288.653 217.86 287.814 218.393C286.944 218.946 287.18 220.683 287.609 222.234C284.692 223.935 282.508 224.969 282.508 224.969C282.508 224.969 281.283 221.257 280.559 216.687C280.706 216.396 280.853 216.103 280.987 215.792C281.457 214.705 280.999 214.243 280.223 214.09C280.022 212.089 279.965 210.032 280.175 208.123C283.477 207.43 287.491 206.149 285.987 204.169C285.081 202.975 283.42 202.84 281.693 203.139C281.934 202.741 282.202 202.366 282.508 202.028C288.516 195.408 292.708 202.028 292.708 202.028C296.2 199.118 301.105 199.906 302.165 204.453C300.205 203.951 296.453 203.203 296.227 204.782Z" fill="white"/>
<path d="M37.569 217.758H15.1074V233.458H37.569V217.758Z" fill="#162146"/>
<path d="M7.8877 214.203V263.852H38.8868V214.203H7.8877ZM35.5054 228.873H25.6503V222.928C25.6503 221.547 26.7714 220.426 28.1532 220.426H33.0025C34.3843 220.426 35.5054 221.547 35.5054 222.928V228.873Z" fill="#E8644B"/>
<path opacity="0.6" d="M7.8877 214.203V263.852H38.8868V214.203H7.8877ZM35.5054 228.873H25.6503V222.928C25.6503 221.547 26.7714 220.426 28.1532 220.426H33.0025C34.3843 220.426 35.5054 221.547 35.5054 222.928V228.873Z" fill="white"/>
<path opacity="0.4" d="M21.1816 214.203H7.8877V263.851H21.1816V214.203Z" fill="white"/>
<path d="M39.6176 211.586H7.08545V216.384H39.6176V211.586Z" fill="#E8644B"/>
<path opacity="0.2" d="M22.0984 211.586H7.08545V216.384H22.0984V211.586Z" fill="white"/>
<path d="M325.989 0H153.027V163.767H325.989V0Z" fill="#C2CDEF"/>
<path opacity="0.8" d="M325.989 0H153.027V163.767H325.989V0Z" fill="white"/>
<path d="M325.989 0H153.027V8.33684H325.989V0Z" fill="#768DD5"/>
<path opacity="0.2" d="M325.99 8.33594H320.27V163.911H325.99V8.33594Z" fill="#333333"/>
<path opacity="0.6" d="M323.45 33.695H322.928C322.121 33.695 321.467 33.0406 321.467 32.2342V13.4843C321.467 12.6778 322.122 12.0234 322.928 12.0234H323.45C324.257 12.0234 324.91 12.6778 324.91 13.4843V32.2342C324.91 33.0406 324.256 33.695 323.45 33.695Z" fill="white"/>
<path d="M180.934 31.9681C185.374 27.5286 185.374 20.3308 180.934 15.8913C176.495 11.4518 169.297 11.4518 164.858 15.8913C160.418 20.3308 160.418 27.5286 164.858 31.9681C169.297 36.4075 176.495 36.4075 180.934 31.9681Z" fill="white"/>
<path d="M182.277 26.1552C183.499 20.9787 180.293 15.7915 175.117 14.5692C169.941 13.3469 164.753 16.5524 163.531 21.7288C162.309 26.9052 165.514 32.0924 170.691 33.3147C175.867 34.537 181.054 31.3316 182.277 26.1552Z" fill="#E8644B"/>
<path d="M174.074 19.6797V26.9763H172.385V21.0345H170.926V19.6797H174.074Z" fill="white"/>
<path d="M274.076 32.4623H190.847C189.376 32.4623 188.183 31.2691 188.183 29.7978V18.063C188.183 16.5917 189.376 15.3984 190.847 15.3984H274.076C275.547 15.3984 276.74 16.5917 276.74 18.063V29.7978C276.74 31.27 275.548 32.4623 274.076 32.4623Z" fill="white"/>
<path d="M189.92 29.6993V18.1548C189.92 17.5908 190.378 17.1328 190.942 17.1328H273.981C274.545 17.1328 275.003 17.5908 275.003 18.1548V29.6993C275.003 30.2634 274.545 30.7213 273.981 30.7213H190.942C190.378 30.7213 189.92 30.2634 189.92 29.6993Z" fill="#E8644B"/>
<path d="M204.366 23.4454C204.366 21.6473 205.739 20.3359 207.588 20.3359C208.527 20.3359 209.343 20.6575 209.899 21.2823L209.334 21.8298C208.865 21.3345 208.291 21.1085 207.623 21.1085C206.251 21.1085 205.234 22.0984 205.234 23.4446C205.234 24.7907 206.25 25.7806 207.623 25.7806C208.292 25.7806 208.865 25.5459 209.334 25.0514L209.899 25.5981C209.343 26.2238 208.527 26.554 207.579 26.554C205.738 26.5549 204.366 25.2435 204.366 23.4454Z" fill="white"/>
<path d="M210.519 23.4454C210.519 21.6647 211.892 20.3359 213.758 20.3359C215.609 20.3359 216.981 21.656 216.981 23.4454C216.981 25.2348 215.609 26.5549 213.758 26.5549C211.891 26.5549 210.519 25.2261 210.519 23.4454ZM216.112 23.4454C216.112 22.0993 215.105 21.1094 213.758 21.1094C212.395 21.1094 211.387 22.0993 211.387 23.4454C211.387 24.7916 212.395 25.7814 213.758 25.7814C215.105 25.7814 216.112 24.7916 216.112 23.4454Z" fill="white"/>
<path d="M223.951 26.4862L223.942 22.0566L221.744 25.7483H221.345L219.147 22.0827V26.4862H218.313V20.4062H219.026L221.562 24.6794L224.063 20.4062H224.775L224.784 26.4862H223.951Z" fill="white"/>
<path d="M231.52 22.525C231.52 23.8451 230.565 24.6446 228.984 24.6446H227.481V26.4862H226.612V20.4062H228.984C230.565 20.4062 231.52 21.2049 231.52 22.525ZM230.652 22.525C230.652 21.6568 230.07 21.1615 228.958 21.1615H227.481V23.8886H228.958C230.069 23.8894 230.652 23.3941 230.652 22.525Z" fill="white"/>
<path d="M232.8 20.4062H233.669V25.7301H236.961V26.4862H232.8V20.4062Z" fill="white"/>
<path d="M242.375 25.7301V26.4862H237.963V20.4062H242.254V21.1623H238.832V23.0291H241.881V23.7677H238.832V25.7309L242.375 25.7301Z" fill="white"/>
<path d="M244.992 21.1623H242.908V20.4062H247.937V21.1623H245.853V26.4862H244.993V21.1623H244.992Z" fill="white"/>
<path d="M253.298 25.7301V26.4862H248.886V20.4062H253.177V21.1623H249.755V23.0291H252.803V23.7677H249.755V25.7309L253.298 25.7301Z" fill="white"/>
<path d="M254.708 20.4062H257.271C259.225 20.4062 260.555 21.6394 260.555 23.4462C260.555 25.253 259.226 26.4862 257.271 26.4862H254.708V20.4062ZM257.218 25.7301C258.721 25.7301 259.685 24.8097 259.685 23.4462C259.685 22.0827 258.721 21.1623 257.218 21.1623H255.577V25.7309L257.218 25.7301Z" fill="white"/>
<path opacity="0.2" d="M297.411 29.6993V18.1548C297.411 17.5908 297.868 17.1328 298.433 17.1328H309.34C309.904 17.1328 310.362 17.5908 310.362 18.1548V29.6993C310.362 30.2634 309.905 30.7213 309.34 30.7213H298.433C297.868 30.7213 297.411 30.2634 297.411 29.6993Z" fill="#333333"/>
<g opacity="0.6">
<path d="M308.432 20.9141H299.263V21.7831H300.075L300.644 28.5444H307.051L307.62 21.7831H308.432V20.9141ZM306.252 27.6753H301.443L300.947 21.7831H306.748L306.252 27.6753Z" fill="white"/>
<path d="M305.608 19.3125H302.084L301.778 20.1816H305.914L305.608 19.3125Z" fill="white"/>
</g>
<path opacity="0.2" d="M281.43 29.6993V18.1548C281.43 17.5908 281.888 17.1328 282.452 17.1328H293.358C293.922 17.1328 294.38 17.5908 294.38 18.1548V29.6993C294.38 30.2634 293.923 30.7213 293.358 30.7213H282.452C281.887 30.7213 281.43 30.2634 281.43 29.6993Z" fill="#333333"/>
<path opacity="0.6" d="M293.005 19.3125L291.605 21.0393V19.3125H284.204V28.5471H291.605V23.1094L294.018 20.1329L293.005 19.3125ZM290.736 27.678H285.073V20.1816H290.736V22.1117L288.365 25.0378L288.324 26.1233L289.377 25.8582L290.736 24.1818V27.678Z" fill="white"/>
<path d="M180.934 61.0853C185.374 56.6458 185.374 49.448 180.934 45.0085C176.495 40.569 169.297 40.569 164.858 45.0085C160.418 49.448 160.418 56.6458 164.858 61.0853C169.297 65.5247 176.495 65.5247 180.934 61.0853Z" fill="white"/>
<path d="M182.276 55.2723C183.498 50.0959 180.292 44.9087 175.116 43.6864C169.94 42.4641 164.752 45.6696 163.53 50.846C162.308 56.0224 165.513 61.2096 170.69 62.4319C175.866 63.6542 181.053 60.4488 182.276 55.2723Z" fill="#E8644B"/>
<path d="M175.68 54.7161V56.0919H170.167V54.9977L172.981 52.3402C173.627 51.7249 173.742 51.3494 173.742 50.9957C173.742 50.4221 173.346 50.0893 172.575 50.0893C171.949 50.0893 171.418 50.3292 171.064 50.8184L169.834 50.0267C170.397 49.2029 171.418 48.6719 172.731 48.6719C174.357 48.6719 175.441 49.5053 175.441 50.8289C175.441 51.5371 175.243 52.1837 174.222 53.1319L172.544 54.7161H175.68Z" fill="white"/>
<path d="M274.076 61.5795H190.847C189.376 61.5795 188.183 60.3863 188.183 58.915V47.1802C188.183 45.7088 189.376 44.5156 190.847 44.5156H274.076C275.547 44.5156 276.74 45.7088 276.74 47.1802V58.915C276.74 60.3872 275.548 61.5795 274.076 61.5795Z" fill="white"/>
<path d="M189.92 58.8165V47.272C189.92 46.708 190.378 46.25 190.942 46.25H273.981C274.545 46.25 275.003 46.708 275.003 47.272V58.8165C275.003 59.3805 274.545 59.8385 273.981 59.8385H190.942C190.378 59.8385 189.92 59.3805 189.92 58.8165Z" fill="#E8644B"/>
<path d="M204.366 52.5626C204.366 50.7645 205.739 49.4531 207.588 49.4531C208.527 49.4531 209.343 49.7747 209.899 50.3995L209.334 50.947C208.865 50.4517 208.291 50.2257 207.623 50.2257C206.251 50.2257 205.234 51.2156 205.234 52.5617C205.234 53.9079 206.25 54.8977 207.623 54.8977C208.292 54.8977 208.865 54.6631 209.334 54.1686L209.899 54.7153C209.343 55.341 208.527 55.6712 207.579 55.6712C205.738 55.6721 204.366 54.3607 204.366 52.5626Z" fill="white"/>
<path d="M210.519 52.5626C210.519 50.7819 211.892 49.4531 213.758 49.4531C215.609 49.4531 216.981 50.7732 216.981 52.5626C216.981 54.352 215.609 55.6721 213.758 55.6721C211.891 55.6721 210.519 54.3433 210.519 52.5626ZM216.112 52.5626C216.112 51.2164 215.105 50.2266 213.758 50.2266C212.395 50.2266 211.387 51.2164 211.387 52.5626C211.387 53.9088 212.395 54.8986 213.758 54.8986C215.105 54.8986 216.112 53.9088 216.112 52.5626Z" fill="white"/>
<path d="M223.951 55.6033L223.942 51.1738L221.744 54.8655H221.345L219.147 51.1998V55.6033H218.313V49.5234H219.026L221.562 53.7966L224.063 49.5234H224.775L224.784 55.6033H223.951Z" fill="white"/>
<path d="M231.52 51.6422C231.52 52.9623 230.565 53.7618 228.984 53.7618H227.481V55.6033H226.612V49.5234H228.984C230.565 49.5234 231.52 50.3221 231.52 51.6422ZM230.652 51.6422C230.652 50.774 230.07 50.2786 228.958 50.2786H227.481V53.0057H228.958C230.069 53.0066 230.652 52.5112 230.652 51.6422Z" fill="white"/>
<path d="M232.8 49.5234H233.669V54.8473H236.961V55.6033H232.8V49.5234Z" fill="white"/>
<path d="M242.375 54.8473V55.6033H237.963V49.5234H242.254V50.2795H238.832V52.1462H241.881V52.8849H238.832V54.8481L242.375 54.8473Z" fill="white"/>
<path d="M244.992 50.2795H242.908V49.5234H247.937V50.2795H245.853V55.6033H244.993V50.2795H244.992Z" fill="white"/>
<path d="M253.298 54.8473V55.6033H248.886V49.5234H253.177V50.2795H249.755V52.1462H252.803V52.8849H249.755V54.8481L253.298 54.8473Z" fill="white"/>
<path d="M254.708 49.5234H257.271C259.225 49.5234 260.555 50.7566 260.555 52.5634C260.555 54.3702 259.226 55.6033 257.271 55.6033H254.708V49.5234ZM257.218 54.8473C258.721 54.8473 259.685 53.9269 259.685 52.5634C259.685 51.1998 258.721 50.2795 257.218 50.2795H255.577V54.8481L257.218 54.8473Z" fill="white"/>
<path opacity="0.2" d="M297.411 58.8165V47.272C297.411 46.708 297.868 46.25 298.433 46.25H309.34C309.904 46.25 310.362 46.708 310.362 47.272V58.8165C310.362 59.3805 309.905 59.8385 309.34 59.8385H298.433C297.868 59.8385 297.411 59.3805 297.411 58.8165Z" fill="#333333"/>
<g opacity="0.6">
<path d="M308.432 50.0312H299.263V50.9003H300.075L300.644 57.6615H307.051L307.62 50.9003H308.432V50.0312ZM306.252 56.7925H301.443L300.947 50.9003H306.748L306.252 56.7925Z" fill="white"/>
<path d="M305.608 48.4297H302.084L301.778 49.2987H305.914L305.608 48.4297Z" fill="white"/>
</g>
<path opacity="0.2" d="M281.43 58.8165V47.272C281.43 46.708 281.888 46.25 282.452 46.25H293.358C293.922 46.25 294.38 46.708 294.38 47.272V58.8165C294.38 59.3805 293.923 59.8385 293.358 59.8385H282.452C281.887 59.8385 281.43 59.3805 281.43 58.8165Z" fill="#333333"/>
<path opacity="0.6" d="M293.005 48.4297L291.605 50.1565V48.4297H284.204V57.6643H291.605V52.2266L294.018 49.2501L293.005 48.4297ZM290.736 56.7952H285.073V49.2987H290.736V51.2289L288.365 54.155L288.324 55.2405L289.377 54.9754L290.736 53.299V56.7952Z" fill="white"/>
<path d="M180.934 90.1946C185.374 85.7552 185.374 78.5574 180.934 74.1179C176.495 69.6784 169.297 69.6784 164.858 74.1179C160.418 78.5573 160.418 85.7552 164.858 90.1946C169.297 94.6341 176.495 94.6341 180.934 90.1946Z" fill="white"/>
<path opacity="0.2" d="M182.273 84.3895C183.495 79.2131 180.29 74.0259 175.114 72.8036C169.937 71.5813 164.75 74.7868 163.528 79.9632C162.305 85.1396 165.511 90.3268 170.687 91.5491C175.864 92.7714 181.051 89.566 182.273 84.3895Z" fill="#333333"/>
<path opacity="0.2" d="M175.607 82.972C175.607 84.2017 174.659 85.3271 172.584 85.3271C171.563 85.3271 170.51 85.0455 169.801 84.5458L170.458 83.2535C171.011 83.6707 171.781 83.9097 172.542 83.9097C173.386 83.9097 173.907 83.5655 173.907 82.972C173.907 82.4192 173.5 82.0751 172.542 82.0751H171.771V80.9601L173.272 79.2611H170.166V77.9062H175.273V79.0004L173.626 80.8767C174.939 81.0852 175.607 81.8987 175.607 82.972Z" fill="#333333"/>
<path d="M274.076 90.6889H190.847C189.376 90.6889 188.183 89.4957 188.183 88.0244V76.2895C188.183 74.8182 189.376 73.625 190.847 73.625H274.076C275.547 73.625 276.74 74.8182 276.74 76.2895V88.0244C276.74 89.4965 275.548 90.6889 274.076 90.6889Z" fill="white"/>
<path opacity="0.2" d="M189.92 87.9259V76.3814C189.92 75.8174 190.378 75.3594 190.942 75.3594H273.981C274.545 75.3594 275.003 75.8174 275.003 76.3814V87.9259C275.003 88.4899 274.545 88.9479 273.981 88.9479H190.942C190.378 88.9479 189.92 88.4899 189.92 87.9259Z" fill="#333333"/>
<g opacity="0.2">
<path d="M224.178 78.6328V84.7127H223.318V79.3889H221.946V78.6328H224.178Z" fill="#333333"/>
<path d="M225.509 81.672C225.509 79.6914 226.569 78.5625 227.993 78.5625C229.409 78.5625 230.468 79.6914 230.468 81.672C230.468 83.6526 229.409 84.7815 227.993 84.7815C226.568 84.7815 225.509 83.6526 225.509 81.672ZM229.599 81.672C229.599 80.1172 228.94 79.336 227.993 79.336C227.037 79.336 226.377 80.1172 226.377 81.672C226.377 83.2267 227.037 84.008 227.993 84.008C228.94 84.008 229.599 83.2267 229.599 81.672Z" fill="#333333"/>
<path d="M233.337 77.3984H234.092L231.226 85.5806H230.47L233.337 77.3984Z" fill="#333333"/>
<path d="M236.336 78.6328V84.7127H235.477V79.3889H234.104V78.6328H236.336Z" fill="#333333"/>
<path d="M237.667 81.672C237.667 79.6914 238.727 78.5625 240.151 78.5625C241.567 78.5625 242.626 79.6914 242.626 81.672C242.626 83.6526 241.567 84.7815 240.151 84.7815C238.727 84.7815 237.667 83.6526 237.667 81.672ZM241.758 81.672C241.758 80.1172 241.099 79.336 240.151 79.336C239.195 79.336 238.536 80.1172 238.536 81.672C238.536 83.2267 239.196 84.008 240.151 84.008C241.099 84.008 241.758 83.2267 241.758 81.672Z" fill="#333333"/>
</g>
<path opacity="0.2" d="M297.412 87.9259V76.3814C297.412 75.8174 297.869 75.3594 298.434 75.3594H309.341C309.905 75.3594 310.363 75.8174 310.363 76.3814V87.9259C310.363 88.4899 309.906 88.9479 309.341 88.9479H298.434C297.869 88.9479 297.412 88.4899 297.412 87.9259Z" fill="#333333"/>
<g opacity="0.6">
<path d="M308.434 79.1406H299.266V80.0097H300.077L300.647 86.7709H307.053L307.622 80.0097H308.434V79.1406ZM306.255 85.9019H301.445L300.949 80.0097H306.751L306.255 85.9019Z" fill="white"/>
<path d="M305.611 77.5391H302.087L301.781 78.4081H305.917L305.611 77.5391Z" fill="white"/>
</g>
<path opacity="0.2" d="M281.43 87.9259V76.3814C281.43 75.8174 281.888 75.3594 282.452 75.3594H293.358C293.922 75.3594 294.38 75.8174 294.38 76.3814V87.9259C294.38 88.4899 293.923 88.9479 293.358 88.9479H282.452C281.887 88.9479 281.43 88.4899 281.43 87.9259Z" fill="#333333"/>
<path opacity="0.6" d="M293.005 77.5391L291.605 79.2659V77.5391H284.204V86.7736H291.605V81.336L294.018 78.3594L293.005 77.5391ZM290.736 85.9046H285.073V78.4081H290.736V80.3383L288.365 83.2644L288.324 84.3498L289.377 84.0848L290.736 82.4084V85.9046Z" fill="white"/>
<path opacity="0.2" d="M156.62 67.6328H316.487" stroke="#333333" stroke-miterlimit="10" stroke-linecap="round" stroke-linejoin="round"/>
<path opacity="0.2" d="M156.62 38.0859H316.487" stroke="#333333" stroke-miterlimit="10" stroke-linecap="round" stroke-linejoin="round"/>
<path opacity="0.8" d="M316.487 97.1797H156.62V159.466H316.487V97.1797Z" fill="#CCCCCC"/>
<path opacity="0.6" d="M293.071 107.305H163.267V114.654H293.071V107.305Z" fill="white"/>
<path opacity="0.2" d="M190.513 101.602H164.327C163.742 101.602 163.267 102.076 163.267 102.662C163.267 103.248 163.742 103.722 164.327 103.722H190.513C191.099 103.722 191.573 103.248 191.573 102.662C191.572 102.076 191.098 101.602 190.513 101.602Z" fill="#333333"/>
<path opacity="0.6" d="M223.546 126.43H163.267V133.779H223.546V126.43Z" fill="white"/>
<path opacity="0.2" d="M190.513 120.727H164.327C163.742 120.727 163.267 121.201 163.267 121.787C163.267 122.373 163.742 122.847 164.327 122.847H190.513C191.099 122.847 191.573 122.373 191.573 121.787C191.572 121.201 191.098 120.727 190.513 120.727Z" fill="#333333"/>
<path opacity="0.6" d="M264.229 143.805H163.267V151.154H264.229V143.805Z" fill="white"/>
<path opacity="0.2" d="M190.513 138.102H164.327C163.742 138.102 163.267 138.576 163.267 139.162C163.267 139.748 163.742 140.222 164.327 140.222H190.513C191.099 140.222 191.573 139.748 191.573 139.162C191.572 138.577 191.098 138.102 190.513 138.102Z" fill="#333333"/>
<path opacity="0.6" d="M293.071 126.43H232.792V133.779H293.071V126.43Z" fill="white"/>
<path opacity="0.2" d="M260.037 120.727H233.852C233.266 120.727 232.792 121.201 232.792 121.787C232.792 122.373 233.266 122.847 233.852 122.847H260.037C260.623 122.847 261.097 122.373 261.097 121.787C261.097 121.201 260.622 120.727 260.037 120.727Z" fill="#333333"/>
<path opacity="0.2" d="M302.865 107.305H295.515V114.654H302.865V107.305Z" fill="#333333"/>
<path opacity="0.2" d="M302.937 126.43H295.588V133.779H302.937V126.43Z" fill="#333333"/>
<path opacity="0.2" d="M273.944 143.805H266.594V151.154H273.944V143.805Z" fill="#333333"/>
<path opacity="0.6" d="M321.903 6.26175C323.058 6.26175 323.995 5.32521 323.995 4.16994C323.995 3.01466 323.058 2.07812 321.903 2.07812C320.748 2.07812 319.811 3.01466 319.811 4.16994C319.811 5.32521 320.748 6.26175 321.903 6.26175Z" fill="white"/>
<path opacity="0.6" d="M314.516 6.26175C315.671 6.26175 316.608 5.32521 316.608 4.16994C316.608 3.01466 315.671 2.07812 314.516 2.07812C313.361 2.07812 312.424 3.01466 312.424 4.16994C312.424 5.32521 313.361 6.26175 314.516 6.26175Z" fill="white"/>
<path opacity="0.6" d="M307.128 6.26175C308.284 6.26175 309.22 5.32521 309.22 4.16994C309.22 3.01466 308.284 2.07812 307.128 2.07812C305.973 2.07812 305.037 3.01466 305.037 4.16994C305.037 5.32521 305.973 6.26175 307.128 6.26175Z" fill="white"/>
<path d="M45.6029 247.688L68.6849 245.677V211.289H76.8002V245.669L99.9657 247.689C102.006 247.89 103.562 249.607 103.562 251.657V254.731H73.536H72.0317H42.0059V251.657C42.0067 249.606 43.5623 247.889 45.6029 247.688Z" fill="#162146"/>
<path opacity="0.1" d="M45.6029 247.688L68.6849 245.677V211.289H76.8002V245.669L99.9657 247.689C102.006 247.89 103.562 249.607 103.562 251.657V254.731H73.536H72.0317H42.0059V251.657C42.0067 249.606 43.5623 247.889 45.6029 247.688Z" fill="white"/>
<path d="M96.0894 258.548C96.0894 261.478 98.4645 263.853 101.395 263.853C104.325 263.853 106.701 261.478 106.701 258.548C106.701 255.617 104.325 253.242 101.395 253.242C98.4645 253.242 96.0894 255.617 96.0894 258.548Z" fill="#162146"/>
<path d="M49.4788 258.548C49.4788 261.478 47.1037 263.853 44.1733 263.853C41.2428 263.853 38.8677 261.478 38.8677 258.548C38.8677 255.617 41.2428 253.242 44.1733 253.242C47.1037 253.242 49.4788 255.617 49.4788 258.548Z" fill="#162146"/>
<path d="M70.8799 217.474H74.6055C76.5896 217.474 78.1973 215.866 78.1973 213.882V185.969H67.2881V213.882C67.2881 215.866 68.8958 217.474 70.8799 217.474Z" fill="#162146"/>
<path opacity="0.2" d="M70.8799 217.474H74.6055C76.5896 217.474 78.1973 215.866 78.1973 213.882V185.969H67.2881V213.882C67.2881 215.866 68.8958 217.474 70.8799 217.474Z" fill="white"/>
<path d="M48.8058 126C48.8058 126 51.3052 176.125 62.1006 184.755H50.5552C50.5552 184.755 40.2596 167.678 39.4922 126H48.8058Z" fill="#162146"/>
<path opacity="0.1" d="M48.8058 126C48.8058 126 51.3052 176.125 62.1006 184.755H50.5552C50.5552 184.755 40.2596 167.678 39.4922 126H48.8058Z" fill="white"/>
<path d="M99.0532 180.602H47.8668C45.4673 180.602 43.5215 182.547 43.5215 184.947V188.909H103.398V184.947C103.398 182.547 101.453 180.602 99.0532 180.602Z" fill="#F3B502"/>
<path d="M103.928 184.758H42.9899C42.0243 184.758 41.2422 185.54 41.2422 186.505V187.163C41.2422 188.129 42.0243 188.911 42.9899 188.911H103.928C104.893 188.911 105.676 188.128 105.676 187.163V186.505C105.676 185.541 104.893 184.758 103.928 184.758Z" fill="#162146"/>
<path opacity="0.6" d="M103.928 184.758H42.9899C42.0243 184.758 41.2422 185.54 41.2422 186.505V187.163C41.2422 188.129 42.0243 188.911 42.9899 188.911H103.928C104.893 188.911 105.676 188.128 105.676 187.163V186.505C105.676 185.541 104.893 184.758 103.928 184.758Z" fill="white"/>
<path d="M37.466 136.975H55.9612C61.3798 136.975 65.2922 132.107 64.7013 126.102L63.9122 118.085C63.3212 112.079 58.4493 107.211 53.0308 107.211H34.5364C29.1179 107.211 25.2054 112.079 25.7963 118.085L26.5854 126.101C27.1764 132.107 32.0483 136.975 37.466 136.975Z" fill="#F3B502"/>
<path d="M98.0615 257.579L104.984 256.628L105.944 240.172L99.0305 241.13L98.0615 257.579Z" fill="#F3B1A5"/>
<path opacity="0.2" d="M99.0308 241.129L105.945 240.18L105.395 249.586L98.4902 250.193L99.0308 241.129Z" fill="#1A1A1A"/>
<path d="M114.032 251.433L121.001 251.946L125.367 236.05L118.406 235.547L114.032 251.433Z" fill="#F3B1A5"/>
<path opacity="0.2" d="M118.405 235.547L125.365 236.059L122.868 245.145L115.988 244.299L118.405 235.547Z" fill="#1A1A1A"/>
<path d="M127.727 244.019L115.456 240.413C115.456 240.413 122.782 199.063 130.213 184.724C129.656 184.541 128.918 184.306 128.005 184.037C126.363 183.542 124.181 182.925 121.618 182.212C103.785 177.267 67.6406 167.994 67.6406 167.994L84.1527 152.586C84.1527 152.586 149.923 162.615 151.287 179.944C151.939 188.277 127.727 244.019 127.727 244.019Z" fill="#F3B502"/>
<path opacity="0.4" d="M127.727 244.019L115.456 240.413C115.456 240.413 122.782 199.063 130.213 184.724C129.656 184.541 128.918 184.306 128.005 184.037C126.363 183.542 124.181 182.925 121.618 182.212C103.785 177.267 67.6406 167.994 67.6406 167.994L84.1527 152.586C84.1527 152.586 149.923 162.615 151.287 179.944C151.939 188.277 127.727 244.019 127.727 244.019Z" fill="white"/>
<path d="M98.3386 160.835L94.911 145.039L57.8372 145.325C57.8372 145.325 53.71 169.951 56.8812 175.817C62.5422 186.29 93.0495 181.005 101.976 182.035C96.6404 203.857 97.1619 246.501 97.1619 246.501L109.911 247.474C109.911 247.474 119.721 201.522 121.704 179.688C123.042 164.955 110.835 165.321 98.3386 160.835Z" fill="#F3B502"/>
<path d="M121.969 252.258C121.978 252.275 121.974 252.298 121.988 252.312C122.006 252.321 122.027 252.322 122.047 252.32C122.588 252.624 123.159 252.87 123.752 253.051C124.185 253.228 124.669 253.235 125.108 253.073C125.4 252.907 125.571 252.587 125.545 252.252C125.565 252.041 125.478 251.835 125.31 251.705C124.914 251.41 124.086 251.497 123.356 251.652C123.888 251.218 124.356 250.673 124.385 250.238C124.402 249.952 124.237 249.691 123.964 249.605C123.727 249.507 123.491 249.519 123.264 249.636C122.418 250.101 122.089 252.051 122.064 252.155L122.187 252.157V252.159L122.062 252.166C122.061 252.173 121.945 252.178 121.945 252.186C121.946 252.212 121.954 252.236 121.969 252.258ZM122.489 251.869C122.431 251.887 122.381 251.902 122.332 251.917C122.496 251.276 122.847 250.222 123.354 249.951C123.466 249.884 123.601 249.865 123.727 249.902L123.803 249.929C124.019 250.017 124.048 250.143 124.036 250.238C123.977 250.709 123.176 251.492 122.489 251.869ZM122.515 252.229C123.434 251.951 124.71 251.7 125.102 251.994C125.186 252.058 125.229 252.16 125.217 252.263C125.226 252.473 125.125 252.673 124.949 252.79C124.545 253.01 123.653 252.801 122.515 252.229Z" fill="#F3B502"/>
<path d="M113.874 240.683L128.649 244.861L131.3 238.717L114.998 234.445L113.874 240.683Z" fill="#F3B502"/>
<path opacity="0.2" d="M113.874 240.683L128.649 244.861L131.3 238.717L114.998 234.445L113.874 240.683Z" fill="white"/>
<path d="M121.685 251.233L114.138 249.126C113.878 249.041 113.598 249.183 113.513 249.443C113.512 249.445 113.511 249.448 113.51 249.45L111.474 255.325C111.292 255.976 111.668 256.652 112.317 256.842C114.962 257.534 116.261 257.733 119.589 258.633C121.63 259.196 125.608 260.503 128.518 260.834C131.428 261.165 131.677 258.28 130.475 257.884C127.625 256.93 124.216 253.96 122.735 251.943C122.474 251.596 122.104 251.347 121.685 251.233Z" fill="#162146"/>
<path opacity="0.4" d="M98.3386 160.835L94.911 145.039L57.8372 145.325C57.8372 145.325 53.71 169.951 56.8812 175.817C62.5422 186.29 93.0495 181.005 101.976 182.035C96.6404 203.857 97.1619 246.501 97.1619 246.501L109.911 247.474C109.911 247.474 119.721 201.522 121.704 179.688C123.042 164.955 110.835 165.321 98.3386 160.835Z" fill="white"/>
<path d="M95.6672 247.101L110.989 248.109L112.301 241.548L95.4673 240.766L95.6672 247.101Z" fill="#F3B502"/>
<path opacity="0.2" d="M95.6672 247.101L110.989 248.109L112.301 241.548L95.4673 240.766L95.6672 247.101Z" fill="white"/>
<path d="M105.673 256.645C105.673 256.652 105.817 256.656 105.819 256.664C105.827 256.69 105.974 256.712 105.994 256.73C106.007 256.745 106.007 256.767 106.024 256.778C106.044 256.784 106.064 256.78 106.083 256.773C106.675 256.958 107.284 257.08 107.902 257.134C108.363 257.216 108.835 257.123 109.231 256.872C109.482 256.649 109.579 256.3 109.485 255.978C109.46 255.768 109.325 255.584 109.134 255.493C108.686 255.288 107.881 255.545 107.2 255.849C107.63 255.315 107.949 254.686 107.887 254.254C107.844 253.97 107.58 253.752 107.295 253.725C107.043 253.679 106.717 253.745 106.518 253.908C105.791 254.536 105.674 256.51 105.674 256.631C105.674 256.633 105.674 256.635 105.674 256.637V256.638L105.673 256.645ZM106.422 256.241C106.369 256.271 106.324 256.296 106.279 256.321C106.306 255.66 106.43 254.556 106.868 254.186C106.963 254.096 107.093 254.05 107.223 254.06L107.302 254.07C107.533 254.112 107.587 254.229 107.594 254.325C107.635 254.797 107.015 255.728 106.422 256.241ZM106.523 256.587C107.364 256.123 108.559 255.612 109.004 255.819C109.099 255.863 109.162 255.954 109.173 256.058C109.226 256.261 109.168 256.478 109.02 256.629C108.671 256.929 107.753 256.91 106.523 256.587Z" fill="#F3B502"/>
<path d="M105.506 255.795L97.6842 255.308C97.4122 255.278 97.168 255.475 97.1384 255.747C97.1384 255.75 97.1375 255.753 97.1375 255.755L96.3702 261.925C96.3276 262.6 96.836 263.183 97.5104 263.233C100.242 263.359 101.552 263.282 104.996 263.47C107.109 263.596 111.273 264.045 114.188 263.763C117.103 263.48 116.745 260.606 115.487 260.469C112.502 260.129 108.547 257.936 106.679 256.271C106.352 255.986 105.938 255.819 105.506 255.795Z" fill="#162146"/>
<path opacity="0.2" d="M128.005 184.041C126.363 183.546 124.181 182.929 121.618 182.216C122.13 178.01 122.139 173.187 120.114 170.727C116.09 165.826 105.74 162.949 99.8478 161.906C94.9202 161.037 78.3647 159.308 78.3647 159.308C78.3647 159.308 99.8477 157.248 121.809 163.653C132.663 166.825 130.551 177.436 128.005 184.041Z" fill="#1A1A1A"/>
<path d="M71.0244 145.227L57.8391 145.326L57.3438 148.566L71.0244 148.774V145.227Z" fill="#162146"/>
<path d="M72.7437 145.213V148.799L95.8057 149.15V145.039L72.7437 145.213Z" fill="#162146"/>
<path d="M84.5474 146.438V148.806C84.5474 149.385 85.0167 149.853 85.5946 149.853H89.574C90.1528 149.853 90.6212 149.384 90.6212 148.806V146.438C90.6212 145.859 90.1519 145.391 89.574 145.391H85.5946C85.0158 145.391 84.5474 145.859 84.5474 146.438Z" fill="white"/>
<path d="M91.2832 111.801C91.2832 111.801 91.4953 112.375 91.8811 113.321C92.2739 114.303 92.8562 115.688 93.5749 117.245C95.3139 121.034 97.8402 125.836 100.48 128.43C101.258 129.194 102.045 129.768 102.823 130.064C105.637 131.145 112.692 131.342 118.991 131.281C125.192 131.228 130.675 130.903 130.675 130.903V126.131L109.962 120.611C109.962 120.611 99.0421 100.904 92.5833 97.9844L91.2832 111.801Z" fill="#162146"/>
<path opacity="0.2" d="M91.8799 113.322C92.2727 114.305 92.855 115.689 93.5737 117.246C95.3126 121.035 97.839 125.837 100.478 128.431C103.163 118.539 93.2339 109.125 93.2339 109.125L91.8799 113.322Z" fill="#1A1A1A"/>
<path d="M56.8706 146.442H96.4108C101.297 110.523 92.5852 98.1275 92.5852 98.1275C89.3636 97.2037 86.0742 96.5346 82.7475 96.1244C77.8895 95.7385 73.0124 95.6334 68.1422 95.8089C64.8146 95.8941 61.4965 96.2226 58.2167 96.7918C56.4386 97.5435 54.6753 105.293 56.4369 129.413C57.0218 137.421 56.9835 144.047 56.8706 146.442Z" fill="#162146"/>
<path opacity="0.1" d="M56.8706 146.442H96.4108C101.297 110.523 92.5852 98.1275 92.5852 98.1275C89.3636 97.2037 86.0742 96.5346 82.7475 96.1244C77.8895 95.7385 73.0124 95.6334 68.1422 95.8089C64.8146 95.8941 61.4965 96.2226 58.2167 96.7918C56.4386 97.5435 54.6753 105.293 56.4369 129.413C57.0218 137.421 56.9835 144.047 56.8706 146.442Z" fill="white"/>
<path d="M87.5571 110.43H94.467L94.9954 118.683L91.2836 121.088L87.5571 119.247V110.43Z" fill="#162146"/>
<path d="M68.4683 95.4533L80.0649 99.4067L80.5351 96.0834C79.4018 94.102 79.1168 92.8514 80.0719 90.5493L72.3321 81.6562C72.5398 86.2144 71.7124 92.4395 68.4683 95.4533Z" fill="#F3B1A5"/>
<path opacity="0.2" d="M75.4858 85.2891L80.0649 90.5547C79.7181 91.362 79.4409 92.1972 79.2358 93.0523C77.2987 92.4727 74.9062 89.8898 75.0044 87.7867C75.0087 86.9316 75.1721 86.0851 75.4858 85.2891Z" fill="#1A1A1A"/>
<path d="M85.2199 70.9945C82.4094 72.4198 83.208 75.5449 88.4667 80.9452C91.2355 78.1651 92.3931 72.2312 90.6958 70.4861C88.9977 68.7402 87.668 69.7631 85.2199 70.9945Z" fill="#162146"/>
<path d="M73.481 74.3942C72.9552 80.7522 72.3295 84.4413 75.0375 88.1383C79.1177 93.6941 87.3137 91.9386 89.7306 85.864C91.8928 80.4072 92.3951 70.9241 86.5924 67.5278C82.4575 65.0797 77.1215 66.4467 74.6734 70.5816C73.9851 71.7427 73.5775 73.048 73.481 74.3942Z" fill="#F3B1A5"/>
<path d="M82.6396 77.4797C82.5657 77.9924 82.7795 78.4478 83.1141 78.4948C83.4487 78.5417 83.7755 78.1697 83.8493 77.657C83.9232 77.1442 83.7164 76.6915 83.3844 76.6376C83.0524 76.5846 82.7482 76.98 82.6396 77.4797Z" fill="#162146"/>
<path d="M88.4682 78.3381C88.3943 78.8509 88.6081 79.3063 88.9427 79.3532C89.2773 79.4001 89.611 79.0308 89.6875 78.5111C89.764 77.9914 89.5476 77.5429 89.213 77.496C88.8784 77.45 88.5421 77.8254 88.4682 78.3381Z" fill="#162146"/>
<path d="M86.5316 78.3047C86.9166 79.9611 87.5275 81.5567 88.3479 83.0462C87.299 83.7589 85.8276 83.147 85.8276 83.147L86.5316 78.3047Z" fill="#EE8A77"/>
<path d="M81.3133 75.4103C81.2455 75.4085 81.1803 75.3842 81.1281 75.3407C81.0091 75.2217 81.0082 75.0296 81.1247 74.9088C81.8051 74.2005 82.788 73.8686 83.7588 74.0206C83.9187 74.0493 84.0247 74.2014 83.996 74.3604C83.9952 74.3674 83.9934 74.3744 83.9917 74.3813C83.9508 74.5421 83.7935 74.6438 83.631 74.6142C82.8645 74.5073 82.0937 74.7759 81.5601 75.3364C81.4914 75.3964 81.4019 75.4224 81.3133 75.4103Z" fill="#162146"/>
<path d="M91.4082 76.7555C91.2917 76.7372 91.1962 76.6555 91.1579 76.5443C90.945 75.7995 90.3879 75.2016 89.6597 74.9357C89.498 74.8888 89.4042 74.721 89.4476 74.5594C89.4928 74.4004 89.6562 74.3056 89.817 74.3447C90.7442 74.6672 91.4586 75.418 91.735 76.3601C91.7862 76.5182 91.7002 76.6877 91.542 76.7398C91.5403 76.7398 91.5394 76.7407 91.5377 76.7416C91.4968 76.7546 91.4525 76.759 91.4082 76.7555Z" fill="#162146"/>
<path d="M76.8006 69.1728C79.5998 70.6094 78.7786 73.7327 73.4878 79.0948C70.7346 76.2973 69.6109 70.3495 71.3273 68.6253C73.0437 66.9011 74.3542 67.9222 76.8006 69.1728Z" fill="#162146"/>
<path d="M69.7487 78.9966C69.9668 80.5878 70.8063 82.027 72.0829 83.0003C73.7854 84.27 75.3975 82.9299 75.567 80.9259C75.7173 79.1182 75.0082 76.2773 72.9937 75.7993C70.9801 75.3213 69.4914 77.0447 69.7487 78.9966Z" fill="#F3B1A5"/>
<path d="M80.9531 83.5859C80.9531 83.5859 81.7857 85.7985 84.8578 86.0897" stroke="#162146" stroke-width="0.5263" stroke-miterlimit="10" stroke-linecap="round" stroke-linejoin="round"/>
<path d="M83.3438 68.9864C83.3438 68.9864 81.5927 75.1967 75.4468 74.8213C69.3008 74.445 68.4683 70.5099 68.4683 70.5099C68.4683 70.5099 69.3886 70.7697 69.9526 70.8262C69.9526 70.8262 68.563 67.5255 70.7235 64.7811C72.8839 62.0366 79.3558 59.718 83.6628 61.8871C83.6628 61.8871 88.1784 60.8078 92.0918 63.8025C96.0051 66.7973 94.5729 72.0464 94.5729 72.0464C94.5729 72.0464 95.1743 68.8239 93.3215 67.6646C93.3215 67.6646 94.9066 74.6622 91.0219 75.9771C91.0219 75.9771 91.4982 69.3523 83.3438 68.9864Z" fill="#162146"/>
<path opacity="0.5" d="M76.467 86.3448C76.467 86.3448 78.9308 81.3834 80.5351 81.3139C82.1394 81.2444 84.0009 83.8289 84.0009 83.8289L83.2448 84.3391C83.2448 84.3391 81.7127 82.5627 81.0383 82.3906C80.3639 82.2186 77.9392 85.2559 78.3781 86.344C78.817 87.4329 80.2344 87.9482 80.2344 87.9482L81.6484 86.4587L82.9059 87.2035L82.1272 89.1658C82.1272 89.1658 83.7376 89.8098 84.8586 89.1658C85.9797 88.5218 86.3265 85.5662 86.2396 85.3819C86.1518 85.1977 84.4328 84.837 84.4328 84.837L84.8586 84.167C84.8586 84.167 87.1877 83.8802 87.5579 84.625C87.9281 85.3698 86.7923 89.9262 85.6547 90.4381C84.518 90.95 82.6895 91.6999 80.0658 90.5693C77.4413 89.4387 75.7796 87.6145 76.467 86.3448Z" fill="#1A1A1A"/>
<path d="M89.7134 125.788C89.7134 125.788 111.655 125.288 112.883 125.166C114.111 125.043 119.314 122.109 120.414 121.987C121.515 121.864 124.483 126.51 124.85 127.611C125.217 128.711 116.553 131.646 115.697 131.524C114.841 131.401 112.875 130.473 112.875 130.473L90.4868 133.351L89.7134 125.788Z" fill="#F3B1A5"/>
<path opacity="0.2" d="M55.779 117.006C55.779 117.006 55.7868 117.006 55.779 117.014C59.0379 122.3 63.5987 127.941 68.143 127.677C72.8993 127.397 68.1048 117.687 62.993 109.233C62.7966 109.641 62.6228 110.034 62.4863 110.42C61.3296 113.656 57.7978 109.672 55.998 104.461C55.7329 107.507 55.6269 111.606 55.779 117.006Z" fill="#1A1A1A"/>
<path d="M58.2159 96.7969C47.0017 100.839 66.6866 131.21 72.7995 134.339C78.9124 137.469 94.9952 133.859 94.9952 133.859L93.9984 124.476C93.9984 124.476 81.2676 125.334 78.7343 124.694C76.201 124.054 70.1854 111.109 66.724 104.996C63.2625 98.8817 58.2159 96.7969 58.2159 96.7969Z" fill="#162146"/>
<path d="M69.1894 93.3516C69.1894 93.3516 73.692 96.4871 79.6346 98.7797C79.6346 98.7797 80.3385 96.1438 79.6346 93.8521L84.7568 96.4089C84.7568 96.4089 85.1809 100.385 84.0042 102.447L80.2464 99.6965L76.0236 103.134C76.0236 103.134 68.0249 100.048 66.7734 95.8614L69.1894 93.3516Z" fill="#162146"/>
<path d="M136.04 263.855H131.07L130.258 139.516H136.852L136.04 263.855Z" fill="#162146"/>
<path opacity="0.85" d="M136.856 139.719L136.726 159.779L136.044 263.858H131.07L130.389 159.779L130.259 139.719H136.856Z" fill="#768DD5"/>
<path opacity="0.2" d="M136.856 139.719L136.726 160.002H130.389L130.259 139.719H136.856Z" fill="#1A1A1A"/>
<path d="M188.813 263.855H183.842L174.912 139.516H181.506L188.813 263.855Z" fill="#162146"/>
<path d="M188.815 263.858H183.842L175.347 145.694L174.909 139.719H181.506L181.862 145.694L188.815 263.858Z" fill="#B1BEE7"/>
<path opacity="0.2" d="M181.862 145.398H175.347L174.909 139.719H181.506L181.862 145.398Z" fill="#1A1A1A"/>
<path d="M83.2684 263.855H78.2974L85.6044 139.516H92.1988L83.2684 263.855Z" fill="#162146"/>
<path d="M92.1986 139.719L91.7606 145.694L83.2656 263.858H78.2998L85.2453 145.694L85.6025 139.719H92.1986Z" fill="#768DD5"/>
<path opacity="0.2" d="M85.6023 139.719H92.1984L91.7604 145.398H85.2451L85.6023 139.719Z" fill="#1A1A1A"/>
<path d="M184.854 142.626H82.2573C81.2197 142.626 80.3784 141.785 80.3784 140.747V136.398H186.734V140.747C186.734 141.785 185.893 142.626 184.854 142.626Z" fill="#162146"/>
<path opacity="0.6" d="M184.854 142.626H82.2573C81.2197 142.626 80.3784 141.785 80.3784 140.747V136.398H186.734V140.747C186.734 141.785 185.893 142.626 184.854 142.626Z" fill="white"/>
<path opacity="0.2" d="M186.734 136.398H80.3784V139.512H186.734V136.398Z" fill="#1A1A1A"/>
<path d="M189.815 137.212H77.2966C76.3276 137.212 75.542 136.427 75.542 135.458C75.542 134.489 76.3276 133.703 77.2966 133.703H189.814C190.783 133.703 191.569 134.489 191.569 135.458C191.569 136.427 190.784 137.212 189.815 137.212Z" fill="#162146"/>
<path opacity="0.6" d="M189.815 137.212H77.2966C76.3276 137.212 75.542 136.427 75.542 135.458C75.542 134.489 76.3276 133.703 77.2966 133.703H189.814C190.783 133.703 191.569 134.489 191.569 135.458C191.569 136.427 190.784 137.212 189.815 137.212Z" fill="white"/>
<path d="M154.737 130.102V132.138C154.737 132.748 153.687 133.18 153.084 133.18H105.528C104.918 133.18 103.945 132.748 103.945 132.138V130.102H154.737Z" fill="#162146"/>
<path opacity="0.6" d="M154.737 130.102V132.138C154.737 132.748 153.687 133.18 153.084 133.18H105.528C104.918 133.18 103.945 132.748 103.945 132.138V130.102H154.737Z" fill="white"/>
<path opacity="0.2" d="M154.736 130.102V132.138C154.736 132.748 153.686 133.18 153.083 133.18H121.717C121.107 133.18 120.104 132.748 120.104 132.138V130.102H154.736Z" fill="#1A1A1A"/>
<path d="M162.362 105.102L156.701 130.867C156.517 131.712 155.694 132.412 154.863 132.412H123.939C123.115 132.412 122.586 131.533 122.777 130.688L128.431 105.199C128.622 104.361 129.438 103.938 130.269 103.938H161.193C162.024 103.938 162.547 104.264 162.362 105.102Z" fill="#162146"/>
<path opacity="0.6" d="M162.362 105.102L156.701 130.867C156.517 131.712 155.694 132.412 154.863 132.412H123.939C123.115 132.412 122.586 131.533 122.777 130.688L128.431 105.199C128.622 104.361 129.438 103.938 130.269 103.938H161.193C162.024 103.938 162.547 104.264 162.362 105.102Z" fill="white"/>
<path d="M162.361 105.102L156.7 130.867C156.516 131.712 155.693 132.412 154.862 132.412H124.989C124.158 132.412 123.636 131.533 123.82 130.688L129.482 105.199C129.666 104.361 130.489 103.938 131.32 103.938H161.193C162.023 103.938 162.545 104.264 162.361 105.102Z" fill="white"/>
<path opacity="0.2" d="M144.17 121.614C145.609 121.614 147.086 120.067 147.463 118.166C147.833 116.258 146.97 114.711 145.523 114.711C145.254 114.711 144.985 114.765 144.723 114.865C144.384 116.35 143.376 117.597 142.268 118.012C142.252 118.066 142.238 118.112 142.23 118.166C141.853 120.067 142.723 121.614 144.17 121.614Z" fill="#1A1A1A"/>
</svg>
