<svg width="316" height="318" viewBox="0 0 316 318" fill="none" xmlns="http://www.w3.org/2000/svg">
<g clip-path="url(#clip0_2892_25636)">
<path d="M277.451 272.508C271.023 279.264 264.942 283.622 260.136 287.064C203.652 327.532 136.816 315.736 122.612 312.855C101.636 308.601 61.0909 300.378 31.7777 265.958C-12.571 213.882 -5.66464 131.84 28.7351 77.6807C35.0272 67.7739 68.2645 12.7905 135.821 3.97399C176.705 -1.36273 224.362 9.40043 258.875 38.2714C331.318 98.8754 326.161 221.304 277.452 272.508H277.451Z" fill="#F2F2F2"/>
<path d="M21.0359 30.6907C20.7379 29.4243 22.5213 28.5828 23.6133 29.4675C34.703 38.4465 61.3479 65.3345 54.7077 112.325C46.3762 171.28 60.6199 192.792 78.3498 205.914C78.3498 205.914 54.0014 199.744 38.6816 177.914C1.06984 124.32 26.3317 53.1994 21.0359 30.6907Z" fill="#026C52"/>
<g style="mix-blend-mode:soft-light">
<path d="M29.4757 49.1052C30.8633 55.6685 32.0997 62.2511 33.0551 68.8643C34.0504 75.4719 34.8136 82.1022 35.3356 88.7439C35.8281 95.3867 36.1762 102.036 36.1955 108.688C36.2501 115.34 35.9726 121.986 35.6677 128.659C35.4061 135.329 35.0979 142.046 35.587 148.812C36.0681 155.564 37.491 162.375 40.3152 168.759C41.0215 170.351 41.7643 171.937 42.6071 173.469C43.418 175.016 44.3086 176.532 45.2299 178.035C47.0907 181.032 49.1858 183.927 51.5209 186.675C56.207 192.162 61.8588 197.03 68.0839 201.149C68.739 201.583 69.6785 201.476 70.1812 200.91C70.6749 200.356 70.5645 199.565 69.9401 199.126L69.9356 199.123C68.4546 198.084 66.9885 197.032 65.5816 195.927C64.8684 195.384 64.1837 194.815 63.4876 194.257C62.8165 193.678 62.1193 193.121 61.4698 192.523C58.8265 190.173 56.3765 187.667 54.1552 185.016C49.6852 179.74 46.108 173.86 43.3976 167.765C42.0816 164.703 41.0295 161.562 40.2617 158.364C39.4963 155.165 39.0151 151.909 38.749 148.628C38.2155 142.061 38.4567 135.409 38.6625 128.738C38.8582 122.066 39.0026 115.358 38.8263 108.657C38.749 105.307 38.6011 101.958 38.3839 98.6132C38.2861 96.9403 38.1518 95.2697 38.0199 93.5979C37.8698 91.9284 37.7094 90.2589 37.5331 88.5917C36.8131 81.9228 35.8577 75.2754 34.66 68.6644C33.4259 62.058 31.9882 55.4822 30.2594 48.9643C30.2093 48.7781 29.9944 48.6611 29.7783 48.7043C29.569 48.7452 29.4348 48.9223 29.4734 49.104L29.4757 49.1052Z" fill="white"/>
</g>
<path d="M49.7628 171.803C48.4036 173.243 46.0117 172.83 45.1939 171.026C40.6806 161.077 30.4679 131.795 47.3345 98.0598C61.5782 69.5727 66.5908 52.7744 68.3367 44.9902C68.7064 43.3445 70.9652 43.1253 71.6465 44.6688C79.1694 61.6943 99.0319 119.605 49.7617 171.802L49.7628 171.803Z" fill="#7EB4A7"/>
<g style="mix-blend-mode:soft-light">
<path d="M47.293 170.751C47.2441 170.76 47.1952 170.764 47.144 170.763C46.7163 170.756 46.3751 170.405 46.3819 169.978C46.3899 169.494 47.3328 121.134 65.3459 80.6311C65.5199 80.2416 65.9772 80.0656 66.3673 80.2382C66.7574 80.412 66.9337 80.8685 66.7609 81.2581C48.8785 121.466 47.9379 169.52 47.9299 170.001C47.9243 170.376 47.6513 170.685 47.293 170.749V170.751Z" fill="white"/>
</g>
<path d="M171.396 76.376C170.391 76.376 169.563 75.5787 169.533 74.5702C169.512 73.8933 169.081 57.7957 173.828 40.6055C180.221 17.4517 193.042 3.72999 210.906 0.921369C219.658 -0.455117 227.46 1.60848 234.09 7.05309C255.702 24.802 257.757 72.4225 257.834 74.4407C257.874 75.4685 257.071 76.3328 256.042 76.3726C255.004 76.3964 254.147 75.6105 254.107 74.5827C254.089 74.1045 252.037 26.6101 231.717 9.92645C225.947 5.18938 219.141 3.39495 211.486 4.59995C171.78 10.8407 173.242 73.8195 173.261 74.4555C173.293 75.4833 172.483 76.3419 171.454 76.3737C171.434 76.3737 171.415 76.3737 171.396 76.3737V76.376Z" fill="#CA9702"/>
<path d="M92.8327 280.276L124.88 59.5997L245.273 57.5781L284.076 292.54H103.258C96.8261 292.54 91.8943 286.738 92.8338 280.276H92.8327Z" fill="#F3B502"/>
<path d="M268.656 59.6075L245.274 57.5859L284.078 292.548H307.29C311.996 292.548 315.513 288.155 314.555 283.475L268.656 59.6075Z" fill="#F6C63C"/>
<path d="M230.099 75.867C229.101 75.867 228.274 75.0788 228.236 74.076C228.217 73.5978 226.165 26.1034 205.846 9.41977C200.076 4.68271 193.27 2.88828 185.615 4.09327C145.94 10.3295 147.37 73.3128 147.39 73.9488C147.42 74.9766 146.612 75.8352 145.581 75.8659C144.541 75.909 143.692 75.089 143.66 74.0612C143.64 73.3843 143.209 57.2867 147.955 40.0965C154.351 16.9439 167.172 3.22104 185.037 0.413556C193.79 -0.962929 201.591 1.10066 208.221 6.54528C229.832 24.2942 231.888 71.9147 231.964 73.9329C232.004 74.9607 231.201 75.825 230.171 75.8647C230.147 75.8647 230.122 75.8659 230.1 75.8659L230.099 75.867Z" fill="#CA9702"/>
<path d="M27.4346 114.461C27.4346 106.448 33.9394 99.9531 41.9638 99.9531H165.519C172.336 99.9531 177.957 105.286 178.303 112.085L187.422 290.95C187.693 296.269 183.5 300.755 178.167 300.853L36.5577 303.423C31.5463 303.514 27.4346 299.482 27.4346 294.478V114.461Z" fill="#243775"/>
<path d="M57.254 300.383H57.2494L41.4042 300.179C36.1062 300.11 31.7954 295.75 31.7954 290.459V266.572C31.7954 266.385 31.9467 266.234 32.1332 266.234C32.3198 266.234 32.471 266.385 32.471 266.572V290.459C32.471 295.382 36.4815 299.439 41.4122 299.503L57.2574 299.707C57.4439 299.71 57.5941 299.863 57.5918 300.049C57.5895 300.234 57.4383 300.383 57.254 300.383Z" fill="#768DD5"/>
<path d="M32.1342 259.512C31.9477 259.512 31.7964 259.361 31.7964 259.174V255.306C31.7964 255.12 31.9477 254.969 32.1342 254.969C32.3207 254.969 32.472 255.12 32.472 255.306V259.174C32.472 259.361 32.3207 259.512 32.1342 259.512Z" fill="#768DD5"/>
<path d="M37.5577 102.711C37.5429 100.148 39.8007 98.1635 42.3439 98.5076C59.2162 100.793 117.236 107.858 165.208 104.182C167.395 104.014 169.294 105.669 169.41 107.857L178.974 287.519C179.105 289.982 177.221 292.089 174.755 292.234C154.58 293.427 71.4911 298.036 41.8537 294.936C40.0497 294.748 38.6803 293.232 38.6701 291.42L37.5588 102.71L37.5577 102.711Z" fill="#0671E0"/>
<path d="M39.5451 107.215C39.5303 104.748 41.7027 102.839 44.1516 103.17C60.3892 105.369 116.225 112.169 162.388 108.631C164.494 108.47 166.321 110.062 166.433 112.167L175.636 285.065C175.762 287.435 173.949 289.463 171.575 289.604C152.16 290.751 72.1989 295.186 43.6784 292.203C41.9427 292.021 40.6245 290.562 40.6142 288.82L39.5439 107.216L39.5451 107.215Z" fill="#C2CDEF"/>
<path opacity="0.52" d="M54.5759 120.544L56.3002 157.611C56.357 158.844 57.3545 159.824 58.5909 159.859C65.4665 160.052 86.8896 160.574 98.9859 159.944C100.354 159.872 101.437 158.767 101.483 157.4C101.713 150.448 102.218 130.215 100.632 121.758C100.376 120.391 99.1998 119.391 97.8087 119.342L57.1714 117.923C55.7064 117.872 54.5088 119.081 54.577 120.544H54.5759Z" fill="white"/>
<g opacity="0.6">
<path d="M157.176 123.767C157.46 123.767 157.685 123.536 157.677 123.253L157.634 121.795C157.626 121.512 157.387 121.277 157.104 121.271L110.677 120.445C110.394 120.441 110.239 120.654 110.333 120.921L111.166 123.282C111.26 123.549 111.569 123.767 111.852 123.767H157.175H157.176Z" fill="white"/>
</g>
<g opacity="0.6">
<path d="M110.677 129.594C110.394 129.589 110.239 129.803 110.333 130.07L111.166 132.431C111.26 132.698 111.569 132.916 111.852 132.916H157.175C157.458 132.916 157.684 132.684 157.676 132.401L157.632 130.943C157.624 130.66 157.386 130.425 157.102 130.419L110.676 129.594H110.677Z" fill="white"/>
</g>
<g opacity="0.6">
<path d="M110.677 139.156C110.394 139.152 110.239 139.365 110.333 139.632L111.166 141.993C111.26 142.26 111.569 142.478 111.852 142.478H157.175C157.458 142.478 157.684 142.247 157.676 141.964L157.632 140.506C157.624 140.223 157.386 139.988 157.102 139.982L110.676 139.156H110.677Z" fill="white"/>
</g>
<g opacity="0.6">
<path d="M161.505 171.5C161.788 171.5 162.004 171.269 161.986 170.986L161.889 169.526C161.871 169.243 161.623 169.01 161.34 169.008L55.0785 168.172C54.7953 168.17 54.7077 168.349 54.884 168.571L56.8984 171.097C57.0747 171.319 57.4512 171.5 57.7344 171.5H161.503H161.505Z" fill="white"/>
</g>
<g opacity="0.6">
<path d="M55.0795 175.086C54.7963 175.084 54.7087 175.263 54.885 175.485L56.8994 178.012C57.0757 178.233 57.4521 178.414 57.7354 178.414H161.504C161.788 178.414 162.004 178.183 161.986 177.9L161.889 176.44C161.871 176.157 161.623 175.924 161.339 175.922L55.0784 175.086H55.0795Z" fill="white"/>
</g>
<path opacity="0.6" d="M55.5402 186.63C58.0505 186.438 62.7502 186.348 65.3378 186.313C66.4343 186.298 67.3954 187.038 67.6525 188.104C68.1518 190.171 68.8411 193.761 68.7535 197.563C68.7273 198.702 67.7935 199.611 66.6527 199.599L57.1042 199.497C55.9304 199.485 54.9556 198.589 54.8453 197.421L54.0059 188.452C53.9194 187.525 54.6087 186.703 55.5391 186.632L55.5402 186.63Z" fill="white"/>
<g opacity="0.6">
<path d="M72.2658 190.274C71.9826 190.263 71.7859 190.482 71.8279 190.761L72.3364 194.14C72.3784 194.419 72.6446 194.649 72.9278 194.649H97.9826C98.2658 194.649 98.4944 194.417 98.491 194.134L98.4626 191.881C98.4592 191.598 98.2249 191.357 97.9417 191.345L72.2658 190.274Z" fill="white"/>
</g>
<path opacity="0.6" d="M107.558 186.63C110.069 186.438 114.769 186.348 117.356 186.313C118.452 186.298 119.413 187.038 119.671 188.104C120.17 190.171 120.859 193.761 120.772 197.563C120.745 198.702 119.812 199.611 118.671 199.599L109.122 199.497C107.948 199.485 106.974 198.589 106.863 197.421L106.024 188.452C105.937 187.525 106.626 186.703 107.557 186.632L107.558 186.63Z" fill="white"/>
<g opacity="0.6">
<path d="M124.284 190.274C124.001 190.263 123.804 190.482 123.846 190.761L124.355 194.14C124.397 194.419 124.663 194.649 124.946 194.649H150.001C150.284 194.649 150.513 194.417 150.51 194.134L150.481 191.881C150.478 191.598 150.243 191.357 149.96 191.345L124.284 190.274Z" fill="white"/>
</g>
<g opacity="0.6">
<path d="M52.6783 217.312C53.0059 218.277 54.1319 218.947 55.4149 218.939L159.946 218.246C161.129 218.238 162.074 217.478 162.049 216.558C162.024 215.663 161.088 214.946 159.938 214.942L55.4036 214.57C53.5587 214.564 52.2075 215.923 52.6783 217.312Z" fill="white"/>
</g>
<g opacity="0.6">
<path d="M52.6783 236.171C53.0059 237.137 54.1319 237.807 55.4149 237.799L159.946 237.105C161.129 237.097 162.074 236.337 162.049 235.417C162.024 234.522 161.088 233.806 159.938 233.801L55.4036 233.43C53.5587 233.423 52.2075 234.782 52.6783 236.171Z" fill="white"/>
</g>
<g opacity="0.6">
<path d="M52.6783 255.023C53.0059 255.988 54.1319 256.658 55.4149 256.65L159.946 255.956C161.129 255.948 162.074 255.189 162.049 254.269C162.024 253.374 161.088 252.657 159.938 252.653L55.4036 252.281C53.5587 252.274 52.2075 253.634 52.6783 255.023Z" fill="white"/>
</g>
<g opacity="0.6">
<path d="M52.6783 273.882C53.0059 274.848 54.1319 275.518 55.4149 275.51L159.946 274.816C161.129 274.808 162.074 274.048 162.049 273.128C162.024 272.233 161.088 271.517 159.938 271.512L55.4036 271.141C53.5587 271.134 52.2075 272.493 52.6783 273.882Z" fill="white"/>
</g>
<path d="M95.8462 128.149C95.6415 127.898 95.3207 127.794 94.9795 127.801L63.9647 128.45L63.181 125.965C63.0718 125.619 62.7465 125.397 62.3769 125.407L58.1184 125.518C57.6623 125.53 57.2915 125.847 57.2915 126.301C57.2915 126.756 57.6612 127.056 58.1184 127.044L61.757 126.958L68.3414 147.967C68.4517 148.321 68.785 148.565 69.1615 148.569L90.9303 148.861C91.441 148.868 91.8562 148.548 91.8562 148.065C91.8562 147.582 91.441 147.253 90.9303 147.247L69.7962 147.02L68.1003 141.565L91.325 141.601C91.8004 141.601 92.2201 141.291 92.3532 140.86L96.0191 129.026C96.1146 128.717 96.0498 128.399 95.8451 128.148L95.8462 128.149Z" fill="#768DD5"/>
<path d="M72.3469 149.868C70.5555 149.84 69.1064 151.232 69.1064 152.97C69.1064 154.709 70.5555 156.162 72.3469 156.208C74.1486 156.256 75.6227 154.864 75.6227 153.107C75.6227 151.35 74.1486 149.896 72.3469 149.868ZM72.3469 154.517C71.5098 154.498 70.8308 153.82 70.8308 153.006C70.8308 152.191 71.5098 151.543 72.3469 151.558C73.1863 151.573 73.871 152.251 73.871 153.069C73.871 153.887 73.1863 154.537 72.3469 154.517Z" fill="#768DD5"/>
<path d="M86.8584 150.094C84.9782 150.065 83.4575 151.49 83.4575 153.272C83.4575 155.054 84.9782 156.542 86.8584 156.592C88.7499 156.642 90.2979 155.216 90.2979 153.415C90.2979 151.614 88.7499 150.125 86.8584 150.095V150.094ZM86.8584 154.859C85.9791 154.838 85.2671 154.143 85.2671 153.309C85.2671 152.476 85.9803 151.81 86.8584 151.827C87.7399 151.843 88.4587 152.538 88.4587 153.376C88.4587 154.215 87.7399 154.879 86.8584 154.859Z" fill="#768DD5"/>
<path d="M111.404 75.5696C106.941 72.4691 103.06 72.5305 100.33 73.3357C97.8375 74.0694 96.2224 76.4725 96.459 79.0563L97.6373 91.8955L111.656 93.138C111.656 93.138 120.157 81.6503 111.404 75.5696ZM105.24 85.9285C103.31 85.9285 101.744 84.3657 101.744 82.4384C101.744 80.5111 103.31 78.9484 105.24 78.9484C107.17 78.9484 108.735 80.5111 108.735 82.4384C108.735 84.3657 107.17 85.9285 105.24 85.9285Z" fill="#243775"/>
<path d="M99.038 86.4962C98.8651 86.4962 98.7173 86.3644 98.7013 86.1895L98.5137 84.1453C98.4966 83.959 98.6331 83.7955 98.8196 83.7784C99.0096 83.7603 99.17 83.8977 99.187 84.0839L99.3747 86.1282C99.3918 86.3145 99.2553 86.478 99.0687 86.495C99.0585 86.495 99.0483 86.4962 99.038 86.4962ZM98.6706 82.4894C98.4978 82.4894 98.3499 82.3576 98.334 82.1827L98.1918 80.6302C97.9654 78.1691 99.5169 75.8773 101.879 75.1811C103.552 74.6882 105.277 74.6177 107.003 74.971C107.186 75.0084 107.305 75.1867 107.267 75.3696C107.23 75.5524 107.052 75.6683 106.868 75.6331C105.251 75.3026 103.638 75.3685 102.071 75.8296C100.017 76.4349 98.6695 78.4281 98.8663 80.5689L99.0084 82.1214C99.0255 82.3077 98.889 82.4712 98.7025 82.4882C98.6922 82.4882 98.682 82.4894 98.6718 82.4894H98.6706Z" fill="#768DD5"/>
<path d="M78.5044 100.191V93.7357C78.5044 91.5074 80.3538 89.7221 82.5843 89.7993L127.158 91.3246C129.136 91.3927 130.739 92.9509 130.857 94.9236L131.229 101.127L78.5044 100.192V100.191Z" fill="#243775"/>
<path d="M95.124 92.2293H93.2074C93.0209 92.2293 92.8696 92.0783 92.8696 91.892C92.8696 91.7057 93.0209 91.5547 93.2074 91.5547H95.124C95.3105 91.5547 95.4618 91.7057 95.4618 91.892C95.4618 92.0783 95.3105 92.2293 95.124 92.2293Z" fill="#768DD5"/>
<path d="M80.9169 98.1623C80.7304 98.1623 80.5791 98.0112 80.5791 97.825V95.214C80.5791 93.1958 82.2227 91.5547 84.2438 91.5547H91.2912C91.4777 91.5547 91.629 91.7057 91.629 91.892C91.629 92.0783 91.4777 92.2293 91.2912 92.2293H84.2438C82.5957 92.2293 81.2559 93.5683 81.2559 95.2128V97.8238C81.2559 98.0101 81.1046 98.1611 80.918 98.1611L80.9169 98.1623Z" fill="#768DD5"/>
<path d="M60.342 101.824C60.45 99.5885 62.296 97.8304 64.5379 97.8304L142.483 97.8281C145.286 97.8281 147.682 99.8417 148.16 102.599L148.226 102.98C148.749 106 146.421 108.763 143.351 108.763H63.3834C61.5465 108.763 60.0827 107.228 60.1702 105.397L60.342 101.822V101.824Z" fill="#0671E0"/>
<g opacity="0.3">
<path d="M225.364 211.529C224.786 211.529 224.29 211.092 224.229 210.506C224.094 209.224 224.014 207.917 223.989 206.621C223.976 205.991 224.479 205.47 225.11 205.458H225.133C225.754 205.458 226.263 205.954 226.275 206.578C226.299 207.809 226.375 209.05 226.502 210.269C226.568 210.896 226.112 211.458 225.484 211.523C225.444 211.527 225.403 211.529 225.364 211.529ZM225.438 201.585C225.393 201.585 225.348 201.583 225.302 201.577C224.675 201.504 224.227 200.936 224.301 200.31C224.454 199.024 224.663 197.732 224.922 196.47C225.05 195.852 225.651 195.456 226.272 195.582C226.891 195.709 227.289 196.312 227.162 196.93C226.915 198.129 226.716 199.357 226.572 200.579C226.503 201.16 226.009 201.587 225.438 201.587V201.585ZM227.702 191.906C227.575 191.906 227.445 191.884 227.319 191.84C226.724 191.629 226.413 190.976 226.626 190.382C227.061 189.164 227.553 187.951 228.09 186.775C228.353 186.201 229.031 185.949 229.605 186.21C230.179 186.471 230.432 187.149 230.17 187.723C229.66 188.839 229.192 189.992 228.779 191.148C228.613 191.615 228.172 191.907 227.702 191.907V191.906ZM232.078 182.973C231.867 182.973 231.655 182.915 231.465 182.794C230.932 182.455 230.777 181.749 231.115 181.217C231.812 180.127 232.563 179.054 233.351 178.028C233.734 177.529 234.452 177.433 234.953 177.816C235.455 178.199 235.549 178.915 235.166 179.416C234.419 180.391 233.704 181.411 233.043 182.446C232.825 182.787 232.457 182.973 232.079 182.973H232.078ZM238.339 175.239C238.045 175.239 237.75 175.126 237.526 174.9C237.082 174.451 237.087 173.729 237.536 173.286C238.455 172.379 239.425 171.499 240.422 170.671C240.906 170.267 241.627 170.333 242.031 170.817C242.435 171.3 242.37 172.02 241.884 172.425C240.938 173.212 240.016 174.049 239.142 174.91C238.919 175.13 238.629 175.239 238.339 175.239ZM246.157 169.081C245.774 169.081 245.401 168.89 245.185 168.543C244.852 168.008 245.016 167.304 245.553 166.971C246.651 166.289 247.793 165.646 248.947 165.059C249.51 164.772 250.198 164.996 250.484 165.557C250.771 166.118 250.547 166.806 249.985 167.093C248.89 167.65 247.805 168.261 246.761 168.91C246.573 169.027 246.364 169.082 246.158 169.082L246.157 169.081ZM288.042 166.363C287.883 166.363 287.723 166.331 287.57 166.261C286.451 165.754 285.296 165.288 284.136 164.878C283.541 164.668 283.229 164.015 283.44 163.422C283.65 162.828 284.303 162.517 284.899 162.727C286.121 163.158 287.338 163.649 288.515 164.183C289.089 164.444 289.344 165.121 289.082 165.695C288.891 166.116 288.476 166.365 288.042 166.365V166.363ZM255.141 164.809C254.667 164.809 254.223 164.512 254.06 164.039C253.855 163.442 254.172 162.793 254.768 162.587C255.991 162.166 257.247 161.792 258.502 161.478C259.115 161.327 259.735 161.695 259.89 162.307C260.043 162.918 259.671 163.538 259.059 163.692C257.867 163.991 256.674 164.345 255.513 164.745C255.389 164.787 255.264 164.808 255.14 164.808L255.141 164.809ZM278.569 163.297C278.494 163.297 278.417 163.29 278.341 163.274C277.136 163.03 275.905 162.834 274.683 162.692C274.056 162.619 273.607 162.052 273.68 161.427C273.752 160.801 274.32 160.349 274.947 160.425C276.233 160.575 277.529 160.78 278.796 161.038C279.414 161.164 279.814 161.766 279.688 162.384C279.578 162.925 279.102 163.298 278.569 163.298V163.297ZM264.856 162.647C264.279 162.647 263.783 162.212 263.72 161.628C263.653 161.001 264.108 160.438 264.736 160.371C266.021 160.234 267.329 160.151 268.625 160.125C268.633 160.125 268.641 160.125 268.649 160.125C269.269 160.125 269.778 160.62 269.791 161.243C269.804 161.873 269.303 162.394 268.672 162.408C267.441 162.434 266.199 162.513 264.977 162.643C264.936 162.647 264.895 162.65 264.854 162.65L264.856 162.647Z" fill="#E8644B"/>
<path d="M295.017 170.326C294.792 170.326 294.564 170.26 294.365 170.121C293.882 169.785 293.383 169.453 292.882 169.135C292.35 168.797 292.193 168.092 292.532 167.56C292.871 167.029 293.578 166.871 294.11 167.21C294.636 167.544 295.16 167.893 295.67 168.247C296.189 168.607 296.316 169.318 295.956 169.836C295.734 170.155 295.378 170.326 295.016 170.326H295.017Z" fill="#E8644B"/>
</g>
<g opacity="0.3">
<path d="M313.587 199.775C313.035 199.775 312.549 199.376 312.459 198.814C312.366 198.233 312.259 197.645 312.142 197.064C312.017 196.447 312.416 195.845 313.035 195.719C313.656 195.592 314.257 195.992 314.383 196.61C314.507 197.221 314.619 197.841 314.717 198.452C314.817 199.075 314.393 199.659 313.77 199.759C313.708 199.77 313.648 199.774 313.588 199.774L313.587 199.775Z" fill="#E8644B"/>
<path d="M269.679 251.292C269.153 251.292 268.625 251.283 268.096 251.265C267.464 251.244 266.971 250.715 266.991 250.086C267.013 249.456 267.544 248.961 268.172 248.984C269.395 249.024 270.616 249.016 271.816 248.957C272.447 248.928 272.983 249.412 273.014 250.041C273.045 250.671 272.559 251.206 271.928 251.237C271.185 251.273 270.428 251.291 269.678 251.291L269.679 251.292ZM262.092 250.652C262.029 250.652 261.964 250.646 261.898 250.635C260.641 250.42 259.379 250.15 258.147 249.832C257.536 249.674 257.169 249.052 257.327 248.442C257.485 247.832 258.11 247.463 258.72 247.623C259.889 247.925 261.089 248.182 262.283 248.386C262.906 248.492 263.324 249.082 263.217 249.704C263.122 250.26 262.638 250.653 262.092 250.653V250.652ZM277.902 250.528C277.363 250.528 276.883 250.146 276.781 249.598C276.664 248.978 277.072 248.382 277.693 248.265C278.879 248.042 280.074 247.765 281.241 247.441C281.849 247.273 282.479 247.629 282.648 248.236C282.816 248.844 282.46 249.473 281.851 249.641C280.622 249.982 279.365 250.274 278.116 250.509C278.045 250.522 277.974 250.528 277.904 250.528H277.902ZM252.671 247.951C252.526 247.951 252.379 247.923 252.237 247.865C251.058 247.38 249.887 246.839 248.755 246.258C248.194 245.969 247.973 245.281 248.262 244.721C248.55 244.16 249.24 243.94 249.8 244.228C250.875 244.78 251.988 245.295 253.107 245.755C253.69 245.994 253.969 246.662 253.728 247.245C253.546 247.685 253.121 247.952 252.67 247.952L252.671 247.951ZM287.267 247.666C286.824 247.666 286.403 247.408 286.217 246.977C285.967 246.399 286.233 245.726 286.813 245.476C287.921 244.998 289.024 244.466 290.092 243.894C290.648 243.597 291.341 243.805 291.64 244.361C291.938 244.917 291.729 245.608 291.172 245.906C290.049 246.508 288.887 247.068 287.72 247.572C287.573 247.635 287.419 247.666 287.268 247.666H287.267ZM295.776 242.821C295.422 242.821 295.074 242.658 294.85 242.351C294.479 241.841 294.592 241.127 295.102 240.756C296.082 240.045 297.043 239.286 297.958 238.497C298.436 238.085 299.157 238.139 299.57 238.616C299.982 239.093 299.929 239.814 299.451 240.226C298.487 241.056 297.476 241.856 296.446 242.603C296.243 242.751 296.008 242.821 295.774 242.821H295.776ZM303.024 236.24C302.756 236.24 302.486 236.145 302.268 235.953C301.795 235.537 301.749 234.815 302.167 234.343C302.969 233.436 303.741 232.485 304.462 231.517C304.838 231.012 305.554 230.906 306.061 231.283C306.567 231.659 306.673 232.375 306.295 232.88C305.537 233.899 304.724 234.899 303.88 235.855C303.653 236.11 303.338 236.241 303.022 236.241L303.024 236.24ZM308.662 228.236C308.476 228.236 308.287 228.191 308.113 228.095C307.56 227.792 307.358 227.098 307.663 226.545C308.246 225.486 308.791 224.39 309.281 223.286C309.537 222.71 310.214 222.45 310.789 222.705C311.366 222.961 311.626 223.635 311.371 224.211C310.854 225.373 310.28 226.528 309.666 227.643C309.457 228.022 309.066 228.235 308.662 228.235V228.236ZM312.404 219.189C312.3 219.189 312.193 219.174 312.087 219.144C311.481 218.97 311.131 218.337 311.305 217.731C311.639 216.571 311.928 215.383 312.163 214.198C312.286 213.58 312.89 213.179 313.507 213.3C314.125 213.423 314.528 214.024 314.405 214.643C314.157 215.891 313.852 217.143 313.501 218.362C313.356 218.862 312.899 219.188 312.403 219.188L312.404 219.189ZM314.064 209.548C314.04 209.548 314.017 209.548 313.993 209.546C313.363 209.507 312.883 208.967 312.922 208.337C312.977 207.449 313.004 206.549 313.004 205.661C313.004 205.339 313 205.018 312.994 204.699C312.98 204.068 313.48 203.546 314.112 203.532C314.751 203.506 315.265 204.018 315.28 204.649C315.287 204.985 315.291 205.322 315.291 205.661C315.291 206.594 315.263 207.542 315.205 208.476C315.168 209.081 314.664 209.548 314.065 209.548H314.064Z" fill="#E8644B"/>
<path d="M244.057 243.229C243.83 243.229 243.601 243.162 243.401 243.022C242.895 242.666 242.386 242.294 241.89 241.914C241.389 241.53 241.294 240.815 241.679 240.314C242.063 239.814 242.78 239.719 243.281 240.103C243.753 240.464 244.236 240.817 244.717 241.155C245.233 241.517 245.358 242.229 244.994 242.745C244.771 243.06 244.418 243.229 244.058 243.229H244.057Z" fill="#E8644B"/>
</g>
<path d="M245.599 229.986C245.743 230.162 245.983 230.228 246.197 230.15L252.299 227.909C254.705 229.759 257.423 231.239 260.378 232.253L261.867 238.569C261.919 238.79 262.107 238.955 262.333 238.977L270.093 239.762C270.319 239.785 270.536 239.662 270.632 239.456L273.358 233.566C276.458 233.164 279.417 232.259 282.146 230.927L287.675 234.345C287.868 234.464 288.117 234.448 288.294 234.305L294.337 229.382C294.513 229.238 294.579 228.998 294.5 228.784L292.256 222.691C294.109 220.289 295.591 217.575 296.607 214.624L302.932 213.138C303.154 213.085 303.318 212.899 303.342 212.672L304.127 204.924C304.15 204.698 304.027 204.481 303.82 204.386L297.922 201.664C297.519 198.569 296.613 195.614 295.28 192.889L298.702 187.368C298.821 187.175 298.806 186.927 298.662 186.75L293.732 180.716C293.587 180.54 293.347 180.475 293.133 180.553L287.031 182.794C284.626 180.944 281.907 179.464 278.952 178.45L277.463 172.134C277.411 171.912 277.224 171.749 276.997 171.725L269.238 170.94C269.011 170.917 268.794 171.04 268.698 171.247L265.972 177.137C262.873 177.539 259.913 178.444 257.184 179.775L251.656 176.358C251.462 176.237 251.213 176.254 251.037 176.397L244.994 181.321C244.817 181.465 244.751 181.704 244.83 181.918L247.074 188.011C245.221 190.413 243.739 193.128 242.723 196.078L236.398 197.565C236.177 197.617 236.012 197.803 235.989 198.03L235.203 205.778C235.18 206.004 235.303 206.221 235.51 206.317L241.409 209.039C241.811 212.133 242.718 215.089 244.051 217.813L240.628 223.334C240.508 223.527 240.525 223.776 240.668 223.952L245.599 229.986Z" fill="#E8644B"/>
<path d="M269.658 213.182C265.837 213.182 262.481 210.38 261.908 206.495C261.278 202.225 264.244 198.238 268.521 197.609C270.593 197.303 272.66 197.822 274.34 199.069C276.021 200.317 277.115 202.143 277.42 204.211C278.05 208.481 275.084 212.468 270.807 213.097C270.422 213.153 270.038 213.181 269.66 213.181L269.658 213.182ZM269.677 199.35C269.382 199.35 269.085 199.372 268.787 199.415C265.508 199.897 263.234 202.954 263.717 206.228C264.2 209.502 267.26 211.775 270.54 211.291C273.819 210.808 276.093 207.752 275.61 204.478C275.376 202.891 274.538 201.492 273.249 200.536C272.202 199.759 270.958 199.35 269.677 199.35Z" fill="#E8644B"/>
<path d="M269.818 224.49C269.162 224.49 268.502 224.457 267.84 224.39C267.632 224.369 267.424 224.344 267.216 224.317C266.192 224.179 265.181 223.963 264.198 223.666C264.184 223.662 264.171 223.658 264.158 223.654C264.121 223.642 264.082 223.631 264.044 223.618C263.97 223.596 263.897 223.572 263.824 223.548C263.63 223.486 263.508 223.307 263.508 223.114C263.508 223.068 263.514 223.02 263.53 222.973C263.608 222.734 263.866 222.603 264.106 222.68C265.342 223.08 266.63 223.349 267.933 223.481C274.406 224.136 280.447 221.333 284.208 216.577C286.301 213.932 287.688 210.683 288.053 207.087C288.117 206.457 288.148 205.827 288.148 205.203C288.148 200.996 286.711 196.951 284.01 193.648C280.91 189.854 276.514 187.493 271.634 186.998C261.557 185.98 252.535 193.335 251.515 203.393C251.452 204.013 251.42 204.634 251.42 205.253C251.42 207.937 252.01 210.59 253.153 213.021C253.182 213.084 253.196 213.149 253.196 213.215C253.196 213.387 253.099 213.551 252.933 213.629C252.704 213.735 252.433 213.639 252.325 213.41C251.123 210.858 250.506 208.072 250.506 205.254C250.506 204.604 250.539 203.952 250.605 203.302C251.676 192.742 261.154 185.022 271.725 186.091C276.848 186.609 281.462 189.088 284.717 193.072C287.551 196.54 289.061 200.786 289.061 205.203C289.061 205.859 289.028 206.519 288.96 207.181C288.442 212.297 285.959 216.904 281.97 220.155C278.496 222.985 274.242 224.492 269.818 224.492V224.49Z" fill="#F2F2F2"/>
<g opacity="0.3">
<path d="M186.357 241.6C186.051 241.6 185.77 241.401 185.68 241.093C185.512 240.519 185.357 239.932 185.223 239.348C185.135 238.968 185.373 238.59 185.753 238.503C186.133 238.414 186.511 238.653 186.599 239.032C186.726 239.589 186.873 240.148 187.035 240.696C187.145 241.07 186.93 241.46 186.556 241.57C186.49 241.59 186.423 241.599 186.357 241.599V241.6Z" fill="#E8644B"/>
<path d="M185.312 236.282C184.953 236.282 184.647 236.011 184.61 235.648C184.505 234.622 184.452 233.581 184.452 232.551C184.452 232.334 184.454 232.117 184.458 231.898C184.468 231.508 184.81 231.214 185.18 231.207C185.57 231.215 185.879 231.538 185.871 231.926C185.867 232.135 185.864 232.343 185.864 232.55C185.864 233.532 185.916 234.526 186.014 235.504C186.054 235.891 185.772 236.237 185.384 236.277C185.359 236.279 185.335 236.281 185.312 236.281V236.282ZM185.466 228.964C185.433 228.964 185.399 228.962 185.365 228.958C184.979 228.902 184.711 228.544 184.767 228.159C184.944 226.922 185.201 225.687 185.529 224.485C185.631 224.109 186.021 223.889 186.395 223.99C186.772 224.092 186.994 224.479 186.891 224.855C186.579 226.001 186.334 227.181 186.165 228.36C186.113 228.711 185.812 228.964 185.467 228.964H185.466ZM187.394 221.902C187.304 221.902 187.213 221.885 187.126 221.849C186.765 221.701 186.593 221.289 186.741 220.929C187.217 219.776 187.769 218.64 188.386 217.553C188.578 217.213 189.007 217.094 189.348 217.286C189.687 217.478 189.807 217.907 189.615 218.247C189.029 219.283 188.501 220.366 188.048 221.466C187.936 221.738 187.673 221.902 187.395 221.902H187.394ZM191.002 215.53C190.855 215.53 190.709 215.485 190.582 215.391C190.269 215.16 190.204 214.718 190.436 214.404C191.182 213.4 191.995 212.435 192.856 211.533C193.126 211.252 193.573 211.243 193.853 211.51C194.136 211.778 194.147 212.224 193.877 212.507C193.056 213.366 192.279 214.287 191.568 215.245C191.43 215.431 191.217 215.53 191.001 215.53H191.002ZM196.059 210.231C195.855 210.231 195.652 210.142 195.513 209.973C195.266 209.672 195.31 209.228 195.611 208.981C196.578 208.191 197.602 207.452 198.656 206.785C198.985 206.576 199.421 206.674 199.629 207.003C199.837 207.332 199.74 207.767 199.411 207.975C198.405 208.611 197.427 209.316 196.506 210.072C196.374 210.18 196.216 210.232 196.059 210.232V210.231ZM202.25 206.318C201.986 206.318 201.731 206.168 201.611 205.914C201.445 205.562 201.595 205.143 201.947 204.976C203.077 204.443 204.252 203.975 205.437 203.587C205.809 203.466 206.206 203.667 206.327 204.037C206.449 204.406 206.247 204.804 205.877 204.926C204.746 205.296 203.627 205.741 202.55 206.25C202.452 206.297 202.35 206.317 202.249 206.317L202.25 206.318ZM209.208 204.037C208.877 204.037 208.582 203.804 208.516 203.468C208.441 203.086 208.691 202.715 209.073 202.64C210.296 202.401 211.549 202.235 212.799 202.148C213.189 202.127 213.526 202.415 213.552 202.802C213.58 203.19 213.286 203.527 212.897 203.555C211.705 203.638 210.51 203.796 209.344 204.023C209.298 204.032 209.253 204.035 209.207 204.035L209.208 204.037ZM220.17 203.947C220.129 203.947 220.088 203.943 220.046 203.935C219.032 203.756 217.992 203.629 216.951 203.557C216.794 203.546 216.638 203.536 216.484 203.528C216.095 203.507 215.795 203.176 215.816 202.787C215.835 202.398 216.171 202.088 216.557 202.119C216.722 202.129 216.886 202.138 217.052 202.15C218.138 202.225 219.23 202.359 220.293 202.548C220.677 202.616 220.933 202.981 220.865 203.365C220.804 203.707 220.506 203.947 220.171 203.947H220.17Z" fill="#E8644B"/>
</g>
<g opacity="0.3">
<path d="M215.36 262.963C214.974 262.963 214.659 262.653 214.654 262.267C214.649 261.879 214.962 261.558 215.351 261.553C216.524 261.538 217.707 261.451 218.866 261.295C219.251 261.247 219.609 261.513 219.66 261.899C219.713 262.285 219.441 262.64 219.055 262.692C217.839 262.855 216.599 262.946 215.37 262.962H215.361L215.36 262.963ZM211.752 262.793C211.727 262.793 211.701 262.792 211.676 262.788C210.454 262.658 209.227 262.451 208.03 262.175C207.65 262.087 207.414 261.709 207.501 261.33C207.589 260.95 207.97 260.716 208.348 260.801C209.489 261.064 210.66 261.262 211.826 261.387C212.214 261.428 212.493 261.776 212.452 262.163C212.414 262.525 212.108 262.793 211.752 262.793ZM222.503 261.999C222.19 261.999 221.903 261.79 221.82 261.473C221.721 261.097 221.946 260.712 222.323 260.612C223.459 260.314 224.585 259.943 225.673 259.512C226.036 259.37 226.445 259.545 226.589 259.907C226.734 260.268 226.556 260.678 226.193 260.822C225.054 261.274 223.872 261.662 222.681 261.975C222.621 261.991 222.561 261.999 222.501 261.999H222.503ZM204.725 261.167C204.644 261.167 204.563 261.153 204.483 261.123C203.327 260.703 202.186 260.207 201.092 259.648C200.745 259.471 200.607 259.046 200.784 258.7C200.961 258.355 201.387 258.217 201.734 258.393C202.778 258.926 203.865 259.398 204.967 259.799C205.333 259.933 205.522 260.338 205.388 260.703C205.283 260.989 205.013 261.167 204.725 261.167ZM229.201 259.339C228.951 259.339 228.708 259.206 228.581 258.972C228.393 258.631 228.519 258.202 228.862 258.015C229.89 257.455 230.894 256.826 231.848 256.144C232.165 255.917 232.606 255.991 232.833 256.308C233.059 256.625 232.986 257.066 232.669 257.292C231.669 258.006 230.616 258.666 229.539 259.253C229.431 259.312 229.315 259.339 229.201 259.339ZM235.064 255.153C234.873 255.153 234.682 255.076 234.543 254.925C234.279 254.637 234.299 254.191 234.586 253.929C235.452 253.136 236.278 252.284 237.039 251.398C237.292 251.102 237.739 251.069 238.034 251.322C238.33 251.576 238.364 252.021 238.11 252.316C237.312 253.246 236.447 254.139 235.54 254.969C235.404 255.093 235.234 255.154 235.063 255.154L235.064 255.153ZM239.755 249.685C239.621 249.685 239.484 249.647 239.365 249.566C239.039 249.351 238.952 248.913 239.168 248.589C239.82 247.613 240.416 246.589 240.94 245.545C241.115 245.197 241.539 245.057 241.887 245.231C242.235 245.406 242.376 245.83 242.201 246.177C241.651 247.272 241.025 248.347 240.343 249.37C240.206 249.573 239.982 249.683 239.755 249.683V249.685Z" fill="#E8644B"/>
<path d="M198.274 257.875C198.137 257.875 197.999 257.836 197.879 257.754C197.378 257.415 196.886 257.061 196.414 256.701C196.105 256.464 196.045 256.022 196.283 255.713C196.521 255.405 196.963 255.346 197.273 255.582C197.722 255.926 198.193 256.265 198.669 256.587C198.992 256.806 199.077 257.244 198.858 257.566C198.722 257.767 198.5 257.877 198.272 257.877L198.274 257.875Z" fill="#E8644B"/>
</g>
<path d="M198.861 248.772C198.957 248.891 199.118 248.935 199.261 248.881L203.344 247.382C204.954 248.62 206.774 249.611 208.75 250.29L209.747 254.516C209.782 254.664 209.907 254.774 210.058 254.789L215.251 255.314C215.402 255.329 215.548 255.247 215.611 255.109L217.436 251.168C219.509 250.898 221.49 250.293 223.316 249.402L227.016 251.688C227.146 251.768 227.312 251.757 227.43 251.661L231.473 248.366C231.592 248.269 231.636 248.109 231.583 247.966L230.081 243.889C231.321 242.282 232.313 240.465 232.993 238.491L237.225 237.496C237.374 237.461 237.484 237.336 237.499 237.185L238.025 232C238.041 231.849 237.958 231.704 237.819 231.64L233.872 229.818C233.603 227.748 232.996 225.77 232.104 223.947L234.393 220.252C234.474 220.123 234.463 219.957 234.366 219.839L231.066 215.801C230.97 215.683 230.809 215.639 230.666 215.692L226.583 217.192C224.973 215.954 223.153 214.963 221.177 214.284L220.18 210.058C220.145 209.911 220.02 209.8 219.869 209.784L214.676 209.26C214.525 209.244 214.379 209.327 214.316 209.465L212.491 213.406C210.418 213.675 208.436 214.281 206.611 215.172L202.912 212.886C202.782 212.805 202.616 212.817 202.498 212.913L198.455 216.208C198.336 216.305 198.292 216.465 198.345 216.608L199.847 220.685C198.607 222.292 197.615 224.109 196.935 226.083L192.703 227.078C192.555 227.113 192.444 227.238 192.429 227.389L191.903 232.574C191.888 232.725 191.97 232.87 192.109 232.934L196.056 234.755C196.325 236.826 196.932 238.804 197.824 240.627L195.535 244.322C195.454 244.451 195.465 244.617 195.562 244.735L198.862 248.772H198.861Z" fill="#E8644B"/>
<path d="M214.953 237.617C213.814 237.617 212.71 237.255 211.778 236.564C210.633 235.715 209.889 234.471 209.681 233.062C209.251 230.154 211.272 227.439 214.185 227.009C217.102 226.586 219.817 228.599 220.247 231.507C220.455 232.916 220.102 234.322 219.251 235.465C218.4 236.608 217.155 237.352 215.743 237.559C215.479 237.598 215.215 237.617 214.954 237.617H214.953ZM214.966 228.361C214.776 228.361 214.584 228.375 214.391 228.403C212.248 228.719 210.762 230.716 211.077 232.856C211.231 233.892 211.778 234.807 212.621 235.432C213.464 236.057 214.499 236.315 215.537 236.164C216.576 236.011 217.491 235.465 218.117 234.623C218.742 233.782 219.003 232.748 218.85 231.711C218.563 229.765 216.882 228.361 214.966 228.361Z" fill="#F2F2F2"/>
<path d="M215.054 245.493C214.607 245.493 214.156 245.471 213.703 245.425C212.803 245.334 211.91 245.152 211.049 244.882C211.01 244.87 210.971 244.857 210.933 244.845C210.635 244.748 210.445 244.472 210.444 244.175C210.444 244.102 210.455 244.03 210.479 243.957C210.6 243.587 210.998 243.386 211.368 243.504C212.17 243.764 213.004 243.937 213.846 244.022C213.892 244.026 213.938 244.031 213.984 244.034C215.978 244.217 217.943 243.895 219.734 243.124C220.707 242.705 221.628 242.153 222.476 241.475C222.483 241.47 222.49 241.464 222.497 241.458C222.518 241.441 222.539 241.424 222.559 241.407C225.02 239.403 226.551 236.561 226.87 233.407C226.912 232.999 226.933 232.592 226.933 232.187C226.933 229.464 226.001 226.845 224.254 224.706C222.247 222.25 219.401 220.722 216.242 220.402C213.085 220.084 209.989 221.011 207.529 223.014C205.068 225.019 203.537 227.86 203.218 231.014C203.177 231.415 203.156 231.817 203.156 232.218C203.156 233.956 203.537 235.673 204.278 237.247C204.323 237.344 204.345 237.446 204.345 237.547C204.345 237.811 204.195 238.065 203.939 238.185C203.585 238.35 203.165 238.2 202.999 237.847C202.171 236.086 201.745 234.164 201.744 232.22C201.744 231.772 201.766 231.322 201.812 230.873C202.17 227.344 203.883 224.166 206.636 221.923C209.388 219.681 212.848 218.639 216.384 218.999C219.918 219.357 223.102 221.066 225.347 223.816C227.302 226.208 228.344 229.138 228.344 232.185C228.344 232.637 228.321 233.094 228.275 233.549C227.581 240.382 221.788 245.491 215.054 245.491V245.493Z" fill="#F2F2F2"/>
<path d="M158.369 310.617C161.647 310.9 167.336 311.36 171.82 311.556C174.516 311.675 176.069 311.411 176.961 311.054C176.96 311.156 176.957 311.25 176.954 311.338C176.932 311.81 176.549 312.187 176.072 312.213C167.598 312.685 160.859 312.376 158.459 312.231C157.963 312.2 157.668 311.662 157.921 311.241C158.049 311.029 158.202 310.823 158.368 310.618L158.369 310.617Z" fill="#0671E0"/>
<path d="M171.821 311.556C167.336 311.358 161.648 310.899 158.37 310.617C161.592 306.669 171.821 304.008 171.821 304.008H174.71C176.697 306.868 176.984 309.59 176.963 311.054C176.069 311.412 174.517 311.675 171.822 311.556H171.821Z" fill="#243775"/>
<path d="M175.196 299.297L174.925 304.638C174.895 305.216 174.462 305.702 173.882 305.785C173.305 305.868 172.532 305.878 171.712 305.606C171.208 305.438 170.833 305.014 170.74 304.496L169.807 299.297H175.196Z" fill="#F3B1A5"/>
<path d="M208.724 316.782C210.146 316.526 210.788 315.573 211.058 314.555C211.06 314.564 211.061 314.573 211.064 314.582C211.273 315.656 210.788 316.77 209.819 317.3C208.648 317.94 207.367 318.049 206.373 317.996C205.306 317.939 204.327 317.369 203.789 316.458L203.781 316.445C204.851 317.128 206.355 317.209 208.725 316.782H208.724Z" fill="#0671E0"/>
<path d="M202.022 300.946H204.405C208.033 300.851 210.313 310.728 211.059 314.552C210.789 315.571 210.147 316.523 208.725 316.779C206.355 317.206 204.851 317.125 203.781 316.442C201.82 313.113 200.848 308.236 200.381 305.391C199.85 302.154 202.023 300.946 202.023 300.946H202.022Z" fill="#243775"/>
<path d="M204.098 295.984L205.421 301.238C205.584 301.882 205.274 302.549 204.678 302.854C203.938 303.234 202.896 303.632 201.938 303.516C201.488 303.462 201.114 303.145 200.965 302.723L199.022 297.195L204.097 295.984H204.098Z" fill="#F3B1A5"/>
<path d="M157.563 226.788C157.563 226.788 169.386 300.574 169.19 300.98C169.19 300.98 172.456 302.462 176.014 301.168C176.014 301.168 174.945 261.724 172.441 246.601C172.441 246.601 192.616 281.855 199.024 299.423C199.024 299.423 202.366 299.025 205.132 297.207C205.132 297.207 183.409 233.749 177.613 225.297L157.563 226.788Z" fill="#243775"/>
<path d="M171.969 246.217C172.032 246.217 172.096 246.2 172.153 246.163C172.317 246.061 172.366 245.846 172.263 245.683L167.845 238.637C167.794 238.556 167.712 238.498 167.618 238.48L164.367 237.827C164.177 237.79 163.994 237.912 163.956 238.1C163.918 238.288 164.04 238.472 164.229 238.511L167.332 239.134L171.671 246.053C171.737 246.159 171.85 246.217 171.967 246.217H171.969Z" fill="#243775"/>
<path d="M103.313 154.539C103.313 154.539 111.289 156.296 116.141 158.532C117.105 158.976 117.874 159.753 118.312 160.711C119.763 163.885 124.104 171.844 132.524 175.642C131.311 177.249 129.358 180.591 128.509 186.21C123.452 182.452 119.086 176.174 116.99 165.881C116.99 165.881 115.394 166.748 113.403 165.783C112.351 165.273 111.136 164.549 110.225 163.98C109.316 163.414 108.639 162.532 108.376 161.502C108.029 160.143 108.234 158.948 108.234 157.666L104.134 156.397C104.134 156.397 102.901 155.933 103.313 154.539Z" fill="#F3B1A5"/>
<path d="M128.51 186.206C129.361 180.587 131.312 177.245 132.525 175.638C137.756 177.998 144.559 178.752 153.223 175.754C154.022 175.478 154.856 175.315 155.699 175.266C160.312 174.996 175.511 174.503 188.087 178.653C190.734 179.527 192.878 181.48 193.982 184.011C197.384 191.807 202.893 209.562 187.601 218.525C186.427 215.613 185.071 213.271 183.912 211.551C186.374 207.404 187.103 201.74 182.733 194.364C179.547 202.954 178.052 215.49 177.74 221.037C177.638 222.863 177.959 224.686 178.676 226.372L178.755 226.556C178.908 226.918 178.697 227.332 178.311 227.418C169.703 229.349 160.75 228.824 158.076 228.604C157.598 228.564 157.201 228.224 157.092 227.763C152.906 210.151 152.896 198.137 153.921 190.544C150.004 191.419 138.031 193.282 128.511 186.207L128.51 186.206Z" fill="#0671E0"/>
<path d="M153.902 191.021C154.075 191.021 154.226 190.894 154.248 190.718C155.231 183.303 157.233 180.067 157.253 180.035C157.356 179.873 157.308 179.657 157.145 179.554C156.983 179.452 156.768 179.499 156.664 179.662C156.579 179.796 154.562 183.036 153.557 190.627C153.532 190.818 153.666 190.993 153.857 191.019C153.873 191.021 153.888 191.022 153.904 191.022L153.902 191.021Z" fill="#0671E0"/>
<path d="M175.146 165.009C175.146 165.009 176.017 174.203 176.783 176.923C176.899 177.335 176.72 177.77 176.344 177.984C175.043 178.727 171.922 179.938 167.652 177.848C166.961 177.51 166.545 176.79 166.578 176.028L166.954 167.143L175.146 165.008V165.009Z" fill="#EE8A77"/>
<path d="M166.766 153.25C166.766 153.25 163.98 159.638 163.794 162.992C163.607 166.346 162.883 168.521 166.766 169.197C170.649 169.872 173.92 167.94 175.692 164.6C175.692 164.6 178.469 159.453 177.847 157.345C177.223 155.238 166.766 153.25 166.766 153.25Z" fill="#F3B1A5"/>
<path d="M174.365 162.197L174.145 162.099C173.864 161.975 173.743 161.64 173.884 161.367C174.431 160.311 175.499 157.89 174.121 157.325C172.344 156.597 165.304 155.164 163.785 152.67C162.326 150.273 163.619 147.179 165.563 146.299C165.693 146.24 165.846 146.286 165.913 146.412L166.075 146.718C166.185 146.927 166.496 146.896 166.562 146.668C166.625 146.45 166.916 146.407 167.037 146.6C167.503 147.346 168.765 148.555 172.135 149.177C176.926 150.059 180.092 151.996 180.172 155.3C180.176 155.511 180.4 155.628 180.58 155.517C180.934 155.302 181.5 155.202 182.257 155.837C183.573 156.942 183.033 159.806 180.15 162.164C180.014 162.276 180.015 162.49 180.163 162.586C180.686 162.926 181.465 163.734 179.445 164.812C177.356 165.927 175.796 165.835 175.196 165.737C175.047 165.712 174.95 165.567 174.983 165.42L175.624 162.515C175.661 162.35 175.536 162.194 175.366 162.194H174.368L174.365 162.197Z" fill="#243775"/>
<path d="M174.244 162.811C174.244 162.811 175.306 158.73 177.139 159.874C178.971 161.019 176.188 164.446 174.715 164.6L174.244 162.811Z" fill="#F3B1A5"/>
<path d="M114.863 164.929C114.94 164.929 115.018 164.904 115.082 164.851C115.232 164.73 115.254 164.51 115.132 164.36C114.831 163.99 112.153 160.722 111.122 160.14C110.746 159.929 110.522 159.71 110.476 159.508C110.453 159.411 110.468 159.303 110.522 159.179L113.667 159.809L115.45 161.335C115.595 161.461 115.816 161.444 115.942 161.297C116.068 161.151 116.051 160.932 115.905 160.806L114.053 159.219C114.007 159.18 113.953 159.154 113.895 159.142L110.413 158.445C110.273 158.416 110.133 158.475 110.055 158.592C109.8 158.97 109.715 159.321 109.797 159.667C109.893 160.074 110.214 160.428 110.779 160.746C111.555 161.183 113.794 163.82 114.591 164.799C114.659 164.884 114.76 164.927 114.862 164.927L114.863 164.929Z" fill="#F3B1A5"/>
<path d="M174.38 222.947L162.069 223.099L166.377 219.049C167.449 218.043 169.083 217.879 170.32 218.68C171.043 219.149 171.829 219.785 172.509 220.628C172.509 220.628 180.189 217.825 183.912 211.555C185.071 213.274 186.428 215.616 187.601 218.528C184.264 220.485 179.938 222.023 174.38 222.947Z" fill="#F3B1A5"/>
<path d="M173.054 224.532C173.03 224.533 173.006 224.534 172.982 224.533L141.731 224.499C140.959 224.499 140.333 223.879 140.333 223.116C140.333 222.352 140.963 221.721 141.733 221.735L172.985 221.769C173.757 221.769 174.382 222.389 174.382 223.152C174.382 223.891 173.793 224.494 173.054 224.531V224.532Z" fill="#162146"/>
<path d="M113.637 196.5H139.663C141.583 196.5 143.33 197.595 144.15 199.311L156.181 224.517H123.837C122.6 224.517 121.488 223.77 121.033 222.633L111.703 199.309C111.164 197.961 112.17 196.5 113.636 196.5H113.637Z" fill="#243775"/>
<path d="M131.048 213.183C132.122 212.829 132.531 211.141 131.96 209.412C131.39 207.684 130.056 206.569 128.982 206.922C127.907 207.276 127.499 208.964 128.069 210.693C128.64 212.422 129.973 213.536 131.048 213.183Z" fill="#0671E0"/>
</g>
<defs>
<clipPath id="clip0_2892_25636">
<rect width="314.581" height="318" fill="white" transform="translate(0.709473)"/>
</clipPath>
</defs>
</svg>
