<svg width="430" height="553" viewBox="0 0 430 553" fill="none" xmlns="http://www.w3.org/2000/svg">
<path d="M80.2686 386.169C89.2203 366.733 54.4707 321.104 9.08317 305.056C-24.5171 293.178 -79.9385 290.774 -97.3385 323.643C-114.042 355.183 -111.357 378.889 -87.5898 406.865C-66.0119 432.261 -39.5763 444.113 -6.97448 429.739C4.09136 424.863 10.9289 419.928 16.4828 415.961C50.6954 391.515 74.0268 399.72 80.2603 386.169L80.2686 386.169Z" fill="#768DD5"/>
<path d="M-279.734 77.5365C-312.058 132.929 -220.639 141.753 -199.479 169.325C-186.576 186.142 -198.541 210.403 -197.914 229.532C-197.048 255.77 -176.087 277.108 -153.472 286.528C-112.326 303.666 -94.1948 275.341 -82.117 240.412C-73.0889 214.31 -55.1659 172.278 -65.3131 144.8C-82.2899 98.8143 -163.036 59.3685 -209.621 57.7149C-237.96 56.708 -269.658 51.0815 -279.744 77.537L-279.734 77.5365Z" fill="#F3B502"/>
<path d="M146.679 201.442C154.89 219.187 123.018 260.849 81.3882 275.501C50.5701 286.346 -0.262318 288.542 -16.2215 258.531C-31.542 229.733 -29.0797 208.089 -7.28006 182.545C12.5112 159.358 36.7578 148.536 66.6601 161.661C76.8097 166.112 83.081 170.618 88.1751 174.241C119.555 196.56 140.954 189.069 146.672 201.442L146.679 201.442Z" fill="#026C52"/>
<path d="M-29.8744 82.568C-23.8457 53.7418 22.9465 33.7403 44.162 55.3861C63.8594 72.6965 40.3233 128.575 13.4089 133.939C-10.6001 138.81 -39.9284 108.29 -29.8744 82.568ZM16.5756 72.2223C-2.08277 71.2924 -15.1231 104.158 12.6063 99.5582C19.3629 97.2489 25.9951 75.5415 16.5756 72.2223Z" fill="#768DD5"/>
<path d="M61.5329 121.537C57.6876 110.833 75.7573 98.1399 80.3404 95.4108C95.6902 86.2699 109.014 73.029 124.845 65.1592C137.469 58.8784 164.624 24.7325 178.554 39.8053C181.268 42.7401 183.256 51.3264 184.707 55.5573C187.464 63.5953 190.99 72.4682 192.791 80.9486C194.667 89.778 196.718 109.904 193.154 118.085C187.958 130.018 168.338 129.8 159.278 131.713C136.331 136.554 115.217 141.364 91.8262 141.433C83.7167 141.458 75.3509 144.642 68.3669 138.779C62.2457 133.644 63.2523 126.323 61.5392 121.544L61.5329 121.537Z" fill="#E8644B"/>
<path d="M315.614 399.333C324.923 407.953 313.57 429.804 310.438 434.861C299.949 451.798 293.573 471.753 281.955 487.68C272.693 500.385 263.381 548.141 241.847 540.382C237.653 538.871 231.271 531.394 227.66 527.952C220.799 521.413 212.747 514.443 206.605 506.974C200.209 499.199 187.832 480.331 187.152 470.401C186.158 455.92 205.684 446.051 213.665 439.501C233.881 422.914 252.301 407.3 275.41 395.21C283.421 391.017 290.062 383.566 299.987 385.78C308.684 387.716 311.452 395.48 315.605 399.33L315.614 399.333Z" fill="#E8644B"/>
<path d="M384.23 374.3C394.293 382.526 409.565 390.025 416.667 400.622C426.293 414.992 431.753 439.482 429.319 456.957C426.957 473.94 421.699 490.133 415.26 506.14C410.245 518.616 389.423 538.856 389.423 538.856L369.573 527.026C369.573 527.026 376.206 520.664 381.941 514.551C396.768 498.754 403.328 467.771 403.377 447.014C403.409 434.2 402.73 424.491 393.039 415.532C385.711 408.758 377.209 402.065 369.015 396.831C373.148 391.219 380.056 380.51 384.222 374.284L384.23 374.3Z" fill="#768DD5"/>
<path d="M111.066 410.598C124.591 419.445 139.305 428.057 140.996 447.153C143.075 470.652 126.201 496.449 102.516 498.336C79.7535 500.142 53.1323 478.909 51.1748 455.169C49.7188 437.452 57.371 416.025 73.7028 408.921C82.9325 404.905 101.958 404.639 111.066 410.598Z" fill="#F3B502"/>
<path d="M232.84 137.121C247.886 146.96 264.258 156.548 266.143 177.797C268.456 203.941 249.681 232.657 223.319 234.745C197.992 236.761 168.37 213.126 166.194 186.716C164.576 166.999 173.086 143.161 191.262 135.25C201.527 130.783 222.704 130.485 232.84 137.113L232.84 137.121Z" fill="#768DD5"/>
</svg>
