<svg width="298" height="641" viewBox="0 0 298 641" fill="none" xmlns="http://www.w3.org/2000/svg">
<path d="M267.51 181.423C286.031 170.708 283.958 113.39 256.133 74.1045C235.534 45.0231 191.644 11.0967 158.474 27.9139C126.638 44.0476 115.159 64.9623 118.442 101.524C121.424 134.715 136.185 159.644 171.109 166.703C182.961 169.101 191.393 169.014 198.218 168.975C240.266 168.735 254.595 188.893 267.503 181.418L267.51 181.423Z" fill="#768DD5"/>
<path d="M308.452 249.91C294.576 244.172 276.728 267.212 272.855 273.086C259.858 292.759 241.592 309.506 230.234 329.884C221.175 346.139 174.497 379.817 193.509 399.127C197.212 402.886 208.406 406.04 213.89 408.212C224.318 412.342 235.796 417.547 246.862 420.452C258.383 423.471 284.787 427.422 295.789 423.236C311.836 417.126 312.758 391.245 315.837 379.418C323.633 349.464 331.273 321.923 332.805 291.093C333.337 280.399 338.055 269.569 330.748 259.992C324.356 251.605 314.645 252.481 308.452 249.917L308.452 249.91Z" fill="#F3B502"/>
<path d="M196.033 444.557C186.231 455.166 201.055 478.96 205.058 484.422C218.464 502.715 227.469 524.798 242.068 541.845C253.707 555.444 268.51 608.82 292.263 598.104C296.889 596.018 303.47 586.966 307.263 582.739C314.47 574.709 322.99 566.084 329.299 557.063C335.869 547.67 348.244 525.159 348.136 513.828C347.98 497.304 324.943 487.834 315.304 481.108C290.889 464.075 268.599 447.986 241.298 436.313C231.834 432.265 223.636 424.396 212.567 427.789C202.868 430.757 200.415 439.815 196.043 444.553L196.033 444.557Z" fill="#E8644B"/>
<path d="M5.01717 504.824C15.6406 515.123 26.1277 531.408 39.0433 538.047C56.5582 547.045 84.9703 550.002 104.412 544.953C123.306 540.051 140.927 531.978 158.182 522.593C171.631 515.283 191.785 489.079 191.785 489.079L175.799 468.185C175.799 468.185 169.475 476.522 163.317 483.81C147.4 502.653 113.226 514.142 89.7597 516.923C75.2737 518.643 64.205 519.15 52.8006 509.369C44.1777 501.971 35.492 493.236 28.4972 484.658C22.6933 490.069 11.4906 499.288 4.99784 504.817L5.01717 504.824Z" fill="#768DD5"/>
<path d="M170.134 201.83C153.005 213.031 134.366 223.946 132.221 248.137C129.587 277.9 150.961 310.591 180.972 312.969C209.805 315.264 243.528 288.356 246.006 258.29C247.847 235.844 238.16 208.707 217.467 199.701C205.781 194.615 181.672 194.275 170.134 201.821L170.134 201.83Z" fill="#026C52"/>
<path d="M103.424 368.418C157.185 318.715 164.737 229.067 136.198 221.585C117.302 216.628 83.1734 247.842 60.5196 268.562C32.764 293.946 -4.88196 326.527 0.523666 356.685C4.53874 379.086 23.1315 399.567 49.4505 396.675C75.2262 393.839 96.9223 374.44 103.433 368.418L103.424 368.418Z" fill="#E8644B"/>
</svg>
